<mxfile host="65bd71144e">
    <diagram id="E-Qiu8gHWy18frRP02ws" name="Page-1">
        <mxGraphModel dx="360" dy="240" grid="1" gridSize="10" guides="1" tooltips="1" connect="1" arrows="1" fold="1" page="1" pageScale="1" pageWidth="827" pageHeight="1169" math="0" shadow="0">
            <root>
                <mxCell id="0"/>
                <mxCell id="1" parent="0"/>
                <mxCell id="2" value="" style="shape=image;verticalLabelPosition=bottom;labelBackgroundColor=default;verticalAlign=top;aspect=fixed;imageAspect=0;image=data:image/png,iVBORw0KGgoAAAANSUhEUgAAAggAAAE/CAYAAAAjazvrAAAAAXNSR0IArs4c6QAAIABJREFUeF7sfQegXEW5/7e796bfFEgghIQ0SijSAkISSGgKSlNQn4j6AJViCgoqiPJ8KkVUUJCmyJ9HIEFKIIggitJCCymEEiCFNEInIYHUe+/u+fv75sw5c+bMKVvu3r13Z97D3N2dM2fmm/L95quZZ555xiFbLAUsBSwFLAUsBSwFLAUUCmQsQLDrwVLAUsBSwFLAUsBSQKeABxA2bdpEjlOeMCGTyVCPHj0slS0FLAUsBSwFLAUsBTo4BTyA8P7771OhUChrOLlcjgYMGFBWG/ZhSwFLAUsBSwFLAUuB9qeABQjtPwe2B5YClgKWApYClgI1RwELEGpuSmyHLAUsBSwFLAUsBdqfAkUBBNgY9OzZkzZu3Gi0V7AqhvafUNsDSwFLAUsBSwFLgUpQoCiA0LVrV9p3331p/vz51NLSEnq/BQiVmBLbhqWApYClgKWApUD7UyAVQIDkAMz/8MMPp7lz59JHH31k7Hk1AIL0tECf8DeASkNDA+Hzli1bqHv37oG+wfAym80G6uIzSj6fp9bWVgLwaW5u5nbkb/J3fI/f1e+LnTbZB/yL9+FfeI0sX76c9t57b2psbCy2Se4v6I1+gQZoAzSwxVLAUsBSwFLAUqASFEgFEHr37k2jRo2iZcuW0fr1643SA3SmGgBh69attGrVKgYCUHWsWLGChg8fTsOGDaNnnnmG+zlw4ECPNu+88w4DgQ0bNtAHH3xAO++8M+2www78O4DOvHnzaLfdduOxbbPNNvSpT32K1qxZQ5s3b+axgpGDiQMklFreeustBigff/wxt71u3ToGCkOHDuV3brvtttTU1MR0xe/4rVu3bvxbFDBZunQp969Lly60evVqGjduHGGebLEUsBSwFLAUsBSoBAUSAQIY43777UeLFi2KlBzIjlQDIIDRguGCQYKBLl68mA466CAaMmQIqz5Q9t9/f482YLqQevTq1Yv69u1L999/Px188MF0wAEHMGj497//zQwaDLlPnz4MIF5//XV67733eLyHHXYY9evXryxa47YPIIL2AQrmzJnDbe66665883/hhRf4d9B68ODBDLQAhCZMmBAZVwL9e/bZZ2mXXXahN998k8aMGcPt22IpYClgKWApYClQCQokAgSI3XFDx439pZdein1nNQCC2oG1a9fSggUL6IgjjuCvARBWrlzJgAHxGMBkAQ7AhCFJwG0bahIwYzB+1MVtfp999qEHHniAGTKAAoCBZNyvvvoq38whlTj66KP5PQAZuLFD6oDAUGDSH374ocegIXV44403WJUwcuTIgEQDYAB0glRCFrQDdcORRx7JX0F6gXp77bUXqz3wGWAIoKB///78PKQlkHZgjHgXAA/q2mIpYClgKWApYClQCQokAgS8BExz++2351s4GBkYoKlUGyA899xz3BcVIAA04HYOhg2GDgAAVQQYLEAOJA74Djd1jEVKRzAe/A2pwpIlS5gpQ7IApjx+/HgeLtoG4ADYGDRoENME7wFzhtoDv6OATvgNBV4fkFzIMmPGDDrmmGP4e1nwrptvvpkmTZrEXwGIgeaQikDaACmICkgAYDAWSDvQHsZvA1RVYjvYNiwFLAUsBSwFJAVSAQRZWd5YId43RV2sFkAAg3z66afZdgA3eEgETjjhBE/FAE8L2B2YjP/uvfdelhQAREBdAcPGW265hSZOnOgZ+cmxgelDnQHmjCKNIgEEYPvw7rvv0vHHH883ejyjGlDqtgP4bfbs2axikDYQ6jK8/PLLWfWxcOFC7tNRRx3FHiMAJCNGjGCAA8kF3od34Z2wV3jsscfoS1/6kjVQtHvaUsBSwFLAUqCiFCgKIEBED3E67BFgSKeXagCEt99+m+0PcGPefffduQtQLey4447MzFFUGwTZR9z6IT3Yc889WUyPAukDxgJpgn4Dh+h+1qxZrH4w/favf/2Ljj322NSTAVUIJAswpjSpAqZNm0YHHnig9zuYP0ABaAoJAuwiADKkagLgBHQ45JBDUvfBVrQUsBSwFLAUsBRIS4GiAEJSo9UACGCWkA5ABC8Lbtz4/OKLLzITht5fLTNnzuSbu/QakL9B8oDvoErQXQQh2gfogCrBVAAQcMtPWyBxQHtRLo1QM+gumrJtABs8B1sQFACF559/nsGLSoe0fbH1LAUsBSwFLAUsBZIo0OEAQtKA7O+WApYClgKWApYClgLlU8AChPJpaFuwFLAUsBSwFLAU6HQUsACh002pHZClgKWApYClgKVA+RTwAAKiDJo8E4p5BWwQpAFgMc/ZupYClgKWApYClgKWArVFgcwzzzzroEuI9kfEf5ZcYOjX2Nil5Oftg5YClgKWApYClgKWArVBgcxzs+eUhwpqYxy2F5YClgKWApYClgKWAhWkQOarXznFAoQKEtQ2ZSlgKWApYClgKdAZKGABQmeYRTsGSwFLAUsBSwFLgQpTINO1a1crQagwUW1zlgKWApYClgKWAh2dAplcYxcfIDgOwvQFx5TJiM/4Hn/rvydRQD4v68nn1Xbj2kA9/n/xr1Mw9FE+n8lQJuv2V35XcHzTS9O75Zj4MeVZ0zjVOurvUXQxjV19nyR1qF18kYDbuG3Uceckip5JdFb7yHOsvDpq7gLzJeYluD4yRPo88BoKkjg47ZhXdQ7E+GH4ir+yPLfZpNXWsX53iPK5Zso6Oco4uY7V9wr0lueUiPLFnikVeHfqJmLXbOpWbMUOTgGNq2ijyVAuK47AQi2v5RLmIJNtaIwHCOKU9hmAzui1l+psTYYwRnhgediDkur3sf3OZgksPpcBc3DIyReCfEZlzh5AkNPpkFMohHltFOjRmaUHPFTmJtqWiZm8vptAgtuet7gkyJKASwE2ksGKdjWAYGjbCw0dAD2SyYqGHRdUuR0OkdnrVwy44P7EgYwIcOQz8ziwo4AczK0cuws4wD7EmnEom23gvBSdqjgONTdsppzTSLlCY6caWprBZLMuQADor9Eiz60a7Z7tVoUpEA8Eol/WkMtQHpfR2l3KJVEqCBDQBBiqqbhMghmuoUQKF3xe7V/QDTwwsvc+FxNcWhNkBN6rMHh5wQ4xchfvyPfpggCdd+Nz6CItuG9ycfvukSCC14ZwSQoBguxXlECG6ZKynzr/D81lGh4vqeHW1XNbJBOL4Z9WTVAO/4v29AyZUW1mcg2UYUAZVRwqtOax2NN0q83qYLT5TAtlKEu5BAlCZ7zIJgm32ozwRTSs4uMiHvMYhX52FNNGPddVhau1v/ZxkZHC9TSMobZnNovz05XWFgUQevboQSeccLwxXXFtD9n2rp4o8NDfH6albyyLBAk9u3ej4477PG233Xb1RBY7VksBSwFLgUQKzHrqaXphwQLKZnMUBgiqHYJ6+yeHvvOd79D555/PKZ9tsRSoVQpccskldN31N9DateuCdguOQ4VCnr7z7TN4HY8YMaJWh2D7ZSlgKWAp0C4U+NOf/kRXXnUVrVz5ZhqAkCFIDoYO3Ylefvll7vCmTZvCOvh2GYp9qaVAmAKvvPIK/eQnP6HnZj9PLa0Fz96lR/euNHjHQfTSSy/ZdWwXjqWApYClgIECS5cupRtvvJFunzbdABDwgObNMG7cWJoxYwbnWdi8eTPhAM7nocO1xVKg9ijw0EMP0aJFi3idLl6ylBoau5LjFGjcmIPo3nvvpd69e9OWLVsYKJhsVGpvRLZHlgKWApYC1aHArFmzaO7cubRs2bLiAELfvn1pyZIltH79+ur01L7FUqAECiQBhO7duxNQ8scff1xC6/YRSwFLAUuBzkuBMEDQzUQ1TwUpQejTpw8tXryYPvnkk85LHTuyDk+BNAABEoaNGzd2+LHaAVgKWApYClSSAiVLECxAqOQ02LbaigIWILQVZW27lgKWAp2dAskAARRQpAhxEoSHH36YHnnkkc5OMzu+GqRAly5d6Mgjj6Tx48cT/palFIDw4IMP0qOPPlqDo7RdshSwFLAUaBsKTJgwgQ499FDq16+f94KKAwQYfn3wwYeBEUQFvfEqxUQQ8aIIc2W1JTXOlRs0yWtQ1IuNhMUNKzX0QEYc0c0U6CKuVbV+wC/Ue5eogbiGgTjGCr3Unou/5TOikjZun4jKL1GhRUAXvV/qVPnBiMS3hvHHBh2q3ML13uwF0hKRpWTv2S9XWTfbDRhAN9xwXcjQsFSA8LcHH6QNn2yo3IBStORkHMJ/WQexWlM80ImqIJKisIeus4F3ojms96F09DV8++23hfZfOoCgeDIkSRCmTZtOy5cvd3mZn68hsO1NgIAP/3CYPjABxLjLJB0c6u9uyDMOjSpXrYz+6H6WoZ7V3/lvxwUhjhKW2RSO2TQGNZRhVB4LdRclhW7kDrkAIa5tN7qgj49cahtCWvIvodCKPt0DUQ/1nBt4zgjm4kCHfmxEhGJkIKD8pkSKdvBaZUhoMZdr4OAdssD1ds7sZ9ljobW11fu+VIBw330z6cM1a6p65hUyBSpk8tRgCrWciHir2tWKvyyXzZBIrVKDAKGT077ik1mHDeLkAkAoqPl+OhgdVq1cweenao+VDiBgoK6aoSiA4DEjTYagMBnv8Hdvh6G9KBP0SMYdQXR+Th4uKmNzn1cfC7AovNd0KEUxb5Xp6sDBBRjGfAXyuaiYsqbvJahJkwzKBBIMbfoAQTmIlTEJTKJJSVRw4kle9IM8LUhIWS+YSoKlBV0aITXIcvfwLxL8YEO2FhyOzdHRAQJQUGum1QKEWjtYLUCotRlJ358qzR3OJJxHyMFQ1dLPfd9HsfLyVF0qDyC4UoSiAYLbtSgJgoO4+kr+Iw9KMOP2rvvijwxR965dadPmLfKjceCegsHA+ANkjLvlx93u4yQKXsD2EIcL9lW/nStgyquovEfIQqIlA+JxZXSmxEqaFCUqm0ioHdmhkATBpCbxdALKeCOkBqHZ0yUI/u4GOm/q2Y3OPfd71LVrV37y6aefpqeeepq2NucZIDyfQoLQ6MZBGOvGQYCbo46aYYNw38yZtGbN2lQbq1KVnEyB8tTKCZt8ZYqm6Sn/HKhUdyvaDg5XSA+qfLymGgNAKNZftYueW6Xa76/l91WVNqrGNoIoWB3IHoy1klhStJfYhluhsLPIIZNdWn5225UrlpcpQchkaNzYMRwoyeTFACPFgIpBGaUJIAAcMGH1egpzHjVqN1q0aDEbng0ZMpg+feCB9OSsp+itt1Z7mQ6FCoII7bk4wktFHQsI1FnQmav+mwlMmFap6bavSw/UtqNUB6Zn1APUoD4wZ3UMp+dmOsWIco0AQaWPm01Tywet5oZOmcFK3wZBIOGLm5GcSQCEF15YQL179+EHf//739E11/yh0wAEKUHIFRqCAAGDrdJNKO3BVOl6taxisFkcKz3bHbC9hP0n8CPUZCkAQgWH77gAIdPuAAE6eSoeIIBcvZua6JBDDqF169fRkCE70Wmn/Tf98tJL6dlnnmVSqTpmeRZKBvbdc86h9z94n+6ecS9d87vf0T//+U/q1r073XPvDF/CoAIMiHoAORS7idgUxTyvBpG6rkqIm/gocGFSK5h0+HHShIS21eXoqQd04KK1HwAI3EeP6gJgxUkiWIog0ar+dlV6ECU1iJMmmACCmBsJEO666x7q1asXfzdt2u10++3T6gMgVPBQqcWmBECozRS5FiDU4oqprT4JA8Xqr98aAghsQURFqRgUJrv//vvTT3/6U3r1tVfpsssup42bN/u3fYNlvTRM/Nopp9BOQ4bQr379axo2fBi1trTQ6tVvcXKd5uZmWr0akgRRVAkC2xXE3eaVtwdMxlWmnighEKgxUOJUE2rFEBPWRckRIk3NviIyl6xJxaDRiZ+Nk0QwUfW81Kxs86Q3/pCi1A36Rk6rbpAGaxkGkLmMkCB0aoBADrVmWyhX0FQMtXUWtklvLEAIk1Xdem1CdNtoxSjQXuu3HQBCSODvct/SAcJOO+3EjAjM/uKLf8pW5oVCgS659DJ69tln6f01H9IbS5YyAvvaqV+jG669lt95+BFH0m677UZ/+uONdNFPfkLX/EF8jzLrySfZW+K/TzuNvRyy7m5iFAe7Bi0CpMAD7tiipAEm2wL5nPGWL3ujtGuSGpiWYZxKQ++r6UYfBX7ku0xSBAkQTEBFqR9Sy+h08foTBAXwtxAyhRTSgxQic6liwHzmMkRNPbt3coBA1JptFjYIBUhqKnZ+1XxD7XXAJhKmgvrixHdpFSxAKJZi7Ve/qPWb4uxLO5J2AAgxB3yhUJwEwR0l7BW+f9736aQvnkSXXHoJ3XnX3XwrFILqDF39+9/TjjsO4k+PPfY4XX/DDZ670ylf/SpLEObMnUsnnngCXXjhj2nzFmGk6PFCxdARiXjQJrMo6eYYpefXZyFOnA/WF5Cou2qMSJWBS8ckMIJqCSqBgAokSh2hj8UEIBTgEedO5qkqZN+SAAILGYRUwWG4llQkgHD/jdgwoo91pGIgCxCqrMJNWqj+nm8HsGYBQvL01EINLI32cnFsJ4AQQfY0AGH6dFq+zI2D4DYjj/kzzzyT7RAkQBAsJbzz1NgHEiBAxdB/wADauGkjbdm0mc4552xau3Yt3XnnXUGwoNxf+b36iePe8PmtEb+FxO4m4KDbKAQQiyKW198TBSgU5h0ADFEqBfV9pjYDwEMauRlOOZcGQeyj1NNVDGyDIH8XDB5z6D+vXrmiDHaKsUMQNiqxKoYW14vhueQ4CI1dRDbHsQeLbI615MWAKWMVg9NAGQy6jkpRN7Bq0sVKEKpJ7Q75LnjgoFTbQJGP+JoxUnQZTqIXgwEgyFnHXrvqyivpjDNOp02bNtNee+9Naz5aK4wKA0V+duiUU75KQwYPoSt+8xuuIX+Zee8MWrXqTZryve+ZF5WicjBVkOcvvB/49ivBgukKUxZAKMLdMZZvGtQjur1ECCi40MxkS+FNisF1UogQRA2T9CUrjRRdgJDJMtMNz2EpFr3+3EuhjQUIHfLcLKrTAAhV9yFP08N2BAid3XMlDfk7Qh2sXRyTNQMQSlRhlOfmKLgFjRtTmpuj4O7C0lP+HcQEMpKieI8sB4weTUOHDqV7ZswIWtfHrBxhlO9GUZRAIa6+dLd0gyrhPsxukypoiLNfiGKoOhNW+2Cyd4h6R5zqwyQFUd8bMBOIliDoc+F9NgGEgBRBWhzo6CYO7aTc9gq2go9x7ygjRStBSEnQ2q1WqwChvWIguMdtXdmh1O7qjO9ZzQGEEglZAYBANG7MwSXFQfB4lqnzzHDM6gaAhS5du9LWLVtjAYIEBcKTQTB4DqcMBpfCDsAL2OQyYzXsRKGQj42N70kgdI+AWFChMWtPlK9JHFxgFSBbnE1F3O1fN6B0gVQqlYoObrxYCALPgYELWquOHWWCBAsQStzqHe+x2gUI0C93PHraHleHAjj74dTVXmHCa0vFQCkAAlQMy1cEmHK8Zbsyke7NVGWdbBfvCR3Melkh3BaggP+S4ZNl+GYJEnQGrq0hZvQeWGHOzO3C4yIqxJvgx4o4Pso2Iemmr7cjP6vAQRX7SyCQtt2AxZPCxYtRqci54BMzyPx9MGaIfFWUOj3YrugeItllo90crQShOqdhG76lVgFCqiGXKNJN1batVNMUkAChvdRjHRYglJx0BUxdzZ8QsMZXpQyKS12gTlB37jEuT4QRpxd3XcugnnCBAvPECAmEl1wqCiCYmL7sR5Rdg9pPvd2o30xtSumACjR0KYALrMStP4VXhiSdBxAE8xavUNRHZW1pHSCI9usLIOQog4yOdVQ6NECoo3myQw1SAAaKODotQHDpUoyKQfKTLo2NgWwL8YtM+n8r184YAOC15YnWJZw3ieolP4uzrtd7lwAojIMJ+AS4NfR29Gu1fg1RPyf9xiw6gqx6Ox6aUOonXYG08fCrghk0TAGXSjlMYOiTz+e9R6WrY2wkxU4nQagvgIADtl0S3ZSyQE3PJG2fSr3HtlNzFGhPD4bhhTwt21Wc++0fajktQJh+By1fscKfSMehgdtvR6NGjaKePXvW3ATbDtUGBTZv3syBr9597/1AnIu6UzFkWihHFiDUxqpM2QsLEFISqvNV4yRe7eTBcHJzMz2+e44+hBSj3XMxlAoQiGjP3UfRLbfcwuGRS1Y9dL61ZUekUOC1116jyy67jJ548knavGWrAjCx/+rIBsECBLsvLAU6BAVwdwdAaC/1Aoh04tAtNLOxS2qA4PToR/ltd/Lpm2+l3JoVlNm6kUr3YlAQcqKKQZcgENEeo3ajP//5z6ynVsXHHWIV2E5WhQKznpxFd/zlDlqydGkQILgRMevGBsEChKqsN/sSS4FyKVALqrGBTdvR5gln01t9RSTipNK4fA51feb/Bau5KvzSAYLSXDkAAc2wR4AtlgIaBZ584kn6y51/iQAIwo2yHuIg5DOtlEXosDoyUmxvS3C7GS0FSqGAcHrLEGJldIZiAUJnmMVOOoYgQGgOBMtiD00LEDrpzItDFqrc9hTVdlri2oG1GQXa00CxLQZlAUJbUNW2WREK+ADhjXAyLkfo+iLTPXciLwYrQajIcrKNdEQKdDBjTwAE2EdFxeHraFNgAUJHm7E66m+8iqFOjBRhEJ3Jc2SJbCFXN7Pf3r7kdUNoO9CKUkAkGIuOk1PRl1WhsSIBgjlMbjobhJXucIRuRhop4m9rg1CFme6Ar0hSMVRbgjBz5v20Zu3aqlOy4AKEnFM/AMGqGKq+zGrvhR1MegACMkAoyIB9tUfSYnu0YvkyWrRoEW3cuNF7dNasWTR37lxatmwZZbINXQzRhYKvSQcQEAfBz8pnAUKxU1V/9eMBAiQIUDF0p7vuuod69erFBJo27Xa6/fZptLUNVAztCxAcTvlcL8UChHqZ6ZhxdjCAIKVedQYQGhPNMS1AsJu5LShQayoGCxDaYpbNbQIgwCK8s1iDV49ynehNHRAg4A7cmdZsCglCWwAEqBh25TgIVsXQiTZ0hYeS5OZYXyqG+pMgQN6IMNu2WAp0BApwimdWmXeeNVsmQBA2CeklCHKaMyUDhA0bNoRSPOdyOerWrVtgDa1fv54aGhpsKOeOsLMi+pgMEMioYrjt9mnU3NlUDJkC5QrIX1IfhSUIFiDUx2R3klEyQGinEMttRcIyAYLoVjqAACNFH1mVaoOA8LvvvfcerVu3zmP+W7dupeOOO4778u677/K/L7/8MjU1NdGwYcMCtOvbt28ITLQVcW275VEgWcVgtkG47fbbXYAwlJ5/7lk2smltbfU689BDD/F3r7zyCi1espQau3QlxynQ2IMPonvvvZe6d+8eMsx58MEHqV1VDBYglLeY7NOWAm1IAWkz05nsD0CuKgIEJVlTGV4Mjz76KLW0tFDv3r3p4IMP5im/6aab6Mwzz+S/H3jgAQJgWLJkCe2yyy6BPA+YxC996UttuExs06BAUm4NTpudoiQbKWaNcRBuu80FCMM6C0AokMMAob6MFK0EIcUmsVVqggKd1ai2nQBCaSoGSA7gYrHTTjvR22+/Tdtssw2rEVasWEFf+9rXvIUCcIDfd9xxR/rwww89hrXffvtZ6UEbb6c1a9bQSy+9xCDOVDBfn/rUp2jAgAGJPQkHSvLdbCHKi7JBmHrbbdTcUqBhFiAk0rhWK1gVQ63OjO2XiQKdNW5HiQAhGA8hnYqhfDfHqVOnEhL0HHXUUQS7A4iIBw4cyP/169eP523Tpk00c+ZMOuWUU+iTTz5haQLUErjVjhs3jgGFLW1HAdAbUp4XXnjB+JK9996b50+3GTFVTlYxmCUInQ0gQHpQqDMJQmcLWdt2O862XAsU6KzrtUSAEJyS9AABzwlwUawNAhjOPvvsQ08//TStWrWKcFNF8IbGxkb2gT/ssMNo1KhR9OSTT9Ly5ctZogBJwvvvv08ff/wx7bzzztzpXXfd1YKEKuwoqHowTzAWRenTpw8NGTKETjjhhNRvjwMIMGdBLgZTqOWpU2+j5tbOI0EAQMhn8tRQR0aKnfXATb34bcUORQERQbHzhFiWxC8RIJQqQSgdIMgOQ8UA24KlS5eysWL//v3ZGHH//ffnKm+++Sa9+OKLNHbsWFYzrF69mrZs2eIBBDApMCtb2pYCiI65cOFCVglBenPIIYewagESoLQlFiAAamaiAMJUFyAM6xRGihYgpF0xtp6lQPtQAAChMyYWSwEQoiIp+iChGhIEOe0QX3/wwQf0uc99ji3NoV4Ao4CkADYG+Ptvf/sbHXvssfw31BBwjZQGje2zfOrzrfl8nkNyAix8+tOfZrVQMSUMEPxInAw1M2Y3x1unTqUWliB0JoDQSg2FLsWQr0PXtRKEDj19ddV5nEqwh6pTgKAGSlKiLktLdOj2x46hGTNm8M188eLFrPuX5eGHH6Zp06fT8hUyF4M45EsNlIT29tprLxo8eDDNmTOH/4XBG6QFgwYNYvWBBAhQQcyfP5/dIUePHl1Xi7YzDNYMEFxXWVYxRAMExEEYPnx4J5IgWIDQGda0HUPnowBYIS6jnSlAkpylZAlCNhcdFsoFCYkAYRoAgnRzdAHC7ruVFEnxnXfeYe+Frl27stQA9gc9evQIrDrovuHpAIM52CMAOMAt0paORYFYgJAgQdjanKcRIzoLQHAon2mxEoSOtXxtb+uEAp1Z2pUOICjSgsCclwQQRAt77D6qJIBQJ2vODpOIzDYIvmorTsWwdWsrjRg5onNIEMihfLaFGpxG5H6ui7XRmQ/dupjAOhpkZ0vxrE5deQDBbWncuLHxKgZVggAH9kzGAoQ62kClDrUcgLBlawuNHDnSAoRSid/OzwEgIGmuTcXQzhNhX59IgfoGCLkGX8UQsVsTAQJsEJarkRQd2mP33a0EIXHp1XeFugcIbjY7MMp6lCBYgND59j/i1eywww6BgcF+DKHzO2LxQizDPK8TotniJAiYQQMRigcIVsXQETdJBpagAAAgAElEQVRDtfucBBBwy+zVsxvdddc9bIuCMm3a7QQvhi1bWmjkzh1cgmABQsUlCPCkSRvqu5T1DtuoXM7sytvami+lycAzO48cGRmFdPPmzWUzqZNPPomOj4hVsnzZcnYtr2RB3hN4pU2aPLnsvleyX2nb6qwRFOX40wEE1I6yQ0CypiQVAyQIy5b7bVgbhLTrr67rlQMQNm9upp132bmyKob776e1az9qhzlxqLUObRD2H70/IfImClxlP/roI2pubi6L/jsM3IG69+hubOPvf3+4rLa7dulCRxx5BOEdprJs+bKy2k96GMnE1q5dG6rmanWTHm+X33faaQhNmjiJ/nLnX2j+fHP01XbpWMqXwr0RVkGd0cURJFi+7I1Q4jrEtoH7+rJlyyiThYpBXWGscFAcGzKZdG6OARWDlSCkXH91XS0pUFKcBGHT5mbapdMABKLWbDPlnAbKOOkDTXXkxYO5Pf8H51M+X6BH//1vtkfYvHkLIbZGW5U33nijrZq27UZQAABh4H8A1f/+7H/o88eKjLwdqQAggB0iimKHLTEIsniAIKkgCZIhGjc2wUgxZINgAUKHXUxV7Hg5EoRNm7dyxM2KpntuNwmCAAhZp4Gy1QAIrmqjilMdehUAwg9++APq3q0b/fbKqzisui2djwIACE1NvWnIkMEcr2bGjHs7zCBlgCSwwg4NEGIonh4goBE1Ta+CmFKpGCBBUJCKdXPsMPug3TpangRhK+08cmea8/xzLCJrbW31xvHQQw/xd4iyuXjJUmrs0pUcp0BjDz6I7r33XoJeFL+rTOnBBx+kmRYgVG0tACBMmTKF1q9fRy+99DLNmz+/wu8WQd9ChmUIelPpN+lS15j2PfsIRAGrgyIBAsKyf/9736P/u/VWViV1hNKZIyhK+qcDCLyT3DxLeFKTpiQCBLg5Ll8u3umCDAsQOsIWaN8+litBgJvj3OdnW4BQ7DSmlCC0pW4bAGHS5En0yCP/opNPOokuufTSYkcRW98pCFWFDhDayoAxjYW7+u5Mtriw5BUlThUbUwHCsZ//PL3/wQccIbcjFLAyrNPOan+AOUgBEBBJEXoWEb/AK6VKEFyQMGq3Xek3v/4NW8W2pV6xIyw020czBRC2+x///Ae9sWwZbd6y1a3kB0qKt0HYSiNHjKS5czoLQGhh+4OcUzuMoxoA4Zpr/kCXXXop3XPPPTQ/IoV4KfunmgAhDTgQx6J/vtYjQNh+++3pm9/4Bv3mt78tZUqr/gyHWCaRxbHDloTLQDJAkKGWI8ABCJNKgiBDLbvEHDhwe87uh7TNsFC2xVJAp0C+NU9r1q6hjz5aR5u3SoDg10oCCCOGD6d5c+d0EglC7QGEgFSxwstXShAAEOA3/8tf/oImT55CcOUruzgOFVwJQltJDErtowQT2VxDqU10qOdUCQI6/s1vfoPefHM1PfbYYzU/DtgnAiJYgODe+nnG5LWhGAmCHkmRiJqahN+6LZYCYQoE04k3t7TSVoN7GyyIe/Uwx0GAkSKSNc2vJECYeT+tMbiRVWMG4eaYxf8VakeC0JbjxtxOnjSZrr7mGn7NaaedRm+//Rb985+PVOC1DjmFQpvEQwheJku7WTJoqRsbhJ2od1MTvbJwIc8rxv7w3x+io4/5XAXmuW2b4GifDvxrOm8pIg6CQEu+qsHP7JhKgiBtECQtVYmE/E4X1aBOlPhG/S3QlpJxUgc26jwGnnfHZuqHHv9BPuf969pkmOJEqHUFuvJtOVi044oU1THq7atj0PuXVDeOdoE1LSPyuEs9am4iaW4AjqE2VDsWCQCU8UvpKh+MQYAQtf0SAcKw4TR/XgUlCO0IEApZoTOvV4AA8fPXTz2Vrr/hhvKlCDjUHQsQaoGtIameChDQp8MmTKC+/foS4jrUcuEQy4V6Bwgcalke7maGXRRAcMUywYlXFCGK+2TAntjE7Ny2Mpmsa2zEZsnBpmMCPAUqRqlQ+HsNdASARgS48NrTUmR74zPYc4TAiGxbjkkDFLJvGnDLUJb9xj1aRLUbiG8hTE2E2Dje5sSF+rKy8h7FgNUEEEy2LBI4qb95z8YDhSSAMGzYMHph3tzKqRgsQKjaea1LEBpyOTrrrLPo0ccepddee728frgAobxG2u7pepYggKrIzvuNr3+d/nLnnbR+/fq2I3SZLQMgdGYDRZAnWYKQ040Uw8yyKICg3+p1RmJioHz5NghyFLCBTcX6O10FEmM7IRidgcEbb8oGkGACO3r/09ziVVAUJa+KAhwqeNEZu9qXOPrpEgzJtE1SDhVESCU001zzbokCGSpYMc0NvjNJMAybOREgDB1GL8zvPAAB05GrUxUDpn/3UaPoW9/+Fv3oRxeUZ7fkFGo6rG+9AwTM9X/911do4cJX2RW5Fos4poQEoTOXZIBQCSNFL1CSdpsOUDZGzB1nJeoyk5IAgneJ127zUaL0KOmEvkJiPD5CgERn8JFgKELiYGT8MeMJSD8MEokkCYyqWvHaUqQsod9lXxQplNTa6QBEAgP+N0p6oHgxJNggDBs6lF6YP6/TSBDqCSDgdjZJsUGQS+2SX/6SPVtmzXqq9HO55gFCNjVILp0ItfGkScWAnm233XYcF+HHF11UGx3VetEpIiimoGwiQMi4AEG19tXddg5JysVgMFIUt3ez26TPdyJ+D4nMM4zmRL8igEYc4wtIAkzPx6kYlD7KjnsAQbeHUEXwruQi7vYu20uSshjbUKQuUWqWQLvauPX5kcBFBU+mOYz8PUJNpatwGBtk/VgbBvJKsiRLECxASHEG1FwVTDnm1gQQevfuTb++4lf0/fPOL90WwQKEmpnzKICADn71q1+ljRs20AN/+1vN9Fd2BAAWx26H9mBIQdXUAEEydHF/CzK+NABhmW6kqHTOZ+5aj3VmE/g5eMPMZqUdQjD4iQdsXCbqafNNTDPuO/1mb5IyJDFq9Vasqgy4bQmY4qQsCgGMYn0XdKhARTLxEEDy0If4wwRqTMAkMG7D++IAhKlfAVDl0iEro8iVaYPQiSQITrZABXLqQsUQBxCwXE499VR6663V9PjjT6Q44gxVLEAojW5t8FQcQMDrfv3rK+h///fntGnTpjZ4e+lNsoFiJ03xrFIlESBkGxoTlSzjxhxMM2bMoD59+hCC23zyySfeOx5++GGaNv0OWi7jIJQyJylClbKhomqYp7ifSAFBnKZCACD3f0KMPkaC4PFZzYBTkaxHDtkgCdFtLQIX6Cjmq9sa6OPQ7RfibBV0g1RVuhKy7zB4cESpZ1QiqGBEBrZV27YAIbRkABDyVKCGQuf3j08CCCNGjKDjjzuWrr3uOk7mVGyBBwP2WVvGQEgbHMnU9wyv/xjRWbEDruH6SQABqgbUQfbAWik44uDiCOlBIk+plU6X2I9EgJBhLwYRMcqVHYRedcjYMQkAYTot07I5cpueWqDE3iuPCT6mbCo3+JLnH1HBd5Xf25gWDFKTyKMiBDB8DYvnkirpojN3lV5xhpUes1b6HBV9KylEb9LvIbLE2yFUTMXQ2IXVU2PHJORiqJQXQ5LdiGF5OJkC5TN5aig0tunyq4XGkwACpIUX/fjHNHXqVFr15ptFd9kChKJJ1mYPJAEEzPUh48bRnLlzS1cpVbj34FsIktTZPRhAttQAwUe0YYFCqQAhrb97mvkN3QaU6IyqWiES2QcYcwRjiuRXMfEaojofIz1XgVPsPSLOtiDJ2NAIEAQUDMBiACstDGzUkMq5NeltSsCHNuXc6u0DIDT17E533XUP9eolAm9Nm3Y73Tp1Km3ctIWGDRtKC+bPjzVSXPT66x6uHD/hsNhkTffdN5Mjf6YpYg7FTVUvque01BShE6G8AGyOkUXOdXIyDuUzrRYguMTcdddd6cILfkRnnX0OtbS0pJkSr44Ms1zUQ1WsbCUIQWIj4u6WLVtoyZIlVZyF6FdBeoCj1wKEZZSREoS2AAjsJsL53RO1GIkLQ0o4TP1M03q8tjvx9UVXiHufqp2oBUFjEv3iaWf6Nfid/KR+y/PJsUyFASpKWwEEAA20nQQQkOnxww8/jJ1rOV/ZXM5d24bqyqQKwY4LJjSxsgBJAAgZBgiFrFQx1MKqKHrJp36AZz2TocmT/UiKpocvvvin9Oyzz9K//vXv1G3zOnLDLBf1UBUrW4AQJDbWwtlnnUU33HhjFWchBiDgXKoDA0VQoN0lCE6+hfOAd2nsUhOTbztRGxRYt36d8GZgtK4DBAElKiVBSAsQ7rvvvgiAIHUngDUCThUDEPB+kz+1ChQp65DTQNSQb6yOC1zR6qDKrhucwZMmTybkYogrv7vqKrroJz8pQvwswizXcqkvgDCEmpp6E9I9x5VcLkcnnHA8QYrX3qUeQixLGicma/IlCHydCd72XbF8qSoGzoSVb6EDRh9AO+64Y3vPu31/DVHg4X88TM2trYoEwTcIEtIigR/iVQzDaEFCHASoGMoHCIJwUjXEN2B41UQxomIkCHLHZR2CfWJDHrkY0koQqi0Xq8wCEjreDE2cNImucXMxRLX89a9/nd544w2WJKQutW5ZpnsPRQ6sY84vhtOlSyPBZXXw4CGsHly0aFHi9I0dM4aeePJJWrduXWLdtqqAtZnLZqmVJd+ll7Y0kC29V+Enly9bxnOzceNG78dZs2ax0eiyZcsow14MrkeAHguBD0QiOiTRiyFopCj1y3hjobWFxo8fTwiLa4ulgKTAXXfdRVubW9ykNUElh7inV0aC8DoDBMGFk1QM9828j9asiVMxaAd2km5GggoetKmyYhoMnWfOoVxrWnBgAPQdZHkJgJCjSZMn0tVXXx3b61GjRtFxxx5Hv70yXYpgQdFiaFh9ojmULOHov21/2rZ//4qoZ00jHL3/aPriSSelHjxUxW+99TZt3pzOHbGhoZGBQa9ePamxsZHWrUsOqfzsc88wY3rttddS96u8imEAls1kCYaTrXlcXsottb0OMbqVK1bGAwRIEPybESfAFkWJFpjs5mj2YuBm8q0WIJS7zjrh8wAIzc0t5HDypjDzxJrERatsI8VFr1M2J4KejD90QryRYiJAaMOJkAAhL/Sf6UrHvGGKuc3S5MmTEgEC6HD55ZfTHXfeQe++/W4KsgAiZKh///6cRrqY8sEHH6SujkyiP/rRj1LXR0WEFS6kVH9A5I7/iim/+/3vaNGiMvNYxLwQxqLFGiqzF0Pv3qlCKuMS2b17D3rttVeLGXaJdXHuhIEaAAJsgvJlShBK7FTVH1u5YlUKgODe2NA7U0TFUlUMFiBUfb47zAtZgsDW6XEAAV4M5nTPqb0YLECouTVRLEAYPmw4HXXFZ+iT+/z4K1GDkuop3ALxXzHlzjvvDFUvliHGva+VVWqQjaVBgGYGVsx4aqFu7QIEM7jOwaMI0KHGDV0rNbepAIL+MtVoDGQcV2IcBAsQKjWNna8dliAwQJBmf8ExSj11r0iAsJWGDdsp2c3RAoSaWzzFAgQMID8pT7lrk2/UJhVDOfrgSgIEMRFpAULHlA7pi612AYJ5WzTkGljKU4ALcx2U0gCCECWwOAmbq5ZVDOeddx69+uqrhIiObVGOP/54ampqounTp1e8eSlGbG5u5rZ//vOf03XXXUfvv/9+ye865ZRT2G/8nnvuYRFl9+7d6YorruD24Gt8yy23sEVx5Q++4rrsAQQvlbfmGmlVDMURtAPVLgUgtE5spYbrkqNM1r4NQlqA0IEmNKarHQ4gNDRSPt/a7udjtWa/JIAgOyeRdy0DhB/84AcMEB566KE2oemJJ57IOrTbbrut4u3vt99+bLwJ9zqUSy+9lHWy5QAExLEHQAAD3nnnnemYY46h5557jtsHYIDR1/3339+ulsLoizRSZG8AtjrXAAJ7CsQFSupkEgTckhscyhVlg1DxJVmVBi1ASKNiqMpUtPlLOhJAEB4MDQIgpFIDtTn52vwFNQUQTjjhBDr66KPpmWeeoUceeYRw2/3Tn/7Et9wzzzyTfvvb35LQ0xF94QtfoIaGBr4JDxw4kC6++OIAsSZNmkTf/va3acyYMfzM3//+d/ZhP/TQQ5nhor3169fTTTfdRG+//TZ/fuyxxziXBMqECRPo4IMP9m7XuLmjQLyEPr388sv0pS99ifuLhQNreEgpvvOd79C5557LddE/tIt3H3jggZyjYuvWrXTyySfz82hHGiXJ9iVzfOKJJ5h577PPPl67iBeBW/4555zD7V900UWee+i//vUvD0igP9dee22AHr/85S/piCOO4P/AcOfPn89j79atG23YsIHr9ujRg6ZMmcJShPfee6/NF1/cC3wvhmhL3/g4CB0FIKQXFVuAEL1irAShEts1/VqsxNvQRkcCCLBZgfEsAEK9lJoCCF/+8pcJYTUXLFjAt9wuXbowQ8UNF1HVwOQkQPjKV77C7jHwyQQTBaNTC4ADwMFJJ53EwABMettttyXc+B999FFuG4wS4vsHHniAGeM///lPz4XmqKOOokMOOYSuv/56Gj16tBfKF+/AM3gvFvexxx7LbYGhIwwv2vnWt77lAQR8/utf/8p9gdU0AAj6DWCAseE5tD9gwACv+xg7LJqxIPHM0qVLaezYsQxa4OYDacUBBxxAQ4YM8YxGQRcAnVWrVnF7AFVq+cc//kEIT3vcccfxu0GDp556iqsgyRbawzNdu3Yl1JWgob02QixAcONvVCRQUrvbIKQ3Nis0OJStWQlCIKxTWctG2JdkaVJKLwa8zAKEskjuSugwh9XVrXckgADpAUq+YAGCFwchGCjJX4QSa1bSBgEAAUxq5cqVzHhxkwWDhXQgCiCAqe+xxx601157cec+/vhjT1qAz6qKAbdntIubO+J6g1HvsssurHOPAggIr4vfII1AwXghmn/33XdZIqCqGABU4gACVBEAI2Diffv25XeDqeMZfCcL1AoADn/T8qBLFQMkH3gGRaZBBZBAAJGbb76Z24XEQoIZgKPVq1fzZ1XFgM9QK3zzm99keqAtgBHQsL1L0IsBvVHEri5AQMrVXuXmYuhAAMFpcChTyLThGV7ODbJyAIFdyTKZNgcI5RgnptkfpdnxtJcNQuXmLw1tZJ2OBBAaG7owOEjriloMHWq1bnkSBMExK2akKAHCiy++yOL9J598khnhhRdeSF/84hdpzpw53uQcdthhzMimTZvGPs2SgYPJPf/8855eXQcIhx9+eEgdgYOiGIAwePBglhbgXcUABPQX+n21IIIk3v3RRx8FvgdAgLQBagUJHnSAAJUApBCyLF++nOCKhfFccMEF/DUkC6DH7Nmzua4KEABYIIUAmIDaBVIDjO2dd95hKUl7FjVQksADul4244ZaLs/NUQRKEoGXJoxPStZ0H61ZawiUVFZY4vQSBAAEKmQok3jJK4fRlzrrlWMwAAg4V9LGQeB1XoKRogUI6lxXbv6KWUEdBSBgrTTkGqk1X3ysh2LoUWt1ywIIjA8oQ+PGHlxSume+FyqBkiRAQBpXlN13352Zp9S5I6yqDA4ycuRIDuAAuwEY1skCvT8Awx133MFMBaoCROyCyB6L0QQQ8Cy+h/QCOn4UtIlc5NDT4zfc9AUeyrCqAgwcenpIDSBRWLFiBX9G3bfeeovrQkWAz5CEQMVgAgiQJKAOpAJqQfhYjB/tSy+Dr33ta6wugXoAz6B9NZPd2rVr+d1Q08iCOqAH7CMgYfj0pz/NIACSAqhlzj77bLr99tu5OlQlaPeqq66qIRsE6atuAghJgZKSQy0DIMDYEcfj+PEJgZKQiyE2kmIbb29IOAEOEgFCZfqROuKv2BkVi+pXzwAhTRTFysyu3kpbAITkNdFRAALWZC7XQC2t7Xtxapu5j241NUCIWz6VCpQEgz8wLXnLHjFiBAEU4Oa8zTbbsH5cFjDczZs3MyODwaIsuInD5VBl6DD2QwEDPeigg4zx3cH4zzjjDMI7JRAAs4UNAsoll1zC/wJ0QGohw33iOfRl7733pj/+8Y+BurKdG2+8kRk94lmDuYe25n/QqWxf/gbVCaJ1Aaj8+c9/5q+hRgBIuPLKK4UIdtIkNtCUBWoCSFlQRxZIDUAPAALZH4S2Hjp0KL3wwgtcVxWZoV0AhKSshW29UD0vBg7nHRW0JEvlxkGQEgSEUkwMtXyfG2rZxSoBwYHSRT+9uM8zve8MhNPbkSmgQ99LgJBXggUbMo17Zp3Kb9w994fiGH9bz3S4/WoBhOqPLPmNFiBE06i6kRSD/chmc2wXAwlCPZWiAEKU802lAEIU4fv160ff+MY3aNCgQV4V3Igff/zxepqruhpr0EjRDBAgHYmOpAgvhqGJyZoYIDDHTAkQkO7Z7Y7qfMm8V/teILJAVHIRoVzWVYGPurnc/vDzyvdOo5AesIoh8HLlxV7b7nKJdgKp2fVkAUJ7TI2MWFpdF8uOIkGoRwNFrMLUAMG0ZOWxnRYgmI75tLkYoFpQdYYczSpl3PL22G72neVRQLdBAEMM8FBOqZyhXj1MNgi30abNW1lKsmD+XFZFSe8X9AoxMfAd1E4SILANwoRkGwRIVkI8V+PPClbwiBAlbE0SwqrvQjbHDACGqmKoGQCQNJL064EBAhFNnjI5VS4G1C3FBiF9j6pXs/0kCOltYSpJjQ4DEHIN5Dj1x3PKAwhuNMW0AMG0sNIChEouSttW7VNAAIRWtg/wbtIqD4IrHLwYenSlu+66x3NDnTbtdrp16m20cctWGr7TUHohFUAQ4CMNQFjz4YeBy7sOBgJddMmsh3mSdUxqO1+6EJYAOIgkrAOEmpnKyt1A2xYgFJd/odrkbT+AUDmAVwzNOgJAgIUS7A/qTb1QvgTBdTezuRiK2RK2bhoKiFDLrSLdMycRDbNTqAZ6sgTh7gBAmHobJAjNNGzoUJo/b06CBGERIVpjhm0Qxsdnc4SRIlQMSinpWNVu/arNQBxtHJe3JXsxpKFwpeuURAljJyxAqPTcpGnPShCiqMQRFAEQWuvL/qBsgMD5dh2iQyrkxZBmGds69UEBBgitrRy5LBTV1OWo8QBhqwsQElQMixZTFmlzARAOPSRFuuc1CRPQdjrc2gYIlVuX1QIIlXRzLC3mQZhmVoIQvY7ay0hRpHiurwiKchbKVjGgoXJzMSCh0rhx4yp3wtiWOjwF4FHyycaNLkBwma5qfu/AjTROglB5gDBz5kxas3ZtiLawXxCYpe3AAbeOSx6kKfkOP72xA/AAwuTJdPU1V6cabH5iM+Wu65JYN8Ppw0WpPYDQXkGSKqceSpwArQKrGJp60ysLX0l8VACE7p4HWeIDFaqAFM/YePUUQVGSbsXylSyBhQeeLIginBhJ0dtgDtI9J8VBuIOWL19hTHABGwSENIZBmS2WApICM2bMYBUDSxAiDPGqLUEQAEFKENoWDJhWggUI0fujFIAQ1VqxwKFS0oP0qZ4rfU5YgBBHUQAEzHG9pHhWaVE0QBBGVEK1IEtagID6wSxY0gdMuXypzECPUBeOleP3w30OuurAhk20CDNc/GAqbjz/dTt6k0O8dz9R6Kw/JygRyflK3P/igq3q6ss0cU+jVjZZ2undMJEkxRjFQR09hkoABKBjqBhgoTz+0HgbhJkzEUkxScWQYmAlVrEAoVyAgNOhzD1R4tyleaze1AugSUeQICCCYr6Q5zOi3koKgNAo46swbVicKkW9Lo9LVjFICYJ0FRcMk5m5R3GIacXnyEAuEQDBe0b5Q0bmDVmF8yD0hsRn9lFXzg/xWT9Q5LNpvy9iScnOhvon2vDAmd6k3unIV7K1n+JDbyKoBC/aRKh9Mr1Pp5NOzDRkiCJtxLOVAQivs7skujv+0PhIiu0NEDimAgQqnV3FAJGu43D+lcqqGCxASLMNzXVUI8aoW0HxrXcEgNDYgBDLrYZw78WPt6M9kQgQsrlGPrYl7/X5hM/Qk40UBUDwuZzPo9WYMF5QGY8bKuR0L/UepJAPyu89fg2jNhlJRj4fz8x9HXKI85Y3n0ofkxryb8smyUKCONsjopTsmOor4oBIQCEAhPe0O9nercsUtc99dwA/6PMX1/24C51KCoMQJhogTOUom1BbzZ/3QqwXw6IikjVZgJC0iivzO6LWQQo4xQKEyhC0hFYYSgVAv39+REU2jX+NIm1V7igACE29mzgmSVIZPmw42yC8+tqrSVUr9jt7MGQbOMVzUPpdsVfUdEPJAKGhkSX23k1ck6rjYxqAsGz5Ck0yEFwwPpVM4njxKzrielYKrOEtYFcCwLdsqU+Lo3tx4n35niRdY1DEr75fubmLkZg7xxb7ADdu/UDVBKbvYSGX4zJwCksIPOGPIfmRS2WDWD9K0qAPI0kEkPS7iTYSnohnM1D/uOMCQEDCKj0OwtTbbnUBwrCUACHLa6sjSBAKWaJsHUgQLEBoX74hDEUFSPB3oH8OFGunETUaJIsDQHh14cLYAeO4AuAHQEBwM6wPVskYz7nK0Q72B7CDqscYCKBi8QDBPcOhd2BM6TiUJlASMg2KElZsS2l0WCqt69OjwEMKxpNGn25YV8GNIIEFBq+JLiLUAi5XM+AfA8NX0Y/ghsEe8abwi6pPNYGBMMP3n3aw8SP7bLrWJ0gxAvNqkthETYA/x+Iv9RDywYBpy+MQqwxA6Dgqhk4BEKLwufu9lSBUjsGV2pIECP69Q+zOgA1HBcw5ABCQVXZhAkDAu6UXw6uvhiUIsA+QF7hK3vRhf4B269GDIR1AyCHHrCxmJjFu7NjEbI4CIKgrKlpSoFoegkEn3dzjNkFTUxN98sknmrTB7weSQyFksym9MVItI7HRnDlz6cMPP/Bv9lEGDgGRuDs+nS8qTF8dl5DQiJtsNL11+qkGBdFzBNSN8eXzrpGN16fwfIbqRrruib4gGyWyRPpgJDwb4lDxJQCCTDqok5+TgIh3ZHEOBQsQSmUBNfhcACAUaMrkKdYGoX9pyBEAACAASURBVJ2mCSAtZPDt9cU/h9Ik/tKlDeoZJyMpFgMQZKI8lTR+m45rYua6jJYpYWhoaKRCPl+XHgwpAULOdNUVxoruDKUDCK4NgmQlToEPeL8VlS061JDNUIHf7N4rY27ogrmq0oYsHX7YeHrs8Sfoc587hvbZex/61RW/Dov2M0THH3c8bb/99nT/X/9KPbp3p5UrV9L48YfSVVdeyfH7n376GXr/g/fpCn7esxTUeLhr3RiyckQ1M57lTaPnF2Adf5w0RP0t7hoWPFX23XcfOuH44+kXvxQZKQ8YPZqWLF3KKaYvvfQS+sqXv0zfnTiJHnnkX7T//vvR8ccdRz//xS+URqLFL1f86nK67bbb6ZWFrwZjAbCESbcFqexpZyUIlaVnrbQmJAgVAgiB7aQaKQavv0mMrpxLSjq6lhgDIYXwNN37g7Wk77/8Vh1/JWnBNghNTUYJgg4s9DgIadUcUEUUmJmkvXy4R/1/suxCggD1QiXHXMp8tNczySoGT4KgE9e/vaYJtewZKfJIRVsCIISdCnA48OR7+i/PQtG9xUs9e9jtAM8B9eVyWbrwwgvo8st/RStWLKfddtuNNm7cRHk3wVOXxkYaMmQw7bfvvnTfzPu5Hz88/3wafcBoXqxDdxpKTzz5JL21ejU9OWsWI0hYs8L4TQAFs/hfwdYKiFKF57rkxLTDdeafvLBZZeCTlrbffjuWjCDdM8pzzzxNl13+K3pu9mxatWoV/fmmm6h79240depttG79etp/v33p6mv+wHVff+1V2ne/0bT3pz5Fo0btSm+tfpsefewxdzzBvpw7ZQqt/3gd3Xrr/7lkyVD37j1o69YtnK46uZSo++H1Y1UMyfRtpxpR+DVFdyoBEMJGdvLFwX3rCQMjxOX6723HKEoECCnoWWwVQbtswEhR0EHs/UrSIA4g6P0uN1BSajdS94hDtlgkCWypwxDLkvZFAIToZZYEEKZPn07LV6wMNFAoIKm9CwKkNN5lupylERsWMfLlpV0eODp/lWb37gYHQDj9tNNozJiDWT3w2KOP0qmnnkrX33ADXXnllfT++x/QhAnj6av/9VXasHEDXf6rK2jNmjXM/HAwNTY00B67707f+tYZdO73vs/opeA4dNBBn6ajjjyKLr3sclPgBGVsJmaunz5RDN+XgggbAZVkSc/IuoJQI0eOoDNOP40G9B/AOr7Pf/5zdPKXv0Kvv76IVq9+k2OLIxJhvrWVTj/9dHruuedo2fLlDBqefuopeuSRR+iZZ56mvn360OAhQ+jiiy/m+oMHD6ZVq1bSnnvuRQsXvkJTJp9LxxxzDF1w4QX08ssv0Q477EAX//R/6L6Z99Ejj/yz2LOpqPr1CBCq5ubYRjfTNBNcLkDg0LhuRsioW2ZAvRchPoiqY7pNp3lP/NiFpLEWfO0lQPD7GwTxupQzSfpiGrdso6YAgsZbABBg9N7p7Q9i9nqVAMIdPkDgtQY9UUHgUUyCe/t18nl3YzsilTN+y7rJegBh2cBfYba6b74r4m9sbOTkPTdefx3992mn07I3ltKgHQcz47zoogtp3br19P9uuYX2328/amhsoMeeeMJbw5Bq/OTCH9Mzzz5Ljz/xBL8y6zjU0KULde3alTZu2GhA0HGgQL1KJUsCzIdIxPUm9sQR79p2m23ou9/9Lp199lm04+CdGNz4KhmHunXtwsBpypRJ1Kd3H7r++hvoC1/4IvXt15t22mkoffazn6Ubb7yBjjj8COrSpSvtP3p/uvnmP9PE706ivz34AB14wKeppbWVA54AXP3ogh8SbDcgaVFTLAe7qqqD1F+ivjcPtMMBBAi8sopNTbFMGCqoHFGmNQ2breU66np2iaBsk1IBQsN1XQmHulRLphVBR1FKMrFy2kkDRNRbecFBQJ5Sz4lKzXmGpXNJdCkv0JsYY/UAQvESGo6gSER8mW2rUuwZYERbFY65p+zFRICQaxBxELxikAiPHRMfann6dAAExQbBtdaH2J43H1L6ujp5KhQU4xihQsjksuTkwdhkzxU3QLG7Al0UtTL0ve+dSw8//DD99je/pmNPOJElZA1IzJMhZl6f+exnqH///jRt+nTux+6jRtGBBxxAq1evpoMOOoiWLF7CtgmtrXkaMKA/bdOvHy1avKRIXZaJuaeVBvDgEpamaN93gPDzAuy+++500he/SHfedSfdd+99tPc+nwq01adPb2b8b7/zDs2e/Rz/BhD04oKXadTuu9Lo0QeyVKC5eSsfvFNvvZ0uvewSeuut1fTHG/9EF/74AjrxhC/Qxx+vp2nTp9Ghhx5KL7/8Mu299z709NNP05YtrjrGOIIk1UIyWGgXgLBmTfK5GLXpQ9IvhTAqjoyZcQYIbXhetdU5mKpdlz4ysmVRRoqTWqjxum6eWDz6Rq8cZaXg7lQDKb6SZ4HPEsv2neCwBCE4niQAY6K9MDaX7fgboRgvBunmCCNF9R1J/RFvLR4gNOQa+KLaYUMsR54pyWernKlkgNAIgBCInhNa/akAwkpXxaAwc/ZlBUiApCCXY2tRVim4GfyElEEsJnHrNaHa6MHiJvuHa66mn/70f5gJ+iEhRZuf/YwACNPvuINOPukkBgd/feABmjtvHgOIn118MU2bNp2WLFlKRx5xOB177OfpvPN/kIph+5V0rlAMOIgGCP7ZJmJD6EBipyFD6MQvfIHuvvsu9jKYN3c+7bnXHl63evfuQ5856ih6ZeFCQrAgtVx88f/Q0iVL6TkXNCxfvox/bmrqTRs3bqCvf/0btHTpEnrmmWdYxQCA8H+33sp1Bu+4I8cl+NUVl9Nf/3q/0mzSojTcKhOARbsAhHYMtcyzXAmAII1jDQd29OLWY3lIp54iALBpig2PGyUIMTctnBctE1uo6/VdYxMwRQUD1cdcyXrp25IDFNLTol31UgLMNNAlDiCkYcYq8476W/ZDAgQ1UFIUuANAgNcZ4iAwOzDoNtL0z6Mtk1xZWIFzVEhRVPdJCTMS72yRpulpqF9bdVIAhC4JV1iHxh6cQoIgAYIcv/Tp5399EIDNrkbqClv7x3VH3Eqlj/9ee+7Fxnr/fvQx9634zZ+AwyZMYKnAvTNn8s0ZG7Olxc/5DQMVGNrBFgBoEjcb3x0y6joYtVOTJAFRoZRxmvuHhwkMmNxHpQ4WC3zs2HF0w/U30j77SglChnbddVceMyQEpvLDH/6IJow/jH866+wzWWqAsv/++7PV8ROuWua0085gScFf/vIXb7NBvbNhw4YyVnoUWGD4CKEft90uAAESBD6dDMMzTXE5t1QDUwwChLSgylv+Yqe57ZpE6MwcssHgOKb8BbxrGeD7g2ZVYaRoWu5xeCf5Me3jDvRzzz2Xrr766ujQ6+5lAu9tnriVul7fLRXjiFMZpGXoTEZ36HE6+LTtqXQoW82QeHNUGWN4HUPvXo5Nhf5s3OdiJAiqkWIa1U2aOj47Cq5j0+EVt1bjXDnFWnHXvxf1NvwGVOF6nnA1BhV7ICSOD5VxBLuPpgcIkX1NBgjTXBVDUCwUt0h1sbkpvFL8IscTPXv0oNZCni35PRCi7OZu3btTLpuljZs2ebtdN0DyvCl49uIIbuYE/r1ZWYB6My5yVaUCoopOdEMHAjYZEf3LEO0wcAd65523YwaQJPIXeoxePXsySJJAqaGhgfr27efGiUixIPVgUAFuK0+2OEL7MeHbBSBAghC1J1MMv9wqRUkQAmT0Q+eKg0gElhFM3V95wh7I/ez9E17bDBAKAtxHHZysx3Zdd9FunF7bAw0wNXIBBADC73//e49kUaJrVGiZ2EyNEemekxgWLgKIpwE1mrBhcHef4/CN9YADDuAvYNCLPYD6KCx+LhT4s3yH/A77QhZ899JLL9Hbb0fvv+C5075i7UoABKFSCO5j0zyUChDK3UeVej5pjJV6T1Q7UXvP4GQXWNdqTr8ogIvpW7ZsWXy651xjF448Yb4cCaaSpGKQAMEfpGRGPlMKRvaLunZFMI4Yox5IDJjtqFSIo4hyOOBPjjaIQxMHBwwnvS7EMFT90PUewsPyP0mNKNF7kTQwrKBSbJ30UA6VXODRN604iYF3XLt/+AABt1WAwPJDLZcYSTEe4Cuk89eKF7Y2cLVMT2UGCHp4Ce3GyE17t1ufMUtmbvIJL8UQL+pwEuFpzevXpM9VgYMq/p08ZTJLECSQCVDJHbN8TzEAQaf2iBEj6JxzzuGgX4iJgjYhOdy0aROH9oUaEmXLli0MjCFBkwwQkjIYRQNIoEA1iecAOCRIeO+99+jf//433XDDDaknmr0ZKix9SvvyKICgSozi1osKOqMZmBicNFI0RUf0dr67liFB6NGjO5kCJaUdm94mn/Hl0Fl5cTEShmL7i/ptBUbijHGXLl2aDBCiBy4OvlTZHNnNMfYKroVhjmKcGmk5roFDTb2aSqF5xZ/Z2ryV8B/iMCSPt8zXy5VtQAL5vEM9uvdg1Uh7F6wfHJqUVUXLcmMquzOAE/y1IkGLOJRgqirULtEAQSZrQi6G+dVN1qRJF0SG0qR17y4VHScZDq4AQNAAip6NVt34+g1eP+Al446KH6CqFNjDSCu6JIIPXmXs+hkSd6bIm/wUFyCE3qeMuxIAAeq28887j2C306dvX+qiqBvRT6jiUCRo6OJ6NOE39A2gAEBC1gGIQL9QDwVrH9KDH//4x7RCNdaO2ZiJPvttKMXSwyz7TNWXFqUFCCbGJttDG6oEIUn1o6oYKqHWEX3zJyEJKBRX17znSwHi7Xl+JwKEbIO0QYgWd6cDCMFIismDDt8qRfRG+b37b6FAPbp3o7FjxyY3WYUaCCm9dNlSyuWiYKn+vekamoKhGMfit42wyqP3G03bbLNNFUYd/wocmC+++CJ9snF9BfoigVccQCguWVOuIcuR1pKTNc2ktR+5NggVGEmqJjRGUMg57MWQcdxg1e7vaYyzpPpAZeYm3SnfFF3VgScqVkLWmkTFcl+agIIAdP5o5ecAcPJUC77K49xzp7AEIVDkeN2bn+xL68RmariuS6yRYhS9ARDgCjx40CDqP2AAbbPttsz0oZqE1AA2NQAJcN2FjRKAAgygJSBAHfwOqQGewe/4F3UgXQBAePfddzlj4S9+8YuAnZO5T8Vb3KdaSykrxQGEpCbkfJgYoWmN6kaKcQw0KlCS6Rmxbj1oE+i2uW/mkZlAQ5Rk1lw3+Swvpj/oZVogk0JQHhq0/sySJUviJQhZ3c0xlJQnrQShWIDg992NmMBfiDuk+F8uhQI1NfWkE044IWntVuV3HAILXlwQBghG3bvepRi1hVfVBDzEIpQ3bfxbyDt01FFH0cCBA6sy7riX4LB8/PHHae1HHxqrpVdrBMde9VwM98+ktWm8GFKrHlJMDWu4fClEQcZBSD533DWRrqKUMOBfKU2IAx262J+f58AyZmCst5UvIOZJ0BhSlRTgN2mkaAYIQfsJAITG68VNv9iyyy670MSJE1lNgKBie+65J/cNjF/mccH3AAcAu/gejB/fATTANmFrczNt6wIL1MOah20C2kQbH3/8MX3wwQf0xz/+kRYsWJDQRT+PgHfopR2Upm7yPMPTPs/Gv8LGQi9pQah8Lprx+WvS5MUQ1dVyIyma+hUFSEzi/CQJh59vJl5nUY4qQgcnacECxl5K3RQAQfViUE8+uRJLAQhJSh+X4bnVQpPlgQQJEHrRiSeeWMQWaLuqiANgBAj6DKUyEEgDGLxlH1BpQMXwmaM+UxMAAQeqBxBC1jPGo0j70rxeEgHCsGE0f+4LFVQxaBKESoh5eRuZ1GnmuY8FCElYIGnbGaZCHIrRoFQ+oqsBpIEiftd/M0kt1FfL300AAZDCU4cotj7lAoRJkyYxAFi5YgUbLcsw4eh7t65B90mTzlZ+h38BFiSAkkaLGJ900Xv22WdjDyA3pmL6Q0oHBemfNM14pDGpsEGIZzRmJgqpkBTnq511WMUQlYtB71ylAEJZ5NFPpiSuW8LLooBIeN+ojQc3fxqpRFLXMddwZ1+0aBFt3LjRe9msWbNo7ty5bMCYCUsQwiNOp2KQoZYjVnMmrKkVN6dwICSPJeLHgsMShFoCCC++uICyDa41dCIQCB6+4mBJWlXJagqoGGoSICQNzftdZZous/RsLnhR8I0VdhYhI8Wpt9KmzZtp2PAKA4S0EoTUY4ypaGL2GSIGCIijEzYDaHOTl0oMi9tIXN/iTTpAkBIHSB9EM8IlE6UiAKG5mQ9DhFaXRodoW3otyPE7HKdAK25Idvwm872oHhGoDSkCbmRz5syJJWXRACGyNRVkKn/HANu4GAi+catg+FEl+qatg15hg9DU1KuodM+VMFKs2FquYkPxEox4gGAGF+KZuHYTbRByDTLds1gRfvZF2SFIEMYkpHuWoZZN4MCPTcB3FYACd/XJu4t6FmIDiuL2JA8VQ1NVAAIfUNrOUC170atYCYJ3OoZPf9muuIkEN5Jvty9G7rFOtS8aEKm2BEGljU6TgAShQhsKw8UBbPZimEqbt2wmBFZJJ0FAQBSi8YeOp3vvvZcNznTU/OCDD9LMma6KISWDawt3yFiAILZFxygpaKgCBG99OUSsnnB3QSUAAhK5QcUAuwOoCKX6IIqQpiRkcs2bDDhlO/BmwIE7b9680gCCd3yaJE6VmfY4F0ddBVQ8QAg/YZIgRDEskwQhjdqjMpSpz1YS3RwbGrPKkSMWpq5OH3Pw2FiAIJI1wQZBggwKBCxywyTS0RDDOQ49gFuB49BwIvqa49ClkmFyT4JXJxzs8GCohgTh4IMP5mRFaoFeESJDGRcgDBDUkzDI/CVPj0Pj/YjoFIfoBiWY5dHujPyDAYt0f/Hfg+/yrQU6qooqhtGjR9Pw4ZgxojfffJNmz57tkckMEHS6xGzAwILzD8f4OAhbBECY14YqhnY4M+oRIIAJsH2Da3jGLoDuHqgUQPje977HdgPYvygwTIwqpTIleDK88cYb9MILLxQBEFKCAVX7K4GiBsJUF1vVrkXtTLkAIe42ahp0GCBEI8c4FUOyV0NHQc7tcKjEvLJIgMDwQGlOEH3MwePiAcId0zjlsnL3VWMnei3unCH6Qj5PLZks3f0fK+qfOQ79LZshsJqfFojOyxD5cQ4FUIFAoVoAAbcMAAFkPpQFupmVK1d6OstkCYJpNqIPAThP7YvxtxbosoYcHZMv0MZslu7NOLQzZejz+QJNMnhMVFOCgGyOOBiQwwIFGR1xK/vDH0T66EQJQoy7ZpBawcMj3gahDQCCUcUQpe4xuC5qU+8d2EETf1+ApGtZ3FDLjJHdcP2lMqsAUwjF7Yg+pKUi0HtvqeduCgnClCm+F4M0gIT4n/FiwRWPKioGeDGYi3+xMf2OtXreeeexwSEMCHFTll4KSce1rn5QbQ70Z+HJAC8nePTElcqpGJJ6H/49DUCIAwHlA4ToPg8bNpyle6WpGEpdqMXTsNJPCGDcPv0vASCEh58eICST7nOOQ4dRhmDnu6dDdHmWCGFK7s47dGguQ1sDTWTYPa2aAAFiSAkQABb0xRoECDHMIwS0om7UQkpwX2ueHslmaQ/HoX9ls3QfOXSmk6Gz8nkazfYOwXdV0wbh29/+NutWEX4ZwWaOPvpomjBhAruOBQGCcBEM2lnoekl9jUTTMNIG4Tbh5jhs6DCal0qCABVDCjdHFSAE9LhuH03Bj3R9r77P+VHf9j/gEmhgokj3zHiinQGCnMdSD640jCQAEDguvuPZHIAR6zYI0QBB0Jj/10BTjoNw/vksQXgeki9EDHUlCLodgbo60R8TQIAKwkSX9997TwCEl8zhzWXb7Q0QBJ3ChJIqhvYDCMPKAAjJvKc2awQlw5XqY9p9mwIg5JQjzYxiigMIJkbof7e/49DniajRcWhRJkP3ZjLUjRw6xXHopkyG9Ey31ZQgIMOjrmJ455132KLTqGIIGNUFjpai5/nCvENdsxlqBUDIZWm2Q/RpIjrQcei60GZ2qJoSBAkQQIs99tiDRfu4lYUBgnBzZHboWTULUoSFCK46RsMPgWMrI8JpR0VSxI0DSapgT6Cmnn7ooYf4O+ibX1/0OrukChuECck2CFFxEFx3RGacKQwBgtKDlGJktN1JAIJpA+iMRwIEaZwI6UHWlRjongQyDkLyxgoDBQAE2DuAAc6fP5+ZI1wYUWCPYCp4v25vEAUM5PPpVAzq6nGlJMZgW+rGiBLH+HoHf4UpMSlCj8kERWHjNdWuyAKE5FVWuRopRG0lvsxXT0c3kAgQcg1Z12Yw+iaXDBCmuyoGcXxGFYT0OdVxaHsnQzdniS4vOHRZLkMvwSAtwnC7mgBBN1KE3/O3vvUtuvbaa73kRL4EIZh5UvcbZzpounUV1UmGiTiIAzNED7cU6Pxcjr5UKNCibIZuyRKtdfN6mAzaqw0QYICF2xYMRrGovv71rxslCCE6BPCiVCwrBhfycl6Qfu9QK4l6yKOB4DQmgLBpk5AgzJ9fQRsEXYJg2hI6/jXtb93YjH3HXKCkSIL0QEIMqiRAcJGyWkePQRD4TVEjmG4P6qEfFctABz+6MWqJ55T3mAkgXHPNNSKrHgmG7KsaxKqXzyR5MYTH7AMFAASAETB47F+8QwIEdUwqAChl7HEAIdA/ZIcLFU3KJH9XbQ90O4S0E+JtOz/Zlg7ALEBIS8z2rlcsoIhXXSQCBGmkyM1E+MAmAwRpgxBPvEucDPUpFGgyhykmQi7Bu1vzNLghR7s7RC/B5oB/8QdVTYAwaNAgFkOucTP6IUb7mWeeSTjEZPbCZBuEKFWCSxsGDf4YYfYH9cqnsxkquI/+yslQxinQ77NZGugQveA16dOl2gABhyws/aFmGDNmDH3jG98IAYQ1az/URLx+CuHQAY6fmJHKOuGFHGmkWISbIyQI8laaWoKgqw1MyzqqjgcOmL2JJxWAYNwhygFegM0wPpcBEIzddUGXDgL0ugGRuxJd0dhmkXrTtgQIcScPAiUBIEDKtHDhQlYPpLFB0NdsktgWEjYYKZoCJUUBhICkyaieUm1dFKlCYJ0F72VBjyl57mA1+lkcg5cVoQPXQYNO0zRqI/UZtCdzMYDuSaUW4yAk9bmj/54aIMQNNBEgTJ9Gy1cudwFG9BXrEodcgCDqwBYBAGH/hixNQ+CfXFazQcCtonpGimB6H330ESFQBEq/fv04guPNN9/sBZJggLBgAeUahNhaFRIEN1CQg+iHC9fNEA13ABAK9OlcxvPfYIAASUIuS99qLdA45V1ynkQkxeoESjr11FM5ShxULbhl7b333nTsscfShRdeyN2JMlLkMSpMJsBPXFzg8U9eEsG1k5isKWWgJGkJnwgQ7p9JH320VvRZZ+r6gazi2DTSYC13gbfftFshJAj86nYCCAHpAuYoxnxcv2XHSjjUuXWnGUzbKEGA0ZYENG5doWJAQKPij2QABARKwtpdAA8DxQbB1BpAkgkM4HmTC6Rsg20QVqzgzI56CbYnEaHh7d56UHR0URoq9fsIunjqPldCxwpA11tEF0G3BUBQvRiSAIYFCMWv7XKfKAEghG/AiQDB82IwdVe0h8UHd0YhQQgChAMashFGitX1YkA/Tz75ZC+s84cffsjGTWoxSRB0d8ZwNDIDB3HJPKzg0D0FxwUIAslfgU1cKNAb2SydhZwLDXJO/LmpppEixn/66afTYYdB5kNsxKlmrosCCIIOvhSBY1u4J7wHn0K3UP/UiwQIUoLQZioGdb7UrNxR37uJi0JxUiMYgFQ3KNxOHs5edlIDQFCNHWXLaprzWGaeUoJQFYDgYkEPILgMGaAAYI4ZGKea9m1XgjYI8YF8dKqrAEHaIEBV5tFQmzfdMFGqHtNKEHQ3x7D0zJBaPpLZp5RCKYDV32NBkUQghD0PPriew2rSICWTGLwJFOlujnFtWIBQLrsv/vniAEJA/O2v2ESAMH0arYAEwSv+syqz7O6KlTe5i7OBHOqVIfqEMtQT//KhIJ6V6BYu0b2qFAcB74XRkjRcwoaBtXwIILAEAXHpRfG3obhmim2nfAtG6cZ+0G/JULbw2JW93N0VS0Dl0JUy9LEhBGo1VQwYIzLXyfS2MlmNpIsJIOggSX72DRjjdWNMx2yGesZFUoQEIcmLYTGMFItI1qTmYoi6ucmBh7F0eAuoi8ckQta/ywk1W8b1940ziFTVAXG3d16jNQoQ4CoLplHIi/THKjNW11B6I0XJ+HxwIQMlwcYBAB/rWNogYI/HBT9SjV+Tjt8oG4SgeiF4YgTaVKVUmmQpcNBo604F4eF3qUsSD5pFDf5z0SIaqapLooP8HW1agJCWWu1TLz1AcBenaV2mAQjLOQ6Cshjl7UgCYBZxBX8XIkr3O0XkrC7iaro5ppmiKAmCuCi7oaNTWLmb4k0EE6/4t6SAd50L+iFBqJaKIYkuEiDoNgi+LjR4KEqQoKofxDuChxOej/ZiSBkHYbGwQUjlxSCNFEOMPAYpKHXlQR150zSpKXQAUSGAEGzWKQkg6Ea7+jqQGSG97xVaiD/9L0KGkRliuwAPILgRVCsDEIIIbtSo3UgNlIR3qIGS4iQDSVIDlSYlAwSTPYG3FZS1Z8LUOkjV+HuQ7tHMX1cvmMYd5xJqOiMkQAAYq0cbhKS1U6xEJukcLuX3ZIDQJRc0plZyBUiGlxhJUaoYpM7Z5WgeIOCsbr51ekiPqPvAKRWga69WHIQ0BDZ6Mah7OCHXAt+KpCuXDAYTsW9NkRjlraraEoQ42kQGSnLnXYzDB4P+xoiSIgi0iFVjBAiuigGRHZPcHBfBSDGXMtRyKFCSBgxM6DkIi91P2rikyllXr/hXLRcfCREbJEflShCqARDcWfVeFXcTjwcIkPC4+Rdcbwx5eZBHQXEShOBq3W23UXT++eexrQzsh7D+4B2TtpgOcil5UCUM8PRBHATdBiF0qzcZd6qAwBRvVR/zBgAAIABJREFUI4i3XPFIkhQuuByhsosqSfYHDN+LNACpZyPFJHBQCj3Trtdi6iUDhEYRB8Hspy5elUaC4KsYfG6nEim4toIc0V+c4aFV00gxDWHDAEHT87kJqFifl4J5+CBAzYjmnwa6oZ+8ZSPU8mc+Ux0jxSS6xEdSVMNFS92RxxmVpsNXIdz8o5I1bd6yhYaykWJ8HAQGCA0uQDgkXS4G/SDUb8PexVgXLIQ+S/GZRAjKcN1boy91cuccnjxZokyzqKurGGTfPCmM22SS62IpKoY0EgR1bZQCEK79w7XMeGSCJnlLrSRAkIGSEMtkzvPPJxopeqvTu+iIVNdqMRkswmZp+bJltECLpBhmFtp6iMHJ7iKI34LRggG5iPhfCxCSTrLK/Z4EEIoFW5XrWbCllABB05e7OQD4gHIAEJJyMQRtEAL6Z+8WGXyHWLBSX29iGOK72gUI6q6MV1aHjRbdfevdLF3L9dBGN7Tr2ifUugRBGij6Xh5hIOXDIDWjp+/2GJuLAQABRoqpAiUVK0EQdBfaHLffIbWDu2Yjvlfj4su17o/Xb9OTJkmkmCXh7uoCBD2uSKTdgb52AuJ+34VN7ulwdfGACjSqAhCuvZbfKRM0CVsdYdTMGMrtaDkSBACE73//+2xrAAPCqDgI6tGp2iaoh7n83sQApJtjopGil2hCeWNKYYDB8Ck1eICbY1RJw9CKZWpWguBTmw1vFclQsbRsP4DAgZIUf3V38XoW6CxBSAAId0z3jRQ1gzqTUVrI2FuKXhXELk9o3Hz69d2GEM2vFgoSNz0560kvOp84/E09E1+GFkXgoqzLrKXfpGAlvg5fVVKKv2GD8NX/+ipHNWzvAkPOGTNm0Dvvvi3zcild0jeGZL2yijrOAGSITfcssjmmMFJkFUORNgiyGwn6XSPdNXWCaCrF6S+n2JUgtDVAiFozATsh1yXOq6utc52pyM8mZhOlYkAQMhl2k6VuiAfihlmuJECADQJu/RD/y4BfcftGBQh6vShJSSobBHEqKJxD/Mnnrbo1DEeDPBMTl5PxvhLOVKuOqy0AAuzH1DgISRqKzuLFYFz/SYNvp0M8hQRBZHMUok7zQZaoYgBAWLHMG6LxxuxKC7zt4V2iHITvcLeN+n73u4LDXgyf/zwCNLd/gbHNy6+8zABBFE2R4LovRwKDMDrybkxITqTIWbTBivusLJAgHH7Y4bT99tu3O1GgYnjqqafoo3VrIyJpBvsu1xtC6/LfJslJhoiTNZm8GG6byt4lAiCkUDEgMJfj0KFJoZYRB2HtWt37K0zf8HCi58BUV/3O/VviA3ZzxJZUs5YprUOq4pUk0bJbMYqRmzqt32yKuunESC30d+G8mTxlMl137XUCH8CDSQUIvCh8Q93miVupy3VdS1rrcHNEqGWZ7hnv0QMlJTHINC8GQMCBG5/NURApSaug1tGXkM7/9eUk+xoWbgVpyu/gSskAtqh1oKy7IUN2ot69m+jVV19NJCEuO0jW9PrrryfWreUKadZSKfRsizEjsBfC0iMpoSyIA4SYN1jLmQYYKcoJdY3mcDCLWPrip2SAMI1WrkS6Z7HgQjYFivGiYAb+ycaHQsxBBxUDXKBqhaCSVriVyuIPyT/QZLhgdVKjx6kQwLtKxC8HAIQU+7ot1pSxTcxjQ2OOfzONk9eEZ+gSPsJUlYQ8sqIBwq1UTKjltIGS7oeRIgIlRZ2waalpOsHVZ+PUFZAg5ApEzeZNUQpAEPtSgZ4mIzm3f9UECFPOnUKwQZDu+AVH7HO/r/5+2jpxK3UtAyCcffbZLDmYP28er8OkSIroh8lqH32Lcn18D9kcIwIlFbOodHmhvuxMKyNuSYkTV30qGEeirRiaqmJIAxA6swQhyAdSIvu0500Z9dIBhJgDAz+NHZM23XOwp6oBnso4+HuXEeq6Gb8FsYiZ0ToZ6tunbxlkqNyjuLlu2bqZDd8QKjhwH3A/q94bPhNPRumeWke7EqjLSWxmoWJo6tkUmWymciNObgkH+yeffEKUgS+7r0NWmY1HE4eIJQfuGIWeW7xDjk16POCANrs5TiWhYhhK8+emy8WA9g89JD5ZEwMESBCSSho8l+YUD5wa/oe2AAjqq2KNCRV0VzQoL1KCoAIEzL24LOipb8X6KBcgnHHGGdz2qwsXUsbNKaJPs3+xEZOnAgRVfRKVtIm9GAxGikFs6ErN3C+TTwVREa6Ce39qb1a1Ik4L5hBGl/nWVuqueGTgfEK/EbcE421paeF6uJnL8XTt2pXbkCBp06ZNtGrVKvr73/9O//jHP4xRJIteC+5+9lUMyRIECRBef/21pB1Y078nAa5SaNlWA04GCI1Z71wW2yJ4/SkOIARYWeSYpFTLP4v8d0qrfZkXHhKE7t2609gxY9uKRkW1i3gPICpCLQdLUBDogyNZy6WuZIbh08nlkmp+As2GgadHvAcShNH7jeZw0O1dWppbaMFLC2jDxo89gBAwTvSUycHj0KSK8r5z3d2MgZKgYmgrgKBKEBi1hCJAG8kdqKYvjSR5sqZZa2+AUPIBpo1TqiyjbBI8gOAyEwBNb7cExFAZap5UugRh1112odPPOINtECA2RaCkPn36hObRZHcg+x4XYlk2lDabo1xWpoUUhStHjBhBPzjvfNbp9x8wgJk9QAJyx8ggZugrAAH+AyCQYAt1MOZu3boxDSABQR08h6iReG716tXsonnRRRd5mWvV/pWyJlQJQtvGQSj+Rt6WJgGdCiCIbI5aYHzp8+reiJONFNMla+KNoRwigffK1ejekCW3rEUvhhdfXOAZvvkHWhAIBDd/HIeQv6khicXTZom8qF+rXgw60/eAkmudLgbmUickufJdPbHJoiUIt9Lmza4XQyobhHRGigEJQgzWVWbMnShltqNkvQpXCD0fOIldFUOLkMQITx+/M1IMrzOXYg7wJAlCMW0F+hEBEPyt7VfAmAAQOFASZViq5EQCBKLmSc0lqxjgxXDmd75DW7ZuZXCPdaUGSlLHkHS4x4HxYgCCCXua2pYUA0A45+xzaM/dd6feffty/yEZwH9g+H379mXmj//A/AEIAAAkGMD3kELge+ibARowVoScRh1IHgAS7r77bpo5c2aoK8WuCWnbULvJmooHFeqZHLcOktZQsbSMe1e5vyVKEBrdOAgBHbG265NtEKbTSjfUsok4wdu0OzHBf/iNqohZxQu9ejbRiSeeWC4tKvK8MZtjICCQ13P/fb4M3f1OF6vLqrryOsQGJGelaiZrSiJcIA6C0d5E98gQjE8eImZpi8NpgKPSPXMchJ2GJodadr0YgEoOTYqDII0Uo8meRAplzg2gwQQ6DOcUSxBiAIKpE8XYDtQSQJDJmgB81LNDH0+5AOG73/0uM8alS5fyzRti9qSi9weMNO7wh5oNB26ckaKXO8PbyUm9EL8DIJx91tm0/Xbb0XbbbUeDdtyRGTsYPfYf1AWQEIDR43sAByklAWBAHfyO//CM/A9AA0ACzyGOAzLZXnDBBV5GW+9kKvLKXfsAIR3dg7XSgop4xVGHAghspGgcj/9lIkBANscVyxXjtLCaQqAvX1IhA7fo6y4oYYB1c3VzMSQtGz1QkivxdzM4uzRz9ajq2OTNWi6OJJQp6eDFP5e6e7eDAAi1FigJoZbFPKuAx6dJiLbeZPto0V8XMBKL8mKABKEIN8cG14shwQZhpszmiI6mVQ4nLZiI341SCFdPUasAQdfR62tYlXSYDhWd4XKypquv4QWjSg+8s0KhXTkAAV4MEydOZKYIC3msnaRDGiBCAilpsGhSQajTi3oAIEgIFVVMdIljO3KdjBwxks466yzKZbOccVbQzM0j8Z9EeLApaIBtQj7P3+cLBWrI5TxVhBwPJDUSQOA7SFOgZoCEQX5+6KGHaMmSJYEhJNHLNF6pYkgKtSwvhsOGCS+G116TXgxtvAlL3LvVeSwtGNEgTJGPJUsQXC+G0FTgCzdYSbKRonBzlPYD3JankleOQrhv4XsRVVWE080ROW7mOnwhDxH2pHDDM1crWRM2i74R9EPBGGpZyILFmALW+uEFHrot4zkY/4Mmsrr0ZFMe1wFVe6gYhEGh8FNXiy9BWKObsHiua4I28iklB4dcChIjaEZyUW6OmzZvomFp4iBwLgaRvjcp3XPAiyHubEpnamM+R4KmKgGyyKEzQGiFha5ZxWBquBoSBB0QxIFc6W0hyOj+r4L+8TvcHAEQ1DpybJWUIMhsjrhVL3vjDfpkwwbPEwHv6RYhTdBBnFz7W5ubjZKEHmBur79OiJUSCRAUry3TEouyQQBAgCcGGPniRYuoRZFmMDjICQ+iqKJGqAR4iPLEwBifeOIJWrFCeKXxMV2k9EAcg2J0UDGkAwhExXsxpDX2iSVNJ/uxOISwbFmCmyNUDP5CDW4JvAqIMxEghCQIvKw0wjuU/VyGnB4OOTPcn0ZmKHP6fwDCT33G4S5JcawAoBSI9WTVUDEccsghvKDV8v777xP8QnH7QAFAgA0CsjlGO3+YuYsXXc/beUROP4cypxHR74XOmSl3LP7HIecBn45MTYWkCLVc7WRNe+21F+s6EfNALfGhlvX9J/MsRPtgywMJoWFx6N511z2eznjatNtp6m23UlEqBsxVoQiAEHdy678laYXMW8F8KLlthQCCckAnqQdMDesHfFIbUQyhFIDg7+xgNEcJEK6GBEHsdq/rpveXK0GYNGkStTQ30+IlSzwdvXxhY0NDgGzcE2VzS2AsLwtgsKYCycTixYvpeYRzNhRVvVDM3RjLYsTIkWyDgLlDPomBAwcGvCxUmpkkHUKlB+NmeTsLdxAAav369fT000+zV4N3TJUJEJqakpI1CWoUDxDM28h+m54CqQMl+U2GEUiikeJ0GUlR3hREa2Jd+e3lhhE5J+Ny5FD2L/9hFD8vUPbOHBVe+k/egv8tUGFShgPEqIu9mtkcIYaUQX8kPeACBOMjubFUgKBPQ0BibjgBQiJZEKgbUXaP/wCnX7dS/hdZyh3rUOtHGWq8M0uFvRzKHF+gwnd8Gkqffs7FcFT1cjEgUNWRRx7JVuDXXXddYOhR2Ry9A0ZkXorQ35oRb7KRYhEqBiRrIofGF+PmmCQlMAGDpGf0BWOq78ZByLRmGBxL5iQfjWPu6Y+F6Jr6+9SabQMQrlbFjZG31XIAgkz3LAMl4caNS0cUAzQxUb6sJKSGxmUCKgYEmYkDCKXM0y4778ISBPRh3rx5bIcQl10xSroTJ/XBJQhuvs899xytWvWmd4YXK0GQ9gdooHaNFEuZhc73TAkAwSeCZHiJEgSZzdGQa1xVR6M957MOZQ4nyryeodadHMpeSUT9iZy7HcqObyDaKmWwAqXj5lctFQMAAg5gucGxYfTMbJ6KAXpt7qD5LiA0Da7MQGOOuqU/6rVOcyg3m8gZTpT7N1HhgQwVzioQfYcoe4Aw6GMTDhfNV1uCcPjhh7PNw1tvvRUJENZ+JGwQlJNXaJpcdZUACeZNJrEk33RcusYZKQKUDB02lObNiY+D8DqMFN3smalUDGocBIM6IDg+95MSs8oIdyKAA8Zpql9oKFAUQJCMqr2PKnkjjepHIKCTG25aZU6+BMEHCOpNXW+3XICgpntG2yYvhiRGmGQ3hFwMcBXEDR91dTG+bqDIy9wdaJRqQdKB1SQTJ7H0Y86cOTRgwAAeA7wSAHgAFqTrI2wK5Fik7QHqyYJ+yfr4DnWkdAFShCVLFjNAAFBCW7ALwH+QsPZuaqKc6yGBZ1EH5ySMHyVgwd5EgSEo3ou2N3zyCTV26cKRX/H9unXrCHEjfvazn4kYKnUgQUhaX3J+VIDV1vs8HUBwLc9djucvWfeATJYgyGRNirukwjzFga9IFM5wqPCDAmX3cHX+vYkyXyTK35ahTB6MF08IURiIVS0vhtGjR9OgQYMU/pZhkRt0itg4KAwQFgg3R1Xy5mXl8ziiPrXx10teFHc7lPlzhuif7rP7EtF+RHSLbMu/tlbai2HIkCF00EEHhdYjgqfIMJxQ8wwePDgWIEjGweNRAI3L9UX7uvWm/E4uFLcXiV4MRQRKQn+KBgjcL7cz+klerIzY3QOmDe817e43qBgyeSFBQFGZLZhMEqNq60MlTfv67VaXfFQbIJx33nlsnCg9DJAqHDFEVKAAZsf6fJeZ4jP2PRiaHA8+Y42jnixoF54A+A3MEVIEGBJi78AzwDv4kV9FI17aZQQJwuTJk/kdUPGB0e677760zTbb8J6U+27Dhg3MrKWXhvRywDhlzAP0kW0vunXj3gAw4DuAADkuSEM++OAD6tWzJw3YbjsvPTbaw1ziWflOnA+gj0yhLV0rUQe0BB3lO9UATlBjPPLII3TLLeKA6/wqBrO0NHwkpl0VaXZifJ1kgBDyYvDVBLh54WBNBAieBCHcGd0rgYlxOlH+hwIguByDde7k4LP4znEtF/F8U6/q2CCIifInsX///hy5DL7a2HgoRjfHiG0fdt/zmWMALiAOPX66yyHnzxnKPCLJEo6NIK7gGQ4/XUkbBBw23/zmN0MTeMkll3jRBdMABG8+Ay2JPptUmSFmpxh7RgMEGSgpOZsjp3tOmawpFGrZP9kjd5knBYjDf1GSiCgVQ7b+AIKcdvXmq+7FciQIMt0zmNvzs2czQN1rzz0JoHjkzjt7ex7qRKxHMDrJ/HBBALMF85TMFAxPdZMEgwTzlQwXz4D53XPPPfTwww8rayf54I8ycRk5ciRNnjyF+wcVwA477EAY16CBA2mbbbelHj17ekGQ8EL0BYxcghz0TwIfycAxJnwnP4PJq8GU4PEBGyCoYwbusIPn6QBAJEGIGmdBggbpfom+wmYJn9EPPAfa4p2QhECdAW+Jq666io0i6xkg+IskeY2UDwv8FpIBQqNI1hQUdqrXJSdVLoYVK5Z7b/UZox/4JuA3dgZ5EgR+qDuRg9vyc8AJDeLmSXlWL3CgpCoZKSJ0L5AuRF8oAAhnnnkmwVc7DBCkpEOfLv/UxwbR7TDMk+uCsjtdCYIECEMyREMcomeUpxQVQzVtENCDJIAg3RwF0Ar3GShIAgL18PdMVdQwzO7N2RxquUg3R7ZBIBqfEAfBGGrZZGtgmsS4ekXaJjjwYqgbCcI1QUmcu3B04FguQECyJrQJCQKYJeIKjBg2jC3stx0wwLMvkGGJUQeMTTI3AAKsWSlSx00bzA6MTmW4YLL4DFUDGOxvf/tb7+ww+c4msQO5dAAQvvvdiXxTnz17NgOE4cOG0YD+/TnewcBBgxgQSGkAzkwZ30COQwIf9BlgCeOBFAV/y++kpAGfoQZYu2YNgyHU69uvH5+P+A3vwneSHmD+Kk1kiGcZZwHPoQ4KQAPojDoABvfddx//B3sF4ebYsUMtF8/Aizwgin9B5BNlAgTRbmIcBE2CoOvYQ73zAILrmjPEIec2hzJHZ4m2SncdyFfhxVA9GwTcoIFq4eaDgg1w0kkn0U033fT/2XsTIMvO6kzwe/v+cq2srH1XaRdI0CC0ALKE2doytocGg8C4CdwQY0fMeMLtGEfMjNsT4w73hHvCdrcDt40BIeGREW4wwqwCJEBCG5KQUKkklWpRZW2559u3O/Od/9737rvvLv99LysRVN1umazMe//9/8/3n/Odc7pqdrsGwQ6E/BCgk2HsqllgbwkQ/i4CfFMtGOO3DeAjBqI3RlX+AtuzkXEQeDPg5n/7298uJphPfepTyq5oalXsJEV7G6XfXcHpdxRaQFK5P1rfiQbBy4shRByEUMmaLA6CLjDwwtZeW1LjLCBAMDqRrjvwL7KJgeDbzmew9ooTILT+xwYSQyZr4k2bMRco1Kx0z3tNE8O2rVvlBp4vFEANAgUX656amhLBad2GKWytyIR8h2VRMLO9/M4pcLk3GJnwb//2b/Hd735X7WeX4BpBy8FSPu2nF8PHPyEAgV4SvLwc2L9fYh+MFYvSfj6WwOb/sn1WfAMR4Ay3nMl0tQqNel00D7zRs70UFiyfe92Kysh3+ERNDYSdwCnuoabbs/zejMfAnS7aC5PrwPLodURNC3/PcbQIn/w36/3nf/5nbNu27QIFCOso8UMWpQEQrGyO7nQZTmQwSZFxEHqBkiyffVG/mgQx6/Yoh8EdBvC7BiL/yryF7wCMTxvAOyJAI2aGllUAYSO9GDi2v/Irv9JNLc2oYn/0R3/UN+R9JEVTaDsBgBwGlqDrfu1/V+D7nc8YiH0mAnxHHRuR3zLQ+YiByFtUoB/7s5FxED784Q/j+uuv76ufhyLtuny6bo4MlNQ98cwfBoyuqh8DY2aLwKj+rmzvvpEUtTkIyiX15ptuxhe/+EU5hJwpTu+77z50TQxuW8Fj+mSNexmWvU5/D9OCNcBGtB8gOMlNPxccBHtaanGX7ncN7MZBCAAIEsMCBlqfaCD+X5I2Vp8KQS3LxtwbFHSxaEzetwQQfybf4N+8931otVvCD+Dw79i5Q/gHtLFPTU93CX4iYBl10LTHsxwJaVyvozg2plyvTdIdgXMylRJB+Pzhw8I7sMcboBaCgIRug+rpLSKLo6N7njMOwsc//nHlxfDYY5KPgd4ZRqeDp556Ci2TL8HyCATsHImgOgTkmLd7+7v8vWVKscbB2rsU8lasGp3yCRDcHo7R6VOncP93viNcigtTgxA0gufv74EAQeVi8GqAwq9hNQhupXVttfwjXfsyEXSWzN9GgUgBMFb4b4uHwJ8ZFWzjSIpsmnVTUELe6MuTzd85NQhd9XgvMlTgbPYLR3VwCIObl4Aa0GmYBwkBujlOfUKCl8sNdHO0yEbOjgVqEExw2CcPu0DHvBv1LYz+GoT4lMm6x0HQ1CAM5cXgoz0YAAReRuN+edDrWJApgkCRSjRmMTVd1nUAgvMdr5u4ta4DF+mILzi9GIIAAm+Ssgcc2Rwnx6ckKuDiR+aR/sssooji6v1XY7w4jrGCSrh0+twZHDpyCNu3bEExXzTBgUrydmDPPqxUVuS/5flluck2W008/dJTGC9OoFgYww03X49YXCUtosBKJZPavRfPAY/4AhTeP33uOfE68ArNGWRisBpiAQSO0w9/8ANsnp0F45LwgHz0scckUBK9BPgw2iJv/H2PCWwGOhaJyPtu7eB4WNlNOS4kRno9bt411u/8AC09GGiOIfHyIkDQXnbr9mIgQEgkY4akVPYgl/P3wRoEK1lTGL2sLfSy2KatE5VlWIu7pTgIG0hSDBr5fg1C723PTdDH5HfcIGyxItRNyF2qiDbC1jBR4b2qQy27aw9kjCxvFhsq7UaJNPtojVIs5gEQPvsZufGQ1PTE4+fJzTHgli9NdVe6Oc9lT+a6Fy5fT4Dgtp7dDnPrPUtIO79zW99+B38QQGAQrN9jJEVTg+AFEFKxDBKRJCq/W8I7HnoHfvLCM5gcm0Qhn8fWzVtwxb4rMZYbw/zSOfzomR/hKw9+RZp+42tuwnve+h7MzGzC0soSnnr+KZyYO4n55XmslpZwyZ5LcXDHJfjcVz6Pa15/NV77umu6t3/nzVi0EQ4Nnn0MnaBGloZhiAcUsxgy9LLdvKCjcHKeBBZAYF00MdDUR9dHajx++MMfSi4Gv8yuzjm35s5ycfRaJxYfixcnmjXCPFYdfuuEY0SAwD5cBAhhRnd93g0ECJKLwU5RNH26rUnlOR6oQTAjKdqbzE1gt0Er2adz3aIfvAIIEbyKAULM8sBQvR6UJzZ7uvWCrf92HkLvttd/LNjf6boNmjW12xsbKMlvOdojKQ5MsZsK3rWw3ghaa88/m2OYQElDZHN0TGofb0Tn2md2x82LZ1D4mmvI+kYsSgbQDUHuPfpu9ntpuk/0u2EAgiX07C3xO/gJAOxD2K9BUHk26Lb3l3/5V6YpUeUFcNaTTWSRjKRx1X+5DFd//TW478H7UG/UkE6lsWN2Ny7dcwmuu+I6UfM/++JP8dmv3CkgYMumLbjjnR/A1PgmTE9O4YFHHsBSaQmvnDqFtUoJ0+OTuHL/FXjkJ4+iHWvjbe++FZms8lQYnJ9B19Kg2zEFL00OBAh0i1Y7233hWDwDvz1mBUriO4zTQpIiTQw0f1C4UstHwuV6PgQfp0+fFlMCtRPkZeg+OlovC0QRINAz4yJA0B3d9XsvGCB0vRhUpW4HfLAGQeVisOdS6HbBERohuGvcLjwo+L9MIGK8KjUIdJ2zH4DOQ7lfG+CtWVEadhu8kNOidzXtev05JmcjOQhBc+YeatmmRXBbVLZuqsOkX7siqyAW8yApfha1GgHCLjz+2HpqEL6EpaVFd8WAziluf8dNAxE0kObfDeYn8QAIfd4fQ4TAtQSwl3D30iA4Bbfbv+3dCxIQBBAECH/1V38pn3U1CJL6WfEVxAYezQivoPl7dbT+cwvjuXHs2rwLhVwBqUwKm6Y3iSmGWqi5U3NodVpdQZxL5ZGIJTE7sxnMn0DTwtn5szh2+hjOLJ5BK9JENBZFIVvEm266Hrt29YdZd5suN+DlNpbsz8L8vJgYqHV0mhh0MKa9fgIEBnIjadIKlHT11VcLQPjO/feL7Z4cCZ3HLQKjW/RIehmcO3tWiiQZksGZdB6OkbMOluU2TjQxHD92DI88+qi4nV7kIOiM8Pq9o52sSTa8G0JgHITrb8C9994rrFjGGrciX/F1+vne/XlFUuxpHewRBO2ubX1HSF8ve4uHdshXP0CImQChf6r6pYKdkd99z0WLoA5D90l3I0DyzXbr1ZnN0e7WaT8Q7NqkfhTqAEe9hehPUgzLQSBJ8eY3B5AUFUBQ0sljE9pPdjvuc8OAw4KEKNCJmCmfHc34RQIINDFQg8BMjlwrAk5MgGD1s5gaQ8toofTxVWQ/mRPhX11RQcv4KFOGymqYiDNpUdymPVEk52a7KQCCjzIVqJ/jqRjiaRV18LLLLsMb3/DGwJPXLaGb5Slg/5jtWVlexqEFSysuAAAgAElEQVTnn8czzzwzoD3wWhpe5gcCBMkn0Wzi+w8+iJnNm3HttddKv7/+ta+JNwLdB3Ueex+sPcpynQ//xoBJbFMqnRYvg6DHMlnYOTB+ZgzLxEDXzYsahKDRXf+/BwKEQZLi4M0v0MRgAwgiIGyM9O6B5qJJ8FZRkonMgsjm7mByYlJSnb4aHjKSv/fA90CA4LwY2zeFzuXOyc8bVEcPSh2rDpIU3//+3xQ7/M/6oUcDg8KcOn3SbMqguUALIMjXPQns68WgCRDCBUqyAQQLJHhc9ez0AycVwYd32e2hlyBQUg8wdACCE8V4gRrHAhnWxOAmQKzfOfdysAYhIq6HDEJmtUd9o1I/W99vn9qBVqeJEx88ifR/TaLdaaNRUsLMeaGZHJtCLqPc9qyn0ahjpbSCUkUFOrM/kXgE8STJfQlcddVVuPGGG323kgVi7KYQ/o4Awdl/CkXGESBJ9lkTIChFWb+hoRuB1arZQ1PFOAgMtcwAaUwex8BFJClynOhGSQ5CkAlAuBSORFNWKGa3jvN9ho9mf8lBoFlDxt2L8OjyN7c67XVZAIHRai8ChI0/yQMBQlxMDP0Hem9zq6MvGCBYJMVeB/tstv3b0vYvt6OVC5BuDepmYHTayGVzkgfg1fDQPe6nz/1UAIL342UyMK0HApbMyILC+eiXQn18A5cDg++TpMgDTVftdz7Hjj7gtCGurC75H7Dmqa7U2Pa1YkuX3ZU4SsXsGijJIiky3fMT/iaG5w8fAsmOvDkGJ2tyAIQBieKyvs/HwOpqEMIABNsSkwPeyx5u3uKlW5qAoztlHqYkS6j0hkrNvztAUAKIcx+LR7ApN4vpqWk8/e4n0flzM/aG2RdnH15/2euxY/N2ZDO5blXLK8t4/sTzOHpKpS8mwLDMGdZL1Iy+7vWvxy1vfWtXALpNaxjhynfpATA3/xLmll5ANB5Bs6FIJYlEFM1WWwRvLBpBs2mADj/JTFy8k6j1UCnK1c+JRAyz07tw+y/dIfExuNdIUiRo4Dg98MADopq3NAh+3BC3v3m97wQIFknRDyCE3Q4XAULYEVvf9zUAQsywmwZc2HbaoZa9QIHXueF1y1baAxIVFUAgan41PYzt4AoQ7ISBPh3iIDmzF1F48IrqpUmwj1erqdSyr6YnnrCFzvZs2IDexPNNLw3CnXf2Qi0//tgTEtPAnhjnq1/9qvyOqt1wbo4eAMH3uu/efDdLhPZc+QAEkdvmQujjrgQIdPta8Vs3lpq/21Y/kOCYSn3BpADCFW/YiUi6omJexCJIpGJIJhm730BptY7CZBLtn26Xpnz/LQ/C+HMD1UYV+VQBjVYdjXYDV+y5ElunZuWdI3PHcOrcSVSalW7zi+lx7N+5Dztnd8jvHjv0GF45+wr4+1a7gWqzimwyh9e97jq89W3+AEF7/kxOBQHC2dLLWG69hLHpLOrVFsqrdcSTUSRTcQGu5ZWaQDVx8DEgaeSz+QRq1aYQOflNPB7Dts278UvXvQ+thtENlHTppZeqsfn+9z1Jin1nu0sHguaMJEWuCcZVcNNQWBoUN94Bq7OiO3qN3drqKo4dPy59ushBCLPC1uddDYBghVrur9CuLg/UINzNZE0KoXcBhplfQB1o7p2xDjg5Z+jmx9e6twMLIHSERUszw6vhKVfKEjmtS1J0dK5P8JsHqPTTw42xHwzoG615iI4Vx5BM6Ptsn6/xI6mMNwHDlmCLdYm7mNml7kHUpzpQE26NgZV10VoG/N49DsJnJWwrSYpBbo40MUiwLl0OwvKil8u6/vB5TGOQ6cGqoCMUHHcOgtpPqoLzBRDsHXUj5XX/7sCnXloJmc8+MKsAwuzeHHZdWRBAwL9nckkk0wQIHVRLDVk/yWMH5Sb97Td8A+0/B2oU6Ikc0ukUUskULt19KTZPKv/8J577MV45c2IAIFy+7zLs27FX3nnxxIs4t3QOc2dPo2200Go3BSC89rrX4q23vmVgjrvcCJdDzM+2bpkYlhrHsGocQ6fFMMgd0RKkMzSBRFBaqaE4kRZgVF5toFZpyJySG0FNAn+OJaKiLZwqbO0CBNrrqTm8/PLLZdzu//a3kclmXTkI1ri7cSfYWStiotvi5rddkmI8LkmbvB4rO6Rdbljz7kaAtMpZJUA4ehQ/uggQ9M+XdXxTAyDQzdHc6S6HN9sSCBBMDoJzD3XPD7vk72Ov9x1Fjm4rV8dOp41MOo03Xf+mdRyW4YuiS85LL78k6L//6Z2WA0LfRiWQDWvGRrCIUyZ+MItzmCfULusLQSwbu9nBta+9VrK5/awfMqmfevoplMprChCYA6Dj4md2T7rgXD+eHIQQcRAUB0GZq266MQRJ0RzUPqHeBTvqjyE18IPCx/abvrICNAjWZ32Exf5FNFhXHznWW/PkBATDAgQ7IGAZ7gAhi5m9FJBx0RxQA8WbdaXEjIkkxiVQOP4aISn+9yvu7QIECs5Ld12K/dv3Y3J8sptF8IHHvo+XX3lpACBcd8W1uHz/ZTJhy8tLAi7/+Qf3CfCg8CJAuOba1+DNb73JdSt53Y7dyIlWARZAWGkcRyV5UsBOo9EywZ2BbCGFZr0t/2UKSRjtDkprTbpjCCAgSJreWkQ6G8f83Bqmi9tw45XvQSySxA+YzdEKlAQIJ4ERR604CG4mAGXWU6vMCWz8TAyWBoEchNlZpamxynAOllWHpVXQOZfI07jo5qgzUufnnWCAYMZBkOrtyXTMmwqPksBsjqJB6CVrsnelZ0/v/dZLcPT/XhGNCBAYFIWJgl4NT382x36CgFe/uHFoS5QLtUMK9h3VIWw0r043xwUlNTW0R865dLOWMMKbZ6jlUCRF3VDLARwErwVoB4BeQt8zlt4g0DCo8Ih6axDcAIICLN6QxX67DzIx2Lu5HgBhcNiUBmHz7hxm9qWQSMYQiUaRL6RQLtWVx4H43sdQ/vEm7N21B/948B+6AOHW198mwGC8MIZMISMkQzSAR37yCI6cOILl1ZVulVs2bcaVl1yFA7sOSFK42loNrXoLc6fncPzsCfz4+SdEI/G6f/V63Pb2X5LvnDfersbGzDvg5CK4LQuLg7DaPoFS9ChqtRaZp0ozQPCTiUv/qpWmgAeCIzEr0O1yIo35U2Wk0szAGEOz0cZYegY3XkWAkJDQyvZASSRO2wMlBXEE3EiVbn1wchDskRSDTBN+WgN7XRc5CD9bqRYMEBI2DYJHWwM1CHffbQMIDuury4VYsIhD5ThYtXJ15EYr5HOvPoAQNzUIZj/sB6mb3U+9psam6/6oTnV/lfaA/VuV8WoFCGIqssxEJtlsYG67AtURTMrxopgYshsZatkECPqWHvckqNa8Wv3pms3cRKXLposAHQKElmV3c9+YA7f9AICgw1k5HxoE914b2L5lDJOXxBFLR8XezuYzpC/byX/THn/ygQT27NqDb77ua12A8Ks3/yqKhSLyuTzS2TTiybjsIWr2Xjr2Eo6cMM2dAF5/1bXYvnU7Ns/MSvm1Sg2thgIIZ5bO4vCJw2g12njNtdfg1l9WAMFvnPzMCvZ+WgBhuXkCp9cOiZaE3AOjrQiYmXxS2rO6UJUzLpNLCSlzdamGZComHKdmsyPv0URWXWvi+svejYnMNsl2yNs8XTOpvSNAYKAkki2DHp01YJXBdtk1CEFeEn51W6DFCa5oYmBGx4tujkEzd37+rgEQFAfB7QZnXXaDAcJdeNlM9xzs3jd463b/RuVkeNUCBPFiCGJwqUn14hL22dxt2huRLwH661cnQJjvreKundwF/7gOiFoXPSVKRG5W3gChpsVBGIWkqMsZ0N26TuKi9e8BDGhpEH4GAMHeF+Vpo6eVcCJdf0Gk5nr77BimdybRzreRyiQVeY/CXoBCBI16G8e/o1zsDv3Ks+4AIaVMFEYSqK5U8cLLL+CHTzzc7cZv/uv3IZ1LI5nlC0CtXhNCKwHCcnkFpxdOY2FpEZdecRC33KZIisM8zv5akRQXKkex1DqCCAV+rSVtJdcikY6hUWvJf5k8Ez61UV6tyWaJJejmDQEKfBrVloCEXHoMb778/QIQ6FHAQEmMX/Ctb31L9okOQLD3zR7MyDIL2AV4GA6C25g5gyW5ERYvBkoaZrWt3zeBACGWiBpdEp2pBndWHwgQPn83jhEgWLdHh69vV+AxlGrEkUSEf2w7gnR0mX4WQNgYE4MbkYebxL5pxMTw5JM2kqI1WkGqgP5R7ZF5iAZiChH03Vw7TLjguRI2OlCSM7iKfUz60j335Z4QeKS1mt2sKwyY5ermSC+GronB34vBioPAZtx0kz4HQafVA4Ldo6c2C4S8Eaig0AQIzuo8yYsKeoX2egkHEPxv3m5Ds3PzGKa2ptEea0mY40iqg1ZDxUAgWKhXmjj3aBrjhXE88cuPYttdO7F76y48+fzT4gbI9TFeLGDb5m04uOegLLXnjx3G/T/6dre6f/c//LtuEqiHnvwhllZXJWFTu93C9PgU9m3fi6dffAbb9mzDW265WWut8iVqOuwPVep2TxqeG7SvL1SOYaVzVHGWosq0wouBQTsSgzXFo5KMSoJHct47HIM2csW0gAJWs7pYE4CRSsdxYOaNqC0mpP8333yznE3f/MY3PEmKXh2ycxJkl5rnnLWvlVm00w2UxEiKMz4kxSCAYC9f3DvN8bNMDBdDLWsvvXV9MRAgqDgIjqePrKiTzVFFUuy/AQ72I3Lte2Bc9Y6BPxif/pg6OLv19m6S3DiFQmFDTAxvfetbJTWs/aGK7dvf/rbke+fT4yDQrt0bOtV29e8BnsHAjdkmIvJTiLz1E8CkcsOyoiJEnv0m8NgXTNA1OEUbrUG44YYbJPY7H8bvtnLc89/uoZbto9iLexB0s7SGkQLNEyCQpFgzkzUFhFoeiaQYKMmtGVP/6wQC9t+pmdV7OAY6JobBbeuvdgqjXlZtD6NBCA8Q9s/ksWlLHtV0C5FsDEh2kM4mZP+QvEdpevqhRBcg7PvCJbhi7+X44nf+e7frhVwek8UpbJ7ejHa7gbNL58RTwXreeNUbEIsmJFwz+QlrlTXUGmov79qyA9ccuAaPP/cEtu3ZjltuG/RisI/x4H43598Urva/82fmYlhpnsAKjqrJN7PbW6tGwFBU5aXgQ56S8l5QESAJKBgzgfugVmkKTyGTziGLWVFL3n7rh+S7733ve6JBCCIsOy879nPKDm6sPjs5CHaSotdK9uJnuJXPMi5yEPTOhPP11nAAodsatXADSYqmF0P/cdmvWpfFOLkDkXHFhI1wU+2+Dvj1/wj80WUwfuNPEfnMx/q1CUx92zY2DCAw1nm5XJbAI9ZD4ceMZhbpxgII1qYeVMEOejOI0Btw8TDfi6cQ2XwAkWQvUUzz1t9FbOUM8NJDMK79VUT+mzoI7M9GAgQSRDkOL7zwgjSBIOq6667Dn/3Zn8m/ewDBJCm6mBB0PRrs92uV7jkzmO75s59BVXIxBGdzHDaSotMc4NgS3aXu+Z5jvnTfsz7rxII5CM414UsoDLCtex1AfjyHwQBfuhBI1XZgJo+dW3JYbUfRnG4jnouILb7VasuNm7frx+9dwu6tu0WDcPCfrsBrLr0an/ryp7rNZTKneCwl26vaKKPZ6Y/5z/an4xkk4ykB9NVmBc22CtV8YOd+vPHKN+Ghpx7G9r3b8LZ3+Adj8yLeeUVSZByEc6WXsdB4STSONJmpEFVMK60uGOomHxVgQO0BNQU8W0hOZHAl/p6xEEhqpMlhbakuoIL9/cg7/3f5ngBBcjGMkKzJDTzaAYJXHIRRBddFgDDqCI72fSBAGAy1bKtQGGd6AOGY3YvBcpw0TQ12zUC39HQBuOEjaO+8BrEv/wfgE18A/vRGoKXQfZfotoEaBAIECqXHH39c2kCtgfWz1e5BE8OgolnPS8M0KTiEaeSyW9A5+BYYc88hkh1D5C2/A/zxtb1JMQ8VHhy33npbn+vRaEvF++uPfvSjAg54ENH2+a53vQtveMMb8IlPfMIBEObNgBYe4jDix9brjaP1Ew9OV4Bw52dsJoaASIqmmyOZ8Tq5GBatXAxuDBNNjYJzJL3AgR9oeLUCBHvfwmoknONycLaAXVNpLHfiqBfa6ORbKI4z30JHCIrVcgPNQ1sQRRSP3PqQD0BQsUCqzbLkXXA+FkBQ7/QDhOuvfBN++NTD2LprC24xAyWF3Udu42CRFOfLL2PZeBm5QgqV1br0i/NON0bGfOCS4s92LQIBAX9P98dmrS1xEXggMo4C17FFcv7grf+rAAQrUBI1rX5z4ssncQH17AMvR/zOAghBc+6WCIrj6aVZIEC4SFIMu+LW7/1AgBAXLwZbuF+XqLfBHITBUMtWF9RidnRo7xvQue7XEHv5UeCpr8CIJxG55t0wHr2HWYj6SH0baWK45ppr+gQuFztJQNQokC3Mx25i6Hkg9B/1PS+GXr+5yexjYTk1dOkW/MUNHwbGZhH56beAY48D268Gtl0F4+HP9X3LUjdSg2ABhPn5eWFOk83MsXIFCG5r11KvdhdFDwD6aWCUBsHNiyFcoCTe3jj2N4fgIPQJQts//HgHbgr+cHdqVRHLGQYg+B0bbsIh6LCXtviRFL3Yt5rn1xXbxrBzIoWyEcNarIPWRAuJWALZKeXiTBV8+sSlksr5/uu/iYP/dDmuOXg1Pv2VT3dryCSy2DQxg73b96DdaeH04mkcPna4+/cbXnMD4tE4opEYXjj+gpgY6qaJgdEVrz5wNR5/7sfYTg7CL73ZV8B6CT/PXAxLSygZJ1GKHVeagigkkmIqkxCg0Gq20WwozQHBgjwGxK2RmlPGTciP0UsjhtJStXuQWp5CH7j1D8WW/73vfrebzTEIIHj1wTrf+tZ9QKAkt7XhlgiKZbolg+Lv6cVw/GIkRc0ds/6vBQIEpUEwj7a+G1LvaBsGIEiZtvJUBlcDSBfQvv6DSL7+36D9n0zW8MAp2vsFc4sU8hvDQXAOP2/LH/vYx/AXf/EXKJVUspf+OAjmF45DdECI2Nz97O6OMiJmVyOTOxH59f8TkQf/DsbhB2SoVOY52yFtK5gahNs2UIPApC1MgsN478zoeccdd2gBBC8Z0j9kqmNOYOWdrKkXavkJ3VDLupEUbRoEc8W67kp/a3/3rB/4VlcJYQxhYggLEIKOG0sF7vWeDsDwq4MA4cBMDlWmFTaiaOXaiGajiGUZepkugR0Uz1yNbZu34FM7/ha7/2EfDuzaj/sf+W632ImxMezcshNXXXKV/O7w8cP41sPf6v79E+9VWi6eRd975LtYWlkRkiLV/JunZrB/x34889KzQlL0CpRkFeYkJlq/p33deUPm2DCbYxlzOFt7SSIpknjJUMl0ZyQgIM+iUWti695J1GtNLJwqSQAlHgrUKrSbBhKpKDK5hAAJ/o5aBInK2GjjN2/7A8RicTz4wAPKi8GWzZF7ld4fdt6BXaD7JWmy+uXHQbCTHL1cP714B/Y1MYyJIWhdBq3ri3/vjUAgQIj3BUpyv+8EAwRbHASRCB73rO1XAVe/C6gsA9/7ZO8UTWVh7Lsekeful0hi9mcjAcL+/fsljPLc3Jw0wRMg2LwYrLZ2MZb5gxcQGFicqRwiB94E3PjbwDf/H+DII71bzMw+RGb2AiQs2p+Isk1uJEBgprV/+Zd/EX/l66+/XhsguG3Gfq2S95082IshONRy181xSIAw6mHi3FG6ng8GFXvM7TOMCsKl0UH8hLAgQGnERmvclduKuHzbGMq1BlabbZSSEWAsCmQUi5+BhF75bhpXHbwS/++BuzH+t1OYGBuXgEMMMZ5IJlFgFsOJKcxunkX7/xeah48exkM2N8c7bv+guDgm0gnUV+vi5sjb7Olzp1GulXFueR7ziwu47IqDeKvNzZEClrdhL95BkPCz3BznKy9jLXoU6WwSy+fKog1QpoUIauWmgAb+jqaDyloD0XgU8VgEDF/eve136PrIXBUJVMp1JrmV767Z8xbsmXkNfvzjH0ugJDeSogUQnHPlJCy679P+bI72QEl2EMGyvMwsQfuHAOHIkZdhz+Z46NBzvp8FaUmC6rz49zAAgW6O9ts+b65m7vQwcRAkF4OHBqIrRG//P4CxLYj80/9G/aEVNghGpgh87C4Y/+lWREwCkfUN27JRGoTf+q3fAtXo999/v1TPDffe974Xn/zkJ4W8yMfLi4F/89bG+oiFqV3A73we+K/vBZpVRCzXxlYdxhs/ANz028D/ZYaZ7tojlN1yowDChz70IUn7SlckHpjMQ/+e97wHv//7vy9jEuzFYGpBTG6KugGYM+w2aF3NibubYzdZ087dePzx4GRNkpq7Ay0OwpKPBsHPhBAk+P00Dm5i1qAXXZubcX2Os/UGCKO0ygIXV24tYv9sXs6btWoDa5EoWuNRdPJN5MdSSGcSOHRfG9dceg2+fPU/ecZBiKfiQAKorJRx+MiLePjJH3Wbd8sb3oLiWBGzDJQUA2rlXqAkxkD46dGfAp0Irn3dtbjt7bcOdMu6HTuFUlA0RYuDsFB5GdXUCUUsjEZQKTXlmOR/NCEwtDTLZvwHejuTi9Com9qCRluIifyO+53ERW4XujjT5XHT1FZcOXsbnnvmhUCS4jBgbliSYtDY2AeZJgaGWvZO9xy0s5x3p8GdNkzfexc/953bX2Z/dtpR9sZGfxusQbAAgulmMyjoInpeDCQpOoL92JP1SMd/+Q9g3PLxwTH40xtgfOiTwF/9mgAHu8zYSA0CG/bOd76zm1qaLOQ/+ZM/6Wuvk6Ro/6Oo3WQAe7/tHv6DP6iX6N7Ivm+9vH9cHvhviMwfg3H9B4D//M4B5/mNBAhsGIESNQd8nnjiCdx5553d9nrGQXD6/A8Eg3LGfuiJSovdvT4kxdE4CGE3bZDWwF6ek6ho/Xu9AUJQH7wAxCiHq1edFkC4YmsB28ZTKObSWCrVUItEUY1E0JppinYgOxbHS9/uYM+WvfjuDd/uAoTbb7pdIiny4pDOp0AffYZafvQnj4orI80I1rNt8ywu33859u3cD6SBymoFzVoTR185irn5OTzz0jOSi4EAQSdQks7Nm3VTSPJ2zEBJ56pM90zff3oxMABSFPmxjJgVJMPjSl1MKslMDIXxtPAPaF7hPY2mhU5b5WzgIcDkTWLnZ1gFRHHN7luwONdAKpXq5qTwm2u2n5cdakBYTpCpgRcCKxGTl4nFXl8vHgQ9NciroLnEO54Lvz1z9qwPQHD0JlBptV5MoKAd0/v7sOBbv4bz92YgQEjYTAx9Y28zFQS7OTpJih6oj+r0ZHagt0ZpEaAWgaYHhxZiowECNxptd3y4mSzugdXoQIBgtt8iIarvHFwC2wgY3OmZMRhRXhkVwBASUr0igZKMRBooL9lAk6pgowECQ7mSycyHhwsDFVnPoJuj24J22dkWoDJf75llVB8VB8HFzdHyYti9G09oxUHQBwhM5jPK4yXwWWbQXciLnxCgmOuLPzJK2zfqWwsgXLa1gB3jKRSyKdTo6tisY9GIoJlqA/mIkBWf/uoa9m7dh8dv+1EXIBzYfgA7Zndg66atyBfzIhyZSPShHz+ElxjroLrW7cp0cRrXXHo1LtlzCYyogYVzC6jWKvjKD74qeV6sZE1XXXMVbrjZPyEchSnfJ6GPwjIop4HwEJqvYKXzspgVqmUma1LJ2qgxoFmhbQanI5GWvIJEMi68gyo1DVHFVSCsICmZkSXVeyQ1xiRscy4xjanYZd3++pl+2B5GbGy0K6h1VpUJw2yP0SbvQ2n6GO2x3WxLbghJSx1XoIQp5tVZpm7MNAHxHbpsSr0kI9aawu+IJNvmaaY4F8IpMZQZhdoPZrW0yJiL51bw5EMvYfu2HaIJYaTIUI8faLA2TyCwCFVj38s/zwDhxRdfxPPPP9/VkLNjTP712GOPSbybSJek6DOQugDBaZL0IUAPusN5xAnYaIAQtExcSYouH7m7OtqOett4229p/SmS+4PP2IdoI70YgsbEDhDsfXESVZ3lOAVf/7cWQPDIxVBjqGUCBJ1IiiGSNS0vBQY8cvbD7ezxIyOGObOGBRX93IVe4LGgudyIv1tC7PJtBeydzgoQjKdSiLSaOFdpYI04NB+Bke/guW+XsG/bfjz59sd62RwjERzceRD7tu2TpE25bE6a/eDjzOZ4ZCCb42svfw0u23upvLOwtACmbP/6j76OaDSGVkule7708oN43RuVO7FwZPqCGqlRsXgHK8bL6ESUsGdfKEBpJmGKaol+mIghFo1IPId6vYpYpilujhTqC2crQkxMJGIS+IhAv1lXBEaqDJh/QYBBKoZULiF8C2oTGvWWJHHiszJflWyujJmQG0shEc2IQG/Wmb7aEAAhaaLpEkkXSsaUSMSQzSelHEaRZKprfstySqt1MedQkFNTQcGvxkH1gb9jHAZqO1hHcZIxW1Qgs/JaTXEiUopHwfVKTgWjQ3aabTZf5dQxDKTM0NHUpFRLLSQIFNIx4WK8+ONl5KObPQECi/HhsntHvfehxEkn10Xh4G6G8JV/G7HRNOoIBAhdkqJj9O2H9ZuuvwH33nuvxPomg53xs63na1/7Gu62AiUNaIzdb43Wt85hdXIf+N7PK0DQmBvXVyx3yAFB2/e2ulFsFAchqC99JgYnF8NllwwIPY+d/zPxYjA1CO5bPmgk3P/u1CrY3woCF3416lycrO8HNBs2k1e/5nC4Pob5yrpxXb61gCu3j6FSbyIWTyAe6WClVMdCNAojE0Gr2EDpSQNnVltY/u35LkAopsdRb1VRb9Xx2oPXYueMikL67Es/xan5UxLrwHoK6TEJp7xjdrv86vHnH8crZ18By2DApFqzKgBhx+Xj2HddEY0GhWFCbu2tpiHBmmIM+2zGJsgWkiJsS8s1iW5IrwPe6jstQ0wGFO5MI01NAMF+IhOXREuVtXpX8DIAEvkE3G/HbqgAACAASURBVMM83+IJlb6d5x+FNgU6v104XRIgQc+FTC6OaFyp7OuVhoCqNok1BstSADiRikkZ/KZWbUj7KYwpnCUzaiEp/ajXaF5QGSSpFUlnkkKKrJWaEt09lowga+aHYPtyxZTqb1VFcyTQ4ByWVqlJYXCrhPApJE11SyXaogsn/ytOZESwMwYEo2QSSCSY6E7GyUB5tYFkku0GzvwkiUQshUOmBkHHVDe0YkCncLfN47vQw58ao4IINxNgGI1GMEAwszm6xcK3xiLQi8FK92yp1zn4LvEP/OpQdfVs+N1ASYaBfO5n4+bothbsJgYvfp3XpPuRvi3fZp2Dlgtgo00Mfu2yAwT/Be93rzZrsBVAG6uvieF8RFK0mRhGuVzoHBXDCnivufCq0w+gsCzPdvj8YRQHBkuzdOnmPK7ZNYVyjd4FDYwXMlgu1VDuxFDNRNEuNjB9Jo3Hji5j8d8uo/Pnhtz+E7Ek2p02OkYbU8Up5DJKgzBRmEQukxV3XOtp1JtYqaygXFVuygsrC+K9wDIoFFlGIV/Elr157HltATGTCEhBSkEn/0lEQyV4eeMtrzXEi4i3aoIFag54E6UWgLdqau7FJED1eyImZRBAWAc3QYBK1NTs5mAgKKDqnRoEBoii0Kcwprq/UqqbKaFjqDNwktRDsmJHqfcpbDmPoj1Q3AI5S6MQYU5tAm/+tUpLzBTUePD3NF8wQRTnUm7/svcMKS+eYIZMQ0WAjFPgd6Q+ggD+3rJA8385Juxju0UKGTUUauFQI8ESyaPgzxwrlh+LxwU80NxBgMP60rk4YtUpnHmx0QUIXfkctIA9NoTn/vVa1041RZD6zqp3lINioO06J4c+cnEDC3ZQEchB8I2kaLZDByAEZXP0AgeDZgmbGsKMBVB4tQGEp54U5Oy6gH28GdwO1QGBavNUkMPb8RE3E5+NdHMMAi2BXgwD5iNfsdStzluDEDaSYjgOgptW0m0M/M4Z5/tuZ9zQtx+fCfEDCUHnWJijSa1N94YEERutNbx/Uw5X75xArQVUSiVMjmVRaQG1RhuVdAR1o4UdnRh+dGQFpz9SQvvPOyitUdC7s8avPXgddm3egaxpcmDrllaWcOjYIRyZO+LaWApThijeeqCAnVfk5AZOcmCrTh9TJo1iiGQV/ZB7nkCBe684le7exilsKdytmzIPZWohqH6n6r84mRVtA00Jk5tzKK3UlSo/pW7+QjiMRSVqIgUnhbXY/SlgKewZlr5FM4PiIIxvysBo09uhJbf68amM3MBZJv/OywNv5gQZVONnc0k0mi2sLdYwPpUVjQLrKNBUwLIJLOpttA2lMSF4YV/YJhbM+aJ2hA0lUCDwEce3CDC7c1zazABQNC2wTVaMBJIrW3UVu4GgIZlheda6iSCeInEzinwxjRYjS7YmcOLpunAQ/GRz0DoOOq96B7fLm0EVn49Ny2boghFpcjgj5aD1vteJQIAgJgbz/T73M9vY6QCEo/ZQyxozNGijt0IP24SiZDcDpian8PGPu3g/aNSz3q8wrOl3vvMd2Yjh1UM+N2hHYd03ba6B9r7wILvjg3dg9+7d693F0OUxdsQ999yDk3OvyGEiT3eCzX97rGkn78BeuXccBH2AEDYOghtJ0dpOOttS5/DSEcT2OsMAkdCT16Wd+X850AbHL1wxoFWk7V2VhEuNAAHCVTvGUW8zFXJVNAidaByNegPlOLBQb2B3PIETSw08/O4zSP+1Ig83xFVQZxTVUeo2fvx9LBlDPK3s7bN7c9h5dQ7L5yoi5Ci4yAOgCUGoefQqoHcBwQNvvnxo4+cfTb4Cb+p8hEdkeYUJAFCtEIHLM61tSN2lpZq8l59IiWpfAiC12goUkPPQbCOXo5dGFCXe9DuQNNEU0ny30+5wNOVducXHomKqmJ8rCeGQ/ea/03lqA3i7p3YAAjz4Pb+VtkYhnAn+TfgLcXpUxLEwVxazBX9WvyffIoLyCj3NIuKW2WkqLUYiG0OzwrYrwc/3xWRsZq8UrkZCaVLYFpa5ulCVMRWTTiSCzdPbUV9MaZEUdfaZ7l4IlM1BGgxd0OC3ZL1uJX51a9XrP1LBACERlTPa2rTdC6xUrloQGiD4+Lb3B8lRU2hXg7gFGMpmcnjzm9+sO9/n9T2x2Rx+vk+DoFthfz+1ZnegaEvucmMxHwKDOf2sH7K6yXpdWV1Wh6HNnTHYHqbGwU3D5KlBYDbHqpnN8XH/XAxhAcKS3cRg21uybkcc6KBzxl68c3UE1e08X4LqcoIeZ9dGPpdsBXrB4oOb87h0toBGJ4pCOipmhmgyjUwMWKpUcbrTwZ5kAqWGgUffeQqbPlMQQVYt9zxo0kkKF6BaVzkYEvEYUsk4avWm3Eq3bxrHSqmGtWoNhawi+fEZy6VRbdD8UMNUMYd23sBypiFqeCEA8uLeMWMPMCyyZJekYIup8Miil1dxC4SYKGp4Fd9D2P3lpgjJVC4OegjQW4AAolVTqnqWL9qKdgeZYlLdtBttpAsJ+Y43biW7oyo+gqmxJLig0G5UW6iUGkhmEors2OyIYGa5tVJLeTkQZNTaUj5jarTONRDNRGHkYqhXSEaMChhgxMZYglnnCdRIaqQnQwxri1XRClAL0ay0hItB8wY5FeQ0xNMcF/U+zS3N03WAF6fJOOrllmhbCH4IdHheUWPC96m9SGbJzWionzMJ+d+Z8e1orKS1AILIDcei1TlR+9aizgdWHUEbsCcu9Q6K9dxgI5xLWgCh72AaJhfD3XeBJobu7dEq0KYmcBMU3CBKHWUJiN6oWXZKSYEq7jWvnkflafdeMVZfrduxk83fDTs9RJesssQeSIQeZpEPUV+YT2hjtGNDOUPNNeANFHodcKqsqf7NZV28GCyAQA7CE5oAAZq5GCySYsDpEyRg+8ZtmJMsxMAHLYGw1QedhX71OW/sA3XbPqYXw2WzRbn5ZpMJLK5V0Ww1MFnMY6lUwblyB7smUqi2gGdvP40ddxVkVNYqDVlXdDPMZVIipKtiEiBAiApAqNQaotreu2UK8yslLJcqmCjmKAVhRCKYzqVQqtWxuFrF5sk8SokWjrbLInglZgEZ/TVlBogjiuacuu3HdqZRWWnJWZcbS6BeUVwFEvsaFcYM4A06hmZNkfYoCAku2G2CC77DMeGNm+cazQ758RRaZ+pozTcQP5hFrUxvgQ7yxaTc9kkqpDDnuUHwkEgroU5eAW/iBB7V1QZS2bi0i2TDdF65JBMI5MaSQMNA80QV0Xwc7bGYgIh0Ni5lkdfAkAWcB9UHxacQIJBU2oTqSkNAAzUu/Fk0LPk4mlVlgkizbydqEowKmxKorzUFCI3P5kQjQ60HvRhU7gkDCXoy1IicqEGIi2ZhZmwbGqVsH0DQ0drZt4oXGHXbTl7aJc8z1e8y7lZY0MYL2iy6Z0DQAeBTjhZAsGuDu6q77swYwRoEejFYJganzdyhTbALDUGBLoPeFahmxz1tmg57vau01NJ96i2rQb6EbeTtPv3ObJYDHXWf0YF5sM2BKqLXTqXgsZXjqrVxrgy9lWTXKPVKCPrWDvRU27pC1NUWYw6S2SU3e7YvQKhVsVuDpEgNggSo0U3WZHNz9NuffgBh4G9BB4XuQeCiLtdZuX7VB51RfpoMHS2H86Jkn2d6MVyyZRzJKG3fcSyV66hUqtg0nkO10Ua5YWAsrYzdD/3yK9j89yqGykQxi2qtiVOLa8ilEshlkshnmc6ZSYFaErrZDtLpJUFtwVQhi1ZmCu1EFqnVE0jS9S+tUkWvxVuYTzRQryi/fgp5EhXlBs3YDK+QzGcgsjONxlJTbs3ZmZRoHOSmT28B3vo7QLRpoEGTRBQCEDqllhxNsWIc7VUFLpITCeEMUIDzlt0+10B7vgHsSaO91kKn2kZ6Oo1IKirxAmKmKUDsHZU2mnR9jPSIkq2zdcTGE4hQkzHfQHpLRl4tr9TEMwJNA+2TdXQyERjpKCJLLSQmksBYTG764hABQ2keym20T9exlldAQUwAJ+owijFgLC4/x3IxJLZnUF5ToZ8JTjpzdRAKtQsxxBZbiDQMATwU/iyfro/0WIgaETReLKNSAIy40j7EKwa2FHegFsvhp7Y4CF5gNQik6uxdOVMdLwadciG2qvurOptm5Eo0Q7RHgJdefMk/DoI9UJIlc5xchEATw+fvhpXu2Yu45ClobDaNIMblAJoYiMwXPLJOE4ezTicY8etP99tAvZVNsDu1Ko4TfkDrEDyg/Z22gwhTDeo1Kv1919sagZjEp5hu0yxs4LI77Z97AoQ7zWRNO/VyMfDA57jqZHMMCpTUJ/B8The+F3QTH5iXriZtcMZCl6V/RnQrCzq7nMBH932rAieY+fV4B5Fr9yKODtpGBNVmB2trJWwaz8KIxrG0VkUmDhHkT98+j8m/S2F+qYTJYlZAgxDqyJrvKNc6ag24PjOpBGbG80inEjh2elG+p1thnK5+2awE/Doxd0ZMEPVmG9PjOdTTBs4aNWChiXg+gegkGf4N5UmAKNpzigPQmk0gdraJaCKC2I603ORVdEVD3PiMagetuRpqcQPtbER+F11siRDtbIojOt8StX5iuyI50gOiMJ5Ce76JzmITrS0JxFbaiFQ6iG1JAdQ0CF9AmTMSjDR5qo5GpyNtFg0CNR4nm+hMx2GwXadbSO5OC0Che2KGPAqaSM4pM4xBKkTDQKcQFbAQrxropCNopyJIrRmIdSJItaJYbtcFzBD8FDoJAST1SBuZ9BZ0OnW0OivKs4FOI4U4ogtNgCYEmhlMrkF9NoZE2UC0DrQ2xRBf7SDWBAqxBFYaDQENrCMTi2PHzj2Ybya1TQz2XRJ0egUCgaDF7HKI+oLzoPICEI6f5s31PPfpoI/FH4EaBAIELvD+g7/fkyAwUJJpYugeBH2NdVES+bD75Eajrse9cRjQQvSr1p0qfDd6tbdgc5/mgfFwwk2n0TysIKf4sA1NH1mPwsUi+5nj0QMOwSBIvdG/Yga8IdzG1FZ0Dzz05sEfLPW3y1Xb4gUMPJQhgRyEMCYGnWRNX/4SlpfcIykO7PfAE0d3nsz3HOUNjF/I4qzXgw5ON+GtU9Uo55+sTtrzI8DHdk3iWDEpyZcqjRZiEQNJMvERQzYRxWKpKgL+hd9YwtSn0jg5v4J8Ook4zRJpxc6nL380FsNyqSrHBiMzzk4WkEklcfjEWWTSSaSTccRjMSTjMbmNHzm1IACh0WpjeiyHesLAfKeOWCmKGNn2OQPVShNRMu15u6ZwpfseffhFKEbQnIwhvdwRodwaiyI5z1ZHkI0nUGu2UG9TWxBFNq6SM5VbTSTzm6Tv9fK8AAuq2zuzCUQJCtb6QxI3iyRCAIlSB+3JmCTvSqx2UMympO2lmkpBz2e6mMVKpS5AK7tlPypnXkanWZe6WrNJRAiieKtvKjDFp5GOoBNT5RMsdDJRJBcjSEajyKdiUp6YeDsdKb/ebKHWbCM9s0civTZWzoimppOKoJ4DEmsdxJRCofuUC0Ci0kG0YaA1HUeiEkOsHcV4KoJKoyngrskyE3Hs2LsPZ+pxzzgIg6ea48zxWbhuANup3XJ+rrt3PKsNqsDrQ/M7V+V3mDI1OhAIEFzdHPsMySQpvsk/UNLdpomhJ937uz6E+jvoptoVgKaOtOeKYYrHgRVh/qKrU+0fvQHtha953+t+6D0jLL/v0Hddsb3veypSZcd3t+E76gtYUb4mku6MBSmk7VMbUD9fHUAV/YDMr01+AIEpe3dRg6DBQdDWIBAgLC/1g2Vbd91mN/Bm74KPR93jYWYo4AySPwf2waWQUQCCVR+5+m8bSyK/YxztZBKtTgdj2RRK1RrqzQ7Gc2kBCIlYFD/51XO45AuTSCcSePnUgnKzA0T457NpjGXTmFtYERNDNqPyOyRjMbxwcgGZVBypRAzTxTzOLK1hrVKTclPxGHJp5RlRb7RQaXWQntyGTr2C2uq8lN8pxEQAxpZaEs45To4BvQUiQDneRqJiiJrcyEaRbhcF4GQjTVn3BB8U4vl0Asl4XLkXJvMq1kCjrNj/8Rjm2hVkOlFkOjHUJI6BGvBqRLkIRlsGOuRCJNJIRnPIoCZaFzZwtVKXtlOAq3gIUbTiWcTbFfIFkU0lcHRtVfoyFlNkReuYoOmFQMaMnizeDLmZfYi160jWFlHMp7FarmN+pSzlk9vB/1bKDZmTbDqOQkZxOY6cWcbsWE60NBZhlH2YX1VBq6w6U1PbEU+mkS7NoZBTpNHTi2viCLJjzz6crse7GgS/denUZllLNGhdrjcICLonBAETt/3pcmT4QJ/R/hRoYognoj44QzU1ECBYHARHSSLYbDdhN/KHn8+0U94FmiCsMKn2WXGAHdfIU+YYixAPGm/XFeH/ldNLYzBK4iAw6BPDLuNq33SDppfB9gQDrqE67vqRnUPS62uARsOhElfk1Yg7SZEmhmpFhVoO8GJ4/vlDQjoTDsKNN+OLX/yihHN1xh+/77778KUvKYAguGZIwdk3IMOcDmGmwQXEBh1YzuLDNFH34OqHgIMdsv/9UqODy/ZPoZROIZ+MitBYXquIkKF3AbkIzVYLz/zaOWy/syAq7bVGRwR1lrf7aFRMCRZAKFd5a44IJyERi6GU34X26ll0SgtYKtcwPZYVUDCRz6JUrePcsgqglEzEJT9CtdaSdMuZdALFTAqnl9ewsFrB5vG8uASulWtSPjkAK2VFXFQSEMhvO4hou4FEdR45hhs2DJxaWBWeRD6TEkIlzSB8spkkMsmEaEMeeu4YpopZTBSyWDYFKt9Zq9bRaCrvCWljbhyJwjSStXlkYx3p95mlkvRj01hW+BTUDqys1TBWSCOViGM8l8Fjh09I22cni2h12qgx8ASpDLWG9IMgwjomy+046K2ZS5BIGO1qWXZvnUS50gDHd2G1imw6gU0TeQFL9BghwXQsnxZtwMJKL5Jlg0TSdFIAGp9STZmEJnIqGiMfaino4kqA8ORcpU+DcD7Aq98WCzz/XT4Os4eCtrdtOfW9GtSugb3pc3ez/2kIgDB4xOhwEI4efVkdrC566IGLraVCMYdgAPV5rAo/N8EgAditI2ikrf0+gE4cU+vgP8gZMdDu/lgJVCf6Va++733jptL3D8EsM9C/sAIv+UHHeX+/gzgbYjnRAGVOC01fLeb3okHI+CRr0gUI68hB0N3gltAItcuDCnesL0/ti23Og5b7+QAUYTUcH8pGcGrPLKbzSdDaTsFVo4sg/e5jMQEIT//qOcz8fQaVWhPReEq8FQrpmAgo/kfTwZnFNdQazHMQF6HHG3opuQmorQD1Nblt01uCt3aaFfhuqcrbMPdcVG74FLYECnSDzKaSmF+mBwSJk3kR1PPLKu073RDLjP6YS3fX+wqjHEYh6nkCGI49cyPMmIKUZTGtNdtK4cp9wvvTmcWSCFGCkpdPLnRXAQ0O1HLkM6aWo9mSsNS8tbPP9ueSHTN45dyytJ/CetfmCTHN8FleqwpAyGWT4vJJwGPtUYKAQiYp0RfZrtWqitrI37MOjgkF+J6tUyhV6gJaeOMnz4Ngi6aTVieCWieCdKyDWq2BJZqF4rFuPAiWQ/dU9rHaaImmiK2X9NUyRh0xC23fvQ8/OV0dioNgH4uwa95t2wWV4fZN2L3kLIPf+2lAdLQjTu2kU2vtbOOLQSTFbi4GjxGmQArMxeDLQRjUMluL08ZP9KVUuWoOBtobKAm9Q791ywqYYofgG/hsgMsRdOIrQODnq+jUPlgl+o+dP6ZVRE3vG/0Ap0MhP/WN+ZksPC9SguZV0/VzW7MkfnzGLVkTNQhVU4Ogk6xJ34vBL1CSc+y7s+vU8DimfZhbUNCh5YJFBz8JaJe1+nRWqe47OoeYs6ytRgfv2j2Flc15dIwI6k2S6SLCRWh2VMKgR9/5Csb/JolyrYnJQlYAAm/kFCyMHEhwsFqpIRGPY2Yi113fS6sVMUNYN1jrxk2PBt6wc9m02PQJSs4srQqIKGTSmCwyIZEyPfCWnUsn5OZ77AyTefXCNI3nM3IxIMdBpU82xFZPLQT5BzR5jOez8neaHBZWywIuaHawnmZ2GrFmGdFmFQtrVQEAVOUrIKJ4EgQs1HI0W22sVRS3gP+uN1S8h9mpomxN8gVOnF0WYWxxDYziFok4Fykvol5X3hjUVnB/tdqqvLF8BhPSl4iEvuZ48lbPvtBjZHIsJxoP9uPFV87JbchSDsey44iNb0Fr8RW0q2tKWzFVlHf5UEvDOg5sJ/8iIm186eS8aIv4Lr1OaJqY3bkbLy21BSAMs450v/ES/mH36TAgwg0UOH83IOR1N98Q7wVrEKx0zx5qbNapAxC8IinmcoW+qGde2gTPvjkSQIms8htRtxkImkkdHZHG6unKxaD6/E5m27c+XM6ebNKpK+zC0RmPsGW6vF+tVSWb3sCUmfX7JmvSBQiH6eaoTAw3hTAx+K3Hvr+dj/F3qdx5aAwz/EFNHVhvQR84zUK2RvFTjS3T/eKDCaDxmu3g3ZIAIZnMAO26xECgNuAH717Fps9k0Fg+KyGZqQUoZtJYKVVEcI8VMjgytyACnTwG62mJwG7LzZpqfPsTy08gObENycppZKNNZBIJ4TFQZW498fFZRDMFNM8dg9FS5oE9W6akfj4UliRLbp0ek39TKzE3vyLCm7dmaiiojrd4EqcWVkRY2p/0zqvRWj6N1upZ+TVNAeRQ8CHoObu4JuWzHoIBlkEhTxMDNSoEDRTmxWxaztqjpxe6PAaWkdxyGYxOC82FE+g0agI+tkwW5QbPvrK99OQYyylQxLGiaUT4FvGYaFQIJmg+IFgjb4EaBGpB+NAKwhDZHJ9Gg5yItvA/uJ4K+TTOLpawWq5h/w4V1I1aiQVTE6M0G0ojMjazrQsQ+F7Qmg+6bYdZf2H2k1e7dIGHDpAJekdjaw50yW08gjUIDg6C260uECB8/i5YJgZnq4qFcbzlLW/Bzp07Xc0PYSbm4rs//yNAxvnKygq++c1vYnllGc1mj4nd651a/uvhxUAOgpWOd1Q3x6BNO8zshBWkw9RhfWO131WVGWS+cKl4PcdjIgr8+s4iTo/lwfxx6XQGzXpdoihSwP7g3SuY+fs06qvz2DypIiqS+EeVNx8K/2Onl8RGTuFNUCjCJ5MUd0lqBiyinXxXqcFIZGCkiyhGqkhFGcAogpVSVW7eGSYr4o08VUAnmkC7tIhOuyVeE1NjOamDavQXT86LKWLrdFHe542bpD6uc3Ig0umErGP+m7wKagQo6MVkYT5LVSZtYuKiDlbWqiKM2Qb2m6TFs0slbJkqyr+poVgr19FsK48H9o9gRAR7pS5ggc+u2Un5Pad1frXUVfYREFgkQinPAE4vrEmfijkFrMh74DjyIZiQQFBRlZqaAIV1MIIlx5zjzLYQ9FDIE0RQI8D3CAToksq/EbhtmS5KGdQglKtq3xNEUPPC8jdt3YnjJfSZGEYBCaPsFfu3Ojf69QAjQX119mc9QEJogNA3MGYLAgGCj4mBAOGTn/wkrr/+ejBm/8Xnwh6Ber2OHz38I/zxf/hjLCzMo9HkQeS+vTxJip/9DKh90CYphuQgDAi+YTQqGgbJsBtcpxmBpgeXSoPaMVS9AYDCWSZF3C+PJ2HMTkhSn0QyhWa9hlrLEHX5A790HGN/kxDhs3/blAigSrWBdCquBKFJIOTtl2YI2tUpxPdv24RjZ5fkRkyAQHDBm/YLr5wTYU6bPm/sEsK53uyq38lR4EOegSVQKZwJIHiJojAs5FI4empJbtOzUwUV3dEUfnyX79AMwls3f89IhRSUMXJr0gmVTCkex+IK0zrHpb00ifAd9s8iWjLrJM0kvFI3mk0xeUgUVQIYwxBPB5pAxCxBlX2lLgJcXEEJkEzOAdtJgEOtBvudTcZFCyFREU1QRZBhuTayfMudciKfljJTqYQQKRWJGDI3bAnngmCF33IOyLVgO6eLGXE3Zd8INNg2AgrrIsoxWyUPJBoVN8ezNi8G7ZNyCHCrXbbjxWGF+CgAIugS4bZ/7fX5/V0DIMQGuNBOLYIOQPAyMRAg/PVf/zWuvPJKuTlefC7sESB34P5v34+///Tfi8eAAgjuj3eyJjNQEkmKj+lwEEwvhpv8vRi+TDfHlWX/AJXDSFN2T+O7PqJtyGXieohoSPagZsktL6AtQQeYW/fdyry808GuvdNIjiXB+3wUKnlRK5LAs7efwv576OYYx2mq2Bmxj9H5shPgZbq+fAYZUYVH5FYswjUexexEEUfPLIkafe/WSYmFwHd466cWgaRDCi7ayyn8KMAoFIVUl03JjZg3Zgp6PgQIJOFRO0FeAFX7Fp+Hgtj+sBxqLii8yStgeRSkBCa8XbNOahNIIrRcCPkzhTdv8QQ5FLp8hw+Fu5A0mf/BnBWSCi03R4IBJYQb0mYKfoIYahw43gQDJHyyDMYg4Fha5EirD+KlAZIU1QwxNoXSvuSE9EhQQLMDQdP8Uhn5LIU/NSSQaJXNlkrXSDAhYadNTY7FVyCgoUZl+8y4AjjtDk4vrkqmyK07d+PlFQOHDj0XcvU7XncJOBa0hvsWuc6m0GxhkPDWLMaf3G4WEha88LMXXnjRP5Kiv5ujqjnIi+HztlDLTi+GiwBBdwlcGO+FAQhUPbqTFJnNsYZdu4IjKYqbIzUIHQM33/xmXzdHCyB0Z0JHtzjqtHmdXEMcUn3N1Sx3Pc0E9qHwAg12M4fb0H0oGcHiwU0gd4BEP56M7UgCz9w+h0vvnUY+ncJPXppTUQXJgs8UVTrm2ioMEvHIwI/HhJfA/7epmBeVPz0R6PpHop0kdIrHhU1P4VqtMzQzurEKyLTn7wvZpGgFKPTYbgp1/p6PgIqEuoFbD9X3olnIpiQYE4MKza+WxXOCAIBlsG4K13NLJQEIFNAsl6YE2va5TnnT541evBwkAaSaTPaHD83yPQAAIABJREFUfaUWxCIAkkxIM4uEn66qyITFfEbIlLzN8+avBDFv6nUZF3oo0DPCyjoppZvrhSCVLpkWp4Ljdna5hIlCRtrNPrIuamnIhdgyUZAx4HeLaxXFjRDthXJTXi3VhIxotZdeFGzj3q1Tql38rsZMlk1Mz8zg+FrEHSBoaORG3YqBSNiqYIi9Gdg2N7ufx0dhq/cDRxsCEO52cBDsN6Gx4kUNQuDiuIBe0AUIXEPrmqxJI5KiAITl5SDHknWdrfMioAPAQZCQHrWDo/SpYBj4t7sKeC6fRpJZFJkaOZHCU//6ZBcgPPTsURG0vJVTU8CbucQsWFhFo9USdTzt6ryJ06wgEQtBAVbF5om8CHDe1Pm/5ALQ/EAvBgp9CsfVSgNLaxWMZ1XERqrKLeFqaQ4ElBgGzAzOMmS8PFMQUrjyO96o5xbWkEkqdz6q9lk+gQM9JhjnYcukSkBFrQSFJ7kMVMFTuC+tqiiSjArJZ6VclRgDtOVTCPMpRXJoIAksn5CxYkX0SKBmhG0gF4EPNQq8qROQcMyoRaC7IzNW7tkyKe6kfJ56aU5IoeQ8yHfxHGqJcbTOHBbNjHhAFLOi4SDxcNumMZkH7lcSPFnn9FhesmdSg/LiK/PYt3Va8mvwee74WTFBUJsjoCcSRz27Gc3qGsYySZypJ/w1CLa1vV7RRrXW+xAARedGP8xe0QEIQSYGq88v6mgQfH3SNTQId999lyRrciM4XogAgaaUsTHFamYqZLnVJHo3DfuCXFtbQ6GgDoAL4dEBCNY6CgQIuzUDJWkmaxrQIFgTorMjnZOncYMPPByGOJTWdQ3pnjIjVuoch9vTEaQPbkbVULkSeOt/9F2ncOCeSbFnHzmliIFUTzN2QH8kxbbY3YUk1zGwaSwnN1sKM95c6U5HIMCbtKj4CSzmV+VvlvCst9rinshU0RTENAnQRMGHHgwsj1wIuhO+4bKdQrDj88Nnj8r7W6YKKoZAPIN6bhbNpTm0SyoAFwEC4QpJejRPzIyrvb+4WhaPha1TYwIs6Np4ZrkqbdyzWZ0ldBd85dyKEAoZHZL11lOTaMezqJw81DOfZJJCWCRJ0lLlczyWVsvCdZB02I0W5ksNFeNgpiDjwufpI3MCvujyKCaJeBaNxBjKJ18QUwLNCzTlsDxqFBjjIZdmn6ilaMtYMYCU5fY51yxiMlFDLqo0LwReErWy0RQQwjaWGx2UKjWMTc+iHM2NZmLQMKvZl6uOeWyU5b0eR0eQmSLo737tD9QguIZadri4B3IQArwYLjQOwhe+8AX8xm/8hszLiy++KOh8z5493XmS2PHmhmT0vttvv10jLfIoy/TV820fQFghB8HmxeBY6d6RFGliCENS1IuDQICwRA2CPehVwA53FfIuh5RXyAipy2t6hgEI1je2hg20UecQ1XlHY1kFgiCXMrZFgdv2TGA+lxDVOIXug7eewOZPK3v//m3TqNQbcvOnOp68Agp85Z5oiHqegpBAYNNYHqfmV3F2eQ3J4hRSaCCOtrxLIU51OzUG3I7kGbDbjA3A+eJNmERCClHewPk3Cm5Gh623IzhTjeHARC8eAN0sLVZ+IZtGMpVExUiiwlDH7YZwFmhOoCCl2YL8Asu1kP1iXIZjZxalT0JYNHJiXpiMquBMdKEk0KFmJG/GaqjU6VnRwcLKmgATCv9SuSa3fXEdzCvXRZ43jPdAkwF5FKy7FC2iiRgmsIqIykEvfyMoo9li39Yp0RTU6g2cW61KbAgCB2o2JCQKvUTSSSRMbgLdTgluaD7h72hmWQFDQ9eRZCIJ08uDmg72geYPji+9SgSgTW3FyUoUz5kchEDegLV2nOp5nbWrs7d0ynGu35DfdLV5Ot/pvKOxJ+2vBAIEJwdhUG0TwfXXB+RicAIEm0N1MT92wZEUP/e5z+GDH/ygHATf+MY3xMXpsssuw969e2Vu7rzzTtxxxx3y81133YUPfOADeOSRRzAxMYEDBw6EnOKfr9c9AYKLIKY6l9n37rnnC8jnlVvYXXd9Dp+9Ux8gMN2zFTAm0M3RMjFoEPPYFlfkHnDwjIL2A2da4wCRG5PO4eh18A1zJQpseP8LbN97J9Oobi0iEosJeP7h205i591MwJTA0dNLykMgRVKecssjE56kPst2Txs7b7sECBZJMb/9UoxjTQSWk1BIwcobc4+kGBUCHgUr66LnA4EC80BQ6JI4uYAxbMYCrADtNFvwZk3hSvc+hlGu1hrSNhIGad6g5kDAhgCCmNQpgjaVlL4dOXlOhCuBURPKfTFhClcBFx1D6rDADduiyIdtCQPN2/lSqYbNU3lZ9416S0wwlqsib+zUvDBgE3keiuHQm1SLQ8b/FVCRS8sY8t+8/dMUwvwKBAazk3kxVXC+SKS0QI4QSRdX+3IyeC0B9mPL1Jj0ITMxix/Pld01CH7rLmjde9n3db5za7juHvDbZ0F1s163dmtePnTBlRZA6EbVMxQRR9pmRc0zdHIx2OIgOE6fCwUgtBgO9umnMTc3Jyk0r7rqKpw8eRLXXHONbLRz584JqY4g4W/+5m/w0Y9+VMb585//PN7//vfjBz/4AWZmZnDw4MGQx+nP1+v+Job+66+3F8NnUKvVsFMz3bMABE0OAjUIuptrYOSHEbzrOX0a9Q9zo1cHgqOhuodk2P6Z9TBHw+v2T6I6PsYIPPj+rSew4668ZG08M78qApdCRfnVK44Bb8gElbxpK1AYkWA/5BBQqEbjTNxsiECkSp9CfPvMBM4xRHOzKX+hap7CbiyXkrDADHWcStGN0oyrkE6KuYEeBUEPy6HwUwGT6jg1vyJchmQiIcKVan4CCNr0rYfC+MziqmgKrCFm2wkeKKT5DcujhoH/ESDQBMPnFIVyrSGeB3TT5FEs7oe5jEwf+y3uldEYFlZKog3h+KlIkUnRPiyaLoxCZMymJDkWtQ18LO0DORQEYvSQqFNrE4kgmUxK+QQH5DAsrZXFTFNvdUyvjBZec2C7RFDkWFCbQq4G+8A+Cbly0za8sNQKNjHoomydNbpR69q5h7xsG8O02SeorX2Nup1rgQCB6Z7lNmQCg/6cBqpI7WRNVmtshVxIXgwECV/5ylcwPz+PW265BcViEU899RTi8bgIfvIQpqamcM8998iG4nPs2DEBDvzmpptuusABQn/0Zk8OQggNQteLAQZuvlHDi8E0Mdg3ln3Prgt40DkEgqTPCH8P6k/Q3wOig4/Qsn4g8juxNs5eswdRo4VH3nUKs5/OCZnQutDwzJJcCvGYxCHgbZc3aJIVrYeClbdrS8hSCNJ2//yJcxKymTZ6ulJWanUpi0I1Fo2DnD1qJghIaMIgwqTKnGx+Rm+kUBVber0pwnvb9BgOHT8rZWdTcYwXmDxJeUHwkZv9WkW5/UUJU1SOAwroWDIlKv4IOkJcJMCRiIX0bGi0JCPkgW3TYt8/dmZZNCWMfMh3yYWgoOdDDQLLo9cAhTDLZ/2dGIU3EO20pG1057QCN1GjQTdGkgbJh3jkuePKPTKTlNDIqn7likyzDM0NY8UcWmZ0SgUemd0yLuWnExFk6BJq9pvES7aFoOKNl+3Ey6cXZS74d4IEiXJqTpaKpNhxBQh9a7L/HhFuvXlpE8KVov+2zoGxgeeBE5cEAoR4PNqfz8EWb19GQUuDcDeOHj0yOGiRCC4UDYIg+FOnRItA3sGNN96IJ598Um66okLM5XDrrbdi8+bNfeNkmRgYRIoHRzqt3JJ+UR+7BmGJcRAaKq68LDXbRhFbLgPKjGhiUABBn4MgXgzmo3tRCZwrr0Ni2INhvW49LuVoaRjWq37nwLmM0/+0YwxHp7J47N2nuwCBiYnIQeBNXlwCzUiCNANQiNoBgrj/1ZoidK1wxLT1/+i54yBPgHkb+J349a+UuoGN+G/uW6ZPZvjniNEUgFAsZGShUhATUJCwyFwLl2yfxsPPHUdSgiMlMTOeF7Ik31Gukm1Uq3WkSegz+G1TtB3UdNCUEJFIim1TmyDuAqjVWwIASOjbv3VKQMZyuSZaEWo0GKuAXAsKWT4U+gQF5CWQS0APiH3bpvHKuVXhVRBc0azB8eLPJBgyqyUDMVFzQq0Iy5OkVWY4aAIqKw6DNV00z7A/K5U6Du7YJNoE8kEINFSMiYT8TBD1pit2d2f58ImzopUgSKI5hg/7T+4HgRUBwpHlYIBgFegail5nT+mo9wM3teYLw+79891Gs/wXDmvHQTC/sDfMHOwgDcJAHIQLkIPAQ+D48eNyGDCM8Nve9jb8wz/8Ay6//HIR/OVyGdddd51oFfhs2rRJ/tcCCPyZ5glqGFKpXix5zWX4c/OaH0DodUIl4BAOgmuyJsVB2L17Dx7XCpQ0BEBwAy06o+wmPHU2u847rF/3vaC2DlvOsN8Ftcfj77dlYxjbM4kf/MpZbLtT2cI3jRckhgFvtBKVL5qQfAnJdg21allcASmkqSbn3uMNmzfylUpNbskUUkyWxBDM9AqgacIiBhIYUKhT2NJXn2YGxlGQ0MPUIOQzov5nBMcD2zaJcKUgX1wrI51itENDhDoFNTUbbIc9MRrLKVUaWKvVJYLjntlJvHDiLMpmCGRqBXjjJtCh8J0s5qQsuhBSDS/5F8xgTmLzT6mARAzoxDbxdwzXzKObQGDrVFH4AOw/oxsm0hkkEimU11aweUJpIfgsrJSlXgprjjEBBRcbBT7LJPmQZFF6JxAgcG/G4jGMm3EWVktVKT8STyGVK6K6uohWs4FLd/YuRCfOLpmhmxmXpINYjOXHZIzLtZYAhBLSniYGV/A67HrU+U7nHbd1q6M1kBtRiE3hIpf9vh4YK6fmRB8gKBODetzvD0EA4W4GSnLTINAueAFFUmQYYZoOKPRJUqR54ciRI6JZoPlg9+7dol3gBrz22msHAMKDDz4oESdJVvxFfZwAoWmPpOi4Enime2aoZQEIu/H44z+WSGA071jPV7/6VfndM888g66JgRwEzUiKWmOvq17QPQTO161cqzOBSUW9T4iQB5duc6z39kYMXLd7Avf/+jns+rxKWMRH7O/ZtGQdLBlJJKd3oblwDNWVRQniw2yCtLevrJaFW0DhTiE4M6kAAsMwkjzIQEY76c5IU0S7LSRF3nAJGFKJBOoSeVAJdSMaQ27TdpTPnUQyamCLLUEThWYymRD8JrERzGh+jVZHeAE0VTA9MgECb8s0QYj6n94XjaaZ4rqF7NZL0GDipsqqcCQolPkeYyAwpDK1BdQCiBdUhGr/FhptYKFcF7dBakdWSxXhVhA4rFUaZspm5j+oI1KYRjRdQHP+ODLxiAI1DCldpQZBaU1I7symrbwMLZyeuBJH975LAEcyGUOlqbgZJFZKpMtWXbQiElAqlkQsmUWrtgaj3ZIYENZTZUNNkmzaTEVNrWE9mkYluxW55jIK3/q/sXbi+bDLpP/9UUwQzppdhb3LL4My23r0yO2zoUjEPiPmap4x39fQIAyGWlbf9gYhGCD4J2u60Nwc6cXwvve9T0wMNC2Qe7C4uIirr74ahw4dwurqqmgW+Nx3331417veJT8TUBA4XEgAgSYG6+luDPMHMc24aRA++xlUCBAYavkJTYAA4OaAbI7dQEn9y9996+kK/tGOuo37WuO25IqJNL7T7oTHufuBXBT/+Ikotv3jFhGaAhBiMQl0dOz0otjeeVO38gLQpED1PgU9HwoyClrGT7A/4sLXaGH3jlnEUurmTmFO1j/BB23vNCUYy6dQqxEgxJGY2YPm2aPCi8iaWSMpJPkdHwp/BmqiKyS/ZXTDhfwuvHLD74m7c4tcg2hUTBGMmig5Feqryv2R0SOTGXRa1EC0TVOCGhRqD/iq4kj0Qi2Le2duGp2M0kg6H87Z+Jf+EJHG+cuDE188jkh9TXuaN+TFABmue8n3bKubfcPPl9mtIBct5cBZGDRYw5xDts5rAISoqmIgD7NqGdFrcByEu3Hs2MvdrtjDLV9IGgRrAB5++GHxVmAQpH379smv6dHAoEkMinT48GHXaeetgCCCdvdf1EfLxGCuRV8NApM17QwDEIYjKQYS9tZ5oobZ77J9NduxnooPqdNRcdgzsnsgegg3/nqP0cHTH34HknOX98IDS7KgCNqMo7F2Dugomz4fClv+bB1pklgIETTMDIj2OiMUzKkC2sledsW+pjBR0pP/5Cp4w4y7VYCbjja2esp19nTXQtDca/FKfMbf/qegukRmaK7FYbGl7ne672k2d+jXhm2Hzlh7NSpoDqyyg0mKphdD/6boFc8NHwQQLuZi6J8mxj9QcdTVDcZ67AGS3CaWf1dZ0kZZGkOv4w35MDiSouIf8PEECKG9GIbgIHga3NZvmIIO7qBNHvbg1j28h7UaDHsQuo2osw1GXDHxB+rgIHWa/QzXdRR21pg56w2aO92DO8xOD7Meglapbr1edQZ9r9vWUdZM0JwEjUHYv4/SVmddo5Tl9e3AeGgs0uBQy3aAMAD/VZXBJgYXDoIp5C4kL4awC+5CfN8PIDiXH+2tfiRF/XTPegDhS7ZASTob2m3+dA9Ujb3rqhZwtVlqLqTzfWgHCQ2rmTrt0C1Ls+sjvXa+28vydfqr0w7djurUNwygtNe/nu3V6dewwJZle42Hzj4dtp+6dQYBaK8x7xsPq5GOSgMBAkMtWxX0X1x7JQUBBEuDIPY08zPrFnwRIOgs7QvnHTeA4EXU2Wg3Rz+AEHRbH/aQ8AQiLqfHeoOD9RQSuoeYrolDd0foHOC6ZekKxDDlBa0btzpHERxewm6UcfL71kPuSLfXa0/4jTfHyl6P7s18lLWvW4fuOhmlPJ214le+FkDw1mhrahDuvgsvH+1xELoq8gguqDgIugviQn7PCRCarf5cDGqzq/+7XgCBhDHdSIrDxEHYiINQVwDrHsy6B6RbvTr91Tm4uhcTzQ3hJgh0BJ+uVkd37DSbq/2aU8jpCnmvCtZb4OiCOp350R4UzRf9+hqkUQizRj2BvO0POvsizJzp7j3dvewEc/x3IEBw5mJQjepVqUVStACCmcCj2zGDbo5j+MN//4cSTfDk3EnNab/42i/qCHSYVW5xCV//5texsrqMpj1ZUzdY0voCBCta201hvBi8ci24TMwoB8Mo8zyKIAgrnO3t9LBE9nUlbNt0Djmdcdat168+nXqCBEaYMnT6Pgp4scoP0yZ7/5zfr/fYhRWao4DCoHkLO87OsdAdYyd40V0Dbu0b5VttgNBL+dwPDtigIJLi3fZkTeIAzP8v/wdM97x3z17xhqjWVPSsi8+FPQIECQuLCyiXS5LNsRdJsX97eWsQPmtmc9yFJ4LiIBw+pMK5GkAwQPgyVlZUJEXdjT7KTA57uPgdqMO2W0ewyk1X9zo5ysCM8K3urTDMoWo1J2hsh53P89EWtyFc7/YFjYffNOq0RXdcRmnHCEtt5E919hwr0X3P7d2gsXnh8AsSM4aB/KyH8Xgee+wxieETsXMQvHocCiA4ConHmJGsv4sqtUr/wzec7H27u2RQR3UXk3sfXb52nRW7AtwqqedO1StbgaPAx4qmEvii93Z3tmiw2e59G9igYfzTXGxS3VuGrd9e82z1pt1hWl3vgQoGCLvxxONPBAZKisXpcw7cFBgoqQcQ7COuM5W91TA4V7oyNUw9bvvHbZXolDmKUNUp3+uQ4+91v9ft71Bb6Tx+pNO/0c4u98av95oLI6R0h3M9+63b31HWXFhhPcqa1dGS6I6z3xocCSBYcuD6N96Ae++9F2NjY+LDT/9+6/na176GPg2CV6vFe00tCSUTrGa7CVjnOy6Hrhk0RHeQ9HjCfnTWwWHuyx0g2eP00mp1M2VajTeL9hOW/f0Ms11773pxTbTr9QEGznmwTzGBQpjDwBpX72RNITQIVi6GDnDzzUHJmgYBgs4B//MMDsII7zCrTudwDDO2OuW5Hf6h1p3LYRLm+6CzyKu/owA0rzp1xlY0QkGNNv+u20bN4uS1UcbWCxDoClbdfuuuO7d+67ZFdw5HGS+3vcHfBQIEchCcSXKcDQ4GCCpQkpugGRCGlgx1NWQOO239srknx9yH1NnOMGEHtEJjmgM4MK5Ojob1Xsdr+nSWp86Y9WIL9I2IZQpyVKOrTCD5T0dV6K6XHtwWznrXI5vjIQIEbZLil7G80kv3fD5uJet90IY5NML0x+/A62qLwkiDEd4NGjP733V2g1tTvISlLigadR7cdrrufA3b57BTEjQPfkDZ+pu9raOMWZj50hXAuuMRpt26ZY7axmHbdDjIxGCRFHschMGm6gAEt1wMbjflfu3BqMMXGB+lW4HKzDao+g8DDkSM21a49418sF9O0NKzLmzA9nZpKMO82p+RrB2Wecj1NNXv3wBAkMx4WdxzzxeQz6tId3fd9Tl8NkSgpC5AYKjlm4I1CAQIfo+uwPAqY9jvvYBYmINhlBvNwLcuFesCy7C7XnfMtMBqyMqHrdsuEIdtl+7c6u6w9QBSowCZkEM/8Pow/fSr0w+ABdWlOzdh+uynYQpqD+vRWavOdwIBgpOD4BbFLygOgr+JQafZYYZRvat7GLlpMJReTWfIPdqlIXBlwrxW0QhxvENpMJy8Dht51AkOgmbAb7zd1ox7F93H3Kvs9dAgPH+Y6Z4VByE4WZPSIPysH7fb0ai3t/W+jYYBx6OMp26/dQ9It/fCqv7D9Edn3MPWP8LJpSVErP6NoikaVYCO0kfd+VkPLYRuXTrrwA4q3YCYbl1u73nVrwUQvEP7qmKDNQhuyZrCbG39rjuFyUAKCXMkXIFBGGTh1iRXqafyVQxMqFv3tU9Vd1AV1PfuAnNZDVYsAHtbQ2lP7C+b5bMsfXAwOE497wX3+V83gBClF4OxLhqEoJU67G3ReSgH1eMGcXUPZU7feuxOr72n03bd26xun6zx0Bl/3b6HrdvrUNfR3IwqQFyPK52JMN/RaaOzOD8hrjvGXsDObX2H6M7Ir+rOfRCQCVrn6zFOYTtrb7MWB2HwuOjvdniAsP5agzA35144R9vQ6aocPEfb1ifzR6eaXha7x4z3uZF2obnettQGIG6aFQ/eg3RTd0yCOtUdM9Wx7hDYxklHRe2Mv7EuAOH5Q5JZj896mBj8NuOoh4ru916HZ5jv3foRdNjp9F2njPN1KHrtJp1dNkq712M+wgAE+zysl5Beb4DxahX8YYWp/f0w6zZMPaNKy1H2faAGwT1QktU9VXWgicERSdF1sQX0QhcA8L1BeXV+ps69TcrrQjZmd3e6b1O/70WKWjfxLjdisB+6hErhWNia0b3du64+neNQA+0E4C+3G6a31mKwoQQI2UxmJA7C85YXg3F+AcIomzTMYRLmZjVqmzRXST8oDNsZ8/0wdbkd2mEE7LB1hRV6o55KYedPFyyMOlaj9ivMEhnBGhummu4aXs+1MUpZoRvv8UHQGhoKIDgFW2AchBEAgi4wkIPRZcTdzSOjT439xm8JaWHDuzxuN3y3tsr3ziLIC/C4yeuYFLzMQ5IXw/YoE0OIcQmxM/XnMGi52hvsl83RcnPUi4MQjekla/ryl4fjIIToVah9b58tex26szhqu3QECd8ZtZ4woCfMAI4qyKzvvebB3hadOXErL6g/YcZWpw1+9eneZEcd16A+951bHpWFOcp06wsa66Dx3chx0e1TEKjVNDGo6rwGfRSAoGvndtcM+LerXwKqf4nA1Fw9V1xxBZ599lnPsWYx73vf+/Hggw/g1Km5gfdUNUHLRk1Rdxxsp4R2/AFzbpxj6QYOWOYgsHABJt6Iy308fFBAtx++sSn0wJWdO+Kd7vn8AgTdg9Jv83ktqjACVVdAu9UV5rDSfTfoAA1zaAUJ12GEqa7w09mxYedWt0x10NpaGjCoYdbisOMftH501qFVRqhxCNngvvNPMxad1zyG6ZPfXnb+bdS9dL7Gz2sdaQCEWLdNXgIrECDYQy2HnHTn65lMRm7U7XYbv/Xhj+DgwUvx+//L/+xZKgXKli1bcOr0KczMzOAP/uDf48EHHvj/2vsOOCmK7P+3LGEBCWIgB5Wwi6CgiOSoEgyAeuodilk8ERTFBIjhvDuVIEkBQVB/sniSRZJKUAElZ4mSk4KiBIm7+/9/X0/P9vRUdVX1zLK72PU5T2Sqq169Cu9br16gaV9Mo/R0DjAQWUKCrlSpUpScnEJlSpemvHnzsetcRElIoORqyXTjjTdSjStr0OP/fDzkJhk9hY8+8hj3d+DA/nATFSpUoB49nueEQ5UqVaRbbr3ZmDM6OMftPhlphCgDBtGkSOwvZWobs7EIVr0sZoaTDvAO6yHazdFHoCTNJwY71LLOAA3OeSGM1D1MTIVVPA40nfF71VEddCqNiAlvYqXVzV+bdhMaTOoaLYbQ4FT8igcPZG14jc39m2renX3ECn68sJXO3tSlVbcf1RygHXefsYBuXfptukR9aTwxZAIENCQ6uP0AhMTERCpR4iIqUKAA0/foI49ScnIyde36JNWoWZPuvuseerZHdzp27Bj/XqRIEf4z/N1ffOElFt5ffjmbVq1aSWvXrqU/T/wZ5r8tOAsVKkQnT52klJQUGjxoCM2fP5+++upL+uPIHxzx0Q0QkgoUoDx5EjlBUMeO91KXJ54kvFEPG/YeLVy0MNx+oUKFqUqVKnTrLbfS8T//pM/G/4/+88Z/qfszT9Nvv/0W5tHbb71Nr73+KnXu/DglFUiifv370pkzZ8LtVKlSla6pXZtq176WXnzpefn6ifAQyJx2HYDAh5tMTWOwA1WaHmU0LalUEi9j0fOJexwJCefeBsEvQBANX3WomwiVWA4SN206h6fqsFP9bnp4udsz4Y2KFtXvprw1uX0K+WDSgIB41bpSjdf096yai1jbNZk3meZOd53GSqsbhJrOQSxg3AuUaQGEaEM4ix0sNDKI6tVrYBxq+YILitA9d99DNa+6ihp0zLBHAAAgAElEQVTUb0DPPf8sbd++nXbu3Mk39iurV6fLLr+cvvhiGvfVs2dv+u9//0P58uWj/Pnz0RVXVKaU5BQqWbIknT17lqZMnczf2i+ezZu34O8WLlxAAApJBZOoccNGVOiCC6h0qVJ04MDP9OFHYyzeZGTQhRdeSHffdTctWbqEVq5cyeAFiX4eevhBmv/NPHrs0c40ffoXdPDgIXr2mWfZH/7P48epVes2tHDhQjp08CAVv7A4HTt2nD766EPmzfFjJ5jmFi1a0M5du/j7zz+fSqdPWymMa9SoQX1efoW+mP4FffyxpaG4//4HGPCsWLlCPOcCmwSn4IzSEMS40lTAIEq4ZBpnqHvWRTjWanP8v/Wf8QAICJSUGIMNQjwOBhGj4tGuyQGpnqz41dA9dL16zCr+xCibjZlk0p8u3+LBG5M1KRu0Lr1ZOc8meyCr6DVp14Re08VmstbstpUAwR0oKQ8khgui+gEINgEQ+C/37kNjPhzD2aHsAqGXlFSATp06RWXKlKFHHn6U/v2fN6hdu/Z0x+130Pfff0+wEZj95Wxat24d7d27l/7880+6+OKL6cknu9LjnR+nipUq8O25S5cn6fq6denrr7+mxx7rTPd16kgnT56kHTt28G2/bNlyNGrUBzTsvXdp2vRpVLRIURo69D06eeIELV6ymOpdX4++/vorzmC1fcd2KlmyFP3++2Fq07oNA5ZmzVrQtu3b6J133qEyZUoxUGnbpi098MBDNHrMB9T96e5059/upLZt2/Lw/ve/T6lWrVo0aeIU6t27Jx05cpTKli1LI94fTm3b3kw/bfuJEwxFCV+XYSGLTVMJLlxVekvHq6tY7SWkh4yANJsOy4vh/IqkaLrpTepn9eGj277JgWkqqHTbjkWI6o5TZ270dp7V0rkYW/j8Df1BV+UtxfrxZJaDoSJ1vCe/PQYSb42LgWJWuUR02BfrGvLaC0obBAAENCALLARrePUTQyrt2Lnd8twTrKSBAwfTzJkz6aefttKWLVuYabYQwM2+U6cH6Ntvv6GVK1dQUlJBuvzyy2n37t10++230zffzGdBD9TS49ke1KxZc3p/5Ps0/rPxVKBgfm6rWNFiBJuCo8eO0uhRo6lN29b899A+/Oc//6W0tHTavWsXfbfwO5o/fx41bwbtQwbt2bOH3vzvW7Rjx0565tmnIyYTtg9FilxAVSpXofbtb6e3+75FO3fuoEOHDlFSUhK9P2IkjXh/BAMVaBS+nvM1NWvWjH3t8fcd/9GRNQpIcf3rr79Rr569aPaXs+jbb7+NWjTp4JlQUOosn9DhEuJ7NKDQX1723Nm92vEDTMGBbFfoBtYJAwQ8MRQSAISPP2K+VqwIL4aVntkcc1qoZeWJEUMFXaGov6rUgivWw9L9vUwVbCJA3ULQyVJdIeyeBlOe2d/L+ouVbzL6dMdnMh4fisAYVrH1qe5aDnekf8yde9p89KgDanTn0GtPGWkQrIM51C2s4UMDUwGEceMsgOAsVatWoxta3sCq/fz589OJEyf4qWDd+nUsaH/++WeqUaMmC/xp0z6n5cuXR3zftElTqlmzJg19d2jE39vC49TJM2GAAIphzPbggw/RDz98TytWZKrvbeHWqdP9DBLmzZ/HVv41a15Fbdq0odWrVrG24dvvvonoZ+6c+TRx4oTw31WoWIG2btlKI0e9z7YUd/3tbgYqb735FvUf0J/WrFnNoAA2CNNnTGfbi+vq1KVy5cpSqdKlqXat2tTnlZd5zBs3buBnBsYFgt0XKUi9l4FMeIu1AeK25G2I69ttO78zOURYSeWK2yBCSNJ0zx9/RH+ePEGVKl1GK5Z5p3tmgJDIEJiaNGpCkyZN4rXizoE+ffp0gpsjbBDicairNq/uQa57thgfqB4Ni4S2Lh0m9Uxo1jkwdfqOVTB7zavoINadZ+fRGwFodBvQGbyrjpL/ir5lT9NCUhQbgi+XpvR5jdlLKhrySuQYp9rfKtIMSZBWN6FDNJ1aGgS7d/vGGLFANTQIToBgu/6VKFGCrq97Pe3Zu4c2bNjAKgMIhcKFC1NGejpNmDCJnxEGDOhPhw8fjmBAkyZN6I477qAePXqEjf7cAo8BQlK+MKC55ZZb+Bli9epVLHTdi9cGCHPnzeO+Hn/8n2zEOHLk+/zf7vrz5s6nFi2bhemqV68e1apVm4YPH0b58xegN/71BqWkVKdHHn2YDReffupp9qLo/XIvfjZB+eqrOdSmdSuaOHESvdTzRdq4cSN99+1C+vj/PqYRw4eJjZmVM55ZQQ0uHGyVuCnIvAlEK1L2BGG3oQMSWFQL4kmIXEZhg1BYpEFAsqaTJy0NggIgZFWgJNGBFt5HPnZ/rHJAedj7oClen8iEsgnNKsGsQ2tWtqG6wKrm1/t5T2d05nU8+WEIDty9K59GHZ0rjzxX4ypemnPC+wvp3MSBkDg0YRyHxNmnGiDky5MRNZmupD4qDUIqNAg7Mu0LItgt4G7Eggjdop1E16lzHS1btjTcjGiC2rRpSzNnzuA6sBMoV64cG0FaGpBotpcrW47+PAF1/6/hdnv16k3XXnst//d7777LzwQo4Mc7A96hihUrhusmJualD0aPoqlTp6qGFwIcVrX33htGkyZNZPsI65YQn6ySNhFhoRxiqnCzySV7xFisWBTeWgP3VpI/P4TGiQ9C0xFl3xJqTNZGYp5EiZvjR3TixEmqWCn7AAJPpeDgMj3sREeT6aGh26dpu/E4aE2EcrxAl4kGyLE8tYablaBGc5tq0albSQjeNBaKybOjfaZ60WRqaqVBopoFdiMaG8hkbjSaizx31ZQqa+iuS7uePXQlQMibX+Dm6OK+GiC4kjXJhIxgmKrbp+nCUXHS65Zr2WdaRppwt7RdMMGOvHnzEgSWrR2QmRTJ2s+S5FH2YL1Wr1BzoH+EYn741u8yXpUeEFJaomfGUt1F02KDFGkcBDwxnMATg9oGwUiDMA1PDH+olhD/bnIIGJxD2oZqTiL90KI1yDhVkmkQTJrPqjF6gRIZfSbj0T24pX3px30TrkuVIHXSp9IAmoIC3flVaRskyk/d5uX19I/B8LVT147K7xkR66BM1+amTZujnlu/++47NtiHU0GCMxeDyDcdBOsna3KR53WrxcUyPdPOQcUYaxGplntkK2lnM9j+wWsBwi4C/+TLnyglIapXyU4S/rUsWZJqN6oYogAH7kRSmfYlBrtC8PTCYCH0RBB1YBiAA4t8OTjAr0qAgCeGFd5GilkBEEyElXiU3gBDpa52Lg13XZMbu2qJme84AQiUdGKyk+PBb9VYdX/3Q4vJoS2iw/R7X6BEY0J0AILXWRvr9yx0HYOLZZ+E+SwZt8lRJrJRCB/PugvLWLrpN+y1jzebAISIgycUNhdyTK1BwBNDpJFipACwZjVs3GYADCx/eMmSVwjZMqXL0eDBg6lq1apCbsJtcvz48ey+mJ5+NkxgmE73VybAwMMzRDcUtHIJCPjCm1Bjs2fOh5i3MvsGcXhndAlNg6MtT+miItBqB7krhG6OtgbBACCgvcaNmnobKRpoEJh/ygmST4XJIW5SV0WXivOqg033exUdXiDHzVYdPpu0pzFtnlVM6DHhl6xT3f7Qly+AqCBSR7A7aY8VJOi2ZQmVaK6Z7Beu6zirdLR9JnOqO3f2KEzajnUd43sjgCCTt+YAwWyY7n450RD/pQl7o/tEsCVYrcsW7KGDhxhAIExyBqWLUzWH0UJ0+/LnBPHUOevH8nQi6tfyCjDju4qGSHod+SQcw7MMQgWb1G2IGK6jT6OXFwO7OVbQ0yAk5s3DNDZWeTEYAgS/G9RkVaMPJ8ec35rcoGS0mrShP3NWb7GMMxaQoDsm0/FAG9mieQta9P0iOnLkSASJJkLJ/vCSSy6h5s2asysvyvjxn3GsFzfYMeUj3LvhHYZ4LJ7ASYMBOmeKfb561dWpA1oR+8TSLMuJQx3eF6rzznVfce+lSCAi2CH6dy1fR4GfNSPqyFTD5GxDCyCoBJ3yiSHVdnPUWHEKVoKW9LQMNh5EJMJYyoIFCxgg2LYE7rZ++fkX1h4sWLiAEvKIaY+yuLeNKkVC0WMnq3isO04ZOHB/771ZdXvLrCfVHMhsCAS8cD57qMAJHxayOAjwYjihFwdh02ZEUtQDCHC3ddogxL6ao/lsetjLaJABhaxo3x5FLPzQocukfdPDNR79P3D/AxyobfSY0ey5FCFgJFtKNiaAjU73deL2EJYeZd++fZwY7qeffjLfoI4vypcvT3fccSft2bObw88jdkuUcNRgtlIAh/ZoRKTXkGB3Cnn8jr0cCVYsTzNnHxD8Ti2kDRKcIfPRlvgsUgxIABacPPGppI5pnvCxL42PoFfT/WA3oQQI7kiKIkapAcJYjkCoc+h7cdSWNQAILVu2pIYNG8Y0AWPHjvUNEIRGhaE1qLNxwoeqIZCIYmKIKZ7Gj0IuaZwAvrlraROcNDFPpPYW1hOE+1KgWi82QHj99TfYmwEF+TlmzZ6pDxAQallTg+AGCPEQjDpCRDYNOuAg8tC1/ktHGEYJDN9rwexDvweZuxfTdnR5IppzGCxfWf1KuuGGG/jnZcuX8fozndtdu3Zx0De4QyMeClyn3WXLls0cTA1xYlAPMVc8z0zBfBctWozz02BPwsV89uxZbGcVnnOVLOXNbfVq71v3jd4W1BHPiiJC3YzXXdQax5euBZuuO3iEpi5Et0pJYbb6xbVjWZs6a9CL5UojRRsghAWiiyNaNgipFkCwi+rgjzjUBNSbAAREQzx+/DgHZMKGchY/AMGtMahb93ravHkTHf7td0MzErHKX8obTasY52KXv/Vp7K4Qo1iuG65QlTbBCa5kNhE6iB03CsRBwFORfcs6fPg3OvDzASOAgEBJGCeiXHoFSspKgGAq0JyC3j2bJm2Z1PVz2KmePGIV7DKa/I7LZKmD71iDd955J1WsUJENnmMpixYt5Bs9NKO33dZO2hTy06xZs4auvLIGtWsnr6dLy48/rqclS5fS3j17lZ+4b/oRZ7VDO4Bz0hgciHoHk1WTonmc2YBBRJfVROj/VVJfQI/f9aZkuKOCig2Rc6FuWWdvqjUIojgIIV7awkhpgxACCLJD3y1QVK6NJgABEQmh7oNaDSGaYwUI1jXYEppIONXliS60evXqcMwF0bRcdtllrB4Mu0AmJPC7YuUrKlsuk4UvoEWLFjGiF/JIExxk9h2BdR0kae4kBzgQjUd3Hu1v2S5S9tQQ7iuTNh1wwAIyIYEKJiUx+LPXEKJeHjt+jHmtE2rZxItBBBDMOCrftKYHjFd90W+6F7PwnKnPF60aJipSk7p257ILqCk/vQbjxU8AU/tpAa7OsZTsAgi4REErYcWJEReh6l6wqPBXGRnp4UakgMJA2tkCXVcj4GWEnR6iDUHWPEkQuFgLNcOSpwmvdRCvM0O2B+K5h5UAIUviICiSDIUZ6PiDU75kL0Cw2F+8eHG6556/c/yDI3/8wfkXRo4aGSEIW7Vqzeq7p5/uzu+GMHa0C4TaPXfdQ6XLlKZ619enG2+y1JPhSXevXpX/Dn8oXnp+3uRUINpNq0xbIXNVNdVuSJ9Q8iRQw/qNeB5QENJ75y5k9SS+1alyMYQBAhE1UXgxnAsbBB0BEy/hZ9qOCfDAOAxkgHLYopXtt/14H9BFixalWlfXosaNG/M4cCk5depkeEzcn0an27dvoy1bt1LpUOj12rVrR/EFQhz5Z3DhQD2Em/cURoJ+ixQpQpUrV+azauvWrTRt2rSINPTu9mTv+hH1YBvGm1Q+0PDNne0ElFOu1kCEmtACDgr6nFoFUSRXnsIo7bn3pOqMUcQFjaWiZl6ohgxA6zagDRDcfvNhQYY4CPUbaqd79nRxkVHtmpg02CC00LNBiL8GgdjABymf27dvR4917kyffPJ/dP319TiDI0IrI98CyqGDv1GXLv+k4cPfZ6vmNje3IajznCcHwAMSUblzTXgvLv2jWiq4PU4tE3DAgkAQGpnHKPNgkA4uemtE2XqEHFhY2xLqNwog7ETyLtLXIIRsEFS5GJwAIZ6bWHezegndWOjRPUT0V501Ig0ZoDV0U+2HVqOOSrHwLnwOJiRQz5d68n8OHzGc8NTllJU6fTgFUKGCBal792eihoIEb9BYOvv1Gq+o3/LlYKR4B4eSnzhxIielkxXbI0DFU7TlFqBeZ72Tflk95ROFgCgZWHAbPHryLHQAhu0oNCS9TvsazThFg4rl2r+r9qHX2lQDhHyJGSojDqWRoiPUsvA2KxuqRFJlJ0AoVqw43X///fTBB6PoX6//i0qVKs0ZJpEO+vNpU+nRRx6jV17tw6Gd58/7hj786CP+88cff0R1rruOvvrySzYMQi4KZHCsdNlltGjhQvpi+heci8FkEalWiBwciJeEMTAAsdJrqOmxrgEOnIe6I/V1wwaNMzUIO6BBMAQIhjYIOoe9c27AItNvVHMbPmBDf8iq9t39uOky6Vd1UEmPAQUz/LZrN2syBi9SYIPQrGkz+mHxD3T0aKSbo/HeIiK4OTZt2jRsgAthDjdHJ706Y3ePD7ZYoPOzzz7zGE4CxxlRFVswqgyzWdiSI7y6oGH7vLLrqvrW+d02orSfFrS+8XgOdZ6pOudrLN5iJieo1xpWz2I0V+z2tABC5OfRpKgBgivUsnW5tCzd+abhEjQKn7+0s+nnXoOQGCkL8fZ4UYmLqEKFCvTww49Q//79aMtWK1U1yuBBQ2jturVs+4B0zoMGD6Qbb7yJVZEjRgznd0vcgFNTU7l+t25PUWrqWNqw4UedNcx1vNlkLYuIlwmPU0r4kyO0tH4qtfgct0IvEVsYOsAB/ionAwQ/7+raC+AcVYznGLyeNUyfPHSHrzog47NiLZuYpKQCdPr0ab6dO4sfgIDbO54ubUHE4MCRRVd3/JGEEBv0IpusO6aCXY9Fueim4mIkaHGPU0ST3Z7dpvOWL9I6iDQHOtoIGT/CNm2uQ8zdt20vEeGZYecdUgAa66wVrDTB9yowZR3csqxBFiF+96RqL0SsWb1ASVYuBuHYedUnUP16DbSfGLw2iq4FvwlAWL9+PWeDLFu2LMFY0FmMvBhckZbnzplHKckpEe299NIL9OFHH1JySgrd9be76O2+b9Owd4fROwPfoTVr11CL5i2pbt269NFHH9KFxS+kbdu3sVryq6+/olY3taL538wPJ4RSRVNUYCjts0M6HyYRKu2JMz0FPanMNAa1q1lPnNHH+bkGCG6yTZB+eCySsTs3cLwEl/Zi0KDJfYCYtO3nUIun9sVP/ybjk52T+PtYtobuE5CSVo0FpXt7hxDVAQegCYJX/bTsirTqMRgTsKASxk6w4vWkIYq5IARDobMw/DQj4bn115Zrt9KGQrJw47WevdpRujnmcyVrijogMpCLQQEQUsey8Zi5UBOrsE0AAqza09LSOKOj2w3JN0DIyKC5c1zpnq+vR7VqI93zcCpVqhR17dqV3/ZgTT979mwqU6YM3XRTK/r003FsGIQyfNhwGvruUPrXv97gd8X+A/pZQZtc2TIjtQDyneP7ecIdgsAEHITJyWrRZrefswCC6sw1ebdXoXtVX0oBIbl5+FVPqoCR+/d4HWg64xQe3ooP48FfdxdZgp39MEBjcBEu0ra3lvPfoX4tLUZkgzJBrAIHzqE4Bb+3al61U8QM8gQLhseXO/6Dl5eWG9CI3SxDkEEHSbqGHy/Nm6gdXwAhYmloAgRnHAR7+uQCTTxkexJMvBi89pIxQHBMHgACrIHtUqhwIQ7LPHz4MEbLAATw0d+2fTulp6fRJZdcSvny5qO9+/Za7ox5EqhKlSrUr29/QnasIUMHM5jwExfAFBh4onl7cqOuLSpxIOK0xqmkddh5i5bs0iDEa3R889Tig7ySLi2mh0m86ofuS+cMTkYJah/81eWpj6bP3Scag1Ddsq31GXp24JDtkc8nssEoXQlDH5poBLKCccobvN2pgpd2Ozr8zJSB+jtfq1395oSsdH9uBBBE/IHMbKDSIIyzbBBs+WpuoR/pYgKAADfBYsWKxbRe8BbnN9TyFZdfQT9t+yk8psKFC7MxkR22VBorIITIhbx0va0rgZS7Ew30qQUOhFwVUezjTmhMs7qPuACEdKImTeSBkn744QfWRDVo0CCmNRd8HHAgJ3JAR/hktyA35RtfxExvT6adnOf1kdJg06ZNHGzQLtJ0z05DBOdNVxkoyQUQnDy15k8uBEQLV0MOhrpwCrXoPuDuM2LECFqzeo1wmmHEM2/ePM7FQAkaUFxiq8Ej9FioYSMaVxeea1vyo5cGwtvl0XClSzX+HnzSjYAkvGe66cvsJxaAsHHTRstaG5EUPQDCL7/8wsGtZJk/DbkXVA84EHAg4ECO5wAuRQg0aLvug2A5QHAMxymklQDBFWrZ+2ZsSR4povV8Hxfz21bpu3/Nn7cA1alTh3bv3i2dKMRUR9xzhONVFanWQAMcRIk/WYhjr7YkGogIQOaKW6APthytSFiBWBm6hqbh1iQEiP46E+BEgpBYAAICJXE8BQVAUM198HvAgYADAQf+ChzQAghORijdHAUAQdf+IMJwxssvV3BxlYEMW2sBY0fd4gUQvG76Or6yInDg/rtwHzJXGl+S3urFSA0nAwfoXzAHEW1r2jXoDMXJhlgBgk4uBt11EtQLOBBwIODA+cwBPYAQNs/V82JQZ3P0Nky0JJlLoMlcSCQSxkuQ6wglqdD2XA0W0ZnWzHIVvLELKBqV5Dnwu0ClYMELGKAznRcYl6WwEOvotOMaXKOGWR8oyS8/g+8CDgQcCDhwvnAAKQNWrlzJWvdt27ZRQt58eSKP7CgjMw2AELJBEDPJzP7AKWxDcCGiWT+Rq7IOHESOOBwoxNWhMTCwmxXMhY6xkWgevLUIoSUQx/7itWFAUrw0CI0bNaEJEyawrcHmzZsjDHPiRW/QTsCBgAMBB3IrByZPnkw7d1q5bqIBgkS9rYqDMA6hlndmZgrLFGIaWgMXJ43t3DwMB73iMsh8cvGNH8NY6VODbW8hVM97LCNNRuiAHy1wIFCfyAwi/Sx+Y+cGx7zGAyCwEiSdKD09g5o3b84eMrFm5/PDh+CbgAMBBwIO5HQOwIB/y5YtlIBsjpyoSWQcGJI+KhsEOUBwsgH+tXL9sqY8DDeoEuJCIzivxENehpOectxDQyL7zo9KQQcJOPqzgI7K8FIyH55vNR4GpoLxKkkQfOMGafECCAwSMoiKFilG1113XcxutDl9kwf0BRwIOBBwwA8H8NSARIgJiXldTwyCG7kKIKSOS6WdHEnR/P3dj92A329iNSh09qsSvlJOnANwEIWioojx46ooXmaqJw8/AMHdUzwBgt122tkMz/XqZ1MF3wQc+KtxICrPThYwQHXGZEGXMTepkg+xdpDVPLHpjwAIssNcDRCikzXZDFBdfE0M2fwKG50YBaIJ032icH9rCg7c/UTS68OqDwSZqmQ8v5EvZ7knCbQXPml3dZcVAEFEWia1fhLRsn5CzCh3LBCuZteVPMMpeKfSDZkdQF5aMH9z6E1ffKn3WJ2On3T7VI9XHFJMt30ntZktsZOQumvhUE2FhU5OAs7ZEMrQ6HV+cgIkDN02MI85ZqhriBlEaelpDOaRsdF0rGb7IH61Efbf7ymiooIDYTtc3lU8sflnt6uiKyJ/ha1B8BK+fgCC6WJ39i/2kVexTfC7a1ARRvZx1naEDRRNkIYiyYsvQORHvWJn3xS5mXocWrKFmQc0CM5L1UKWzXCWAATpcpIc9Krz3+v5TOK+G7bxkNj+eLvx+tgPsk881ozzIHJ+jvXujz4vRjoXW2Y9X/tA9WToB0CrWG7b+rrm21Pu2+smA/Yxqg68fzfdX25BIQpJbGsIAASQoMj5TThhkejoNTxLhLjCxTiMD/+kZaRTeloaA4acWMCXAvkLmJEmWySi7SLwbAuHgRbEyjmbdlbIKxlQiAAIUV4MgmGZAARvDXoCv/v+/vvvUb34PQTQECYEeRP++OMPq91QY4UKFaa0tLM0aeIk+vs//k5nz57lFKhXVr+SatWqRbDYTElOZoS6atUqRvDInwDjDHdBkxdccAHly5efDh/+LeJnLwNF2bXAz0uDcsXFAA6ixhsKLiTGO962JFJ+pEceQbpzniMAAq8ryQz4AAdoycsI1Et7pVwHJhV82puI5tgWUPImlShLQjlusyaDsuoaCUy7A9ObTYgs6XzZ60YFSOIAEJwcMhq7AWsx7wALeRPzatg42cex4eTBu5vt4rzvulbGyQw+43GG55QCeZQ/X35t/liLVZP6kGJWNb9OLcPZ9LNamTltbmcpQLCHmZiYl/DPqVMnqVOn+6lA/vxU/MILadfOnbTo+0XsZ2m66du2vZk2bdxIp8+coWbNmtGUyZPp6LGjdOmll1LLljfQ8mXLuI8lS5cwGSkpKVT5iio0YfwE6njvP9htA8YXNWrUpJYtWtC0adPo5Zf7UMVKFemaa2pTpYqVaNas2XRtnWvp+PFj3EahQgU5/ztCUpYqVZreffddmjplKv362680Y8Z0rnPbrbdR8eLFOYHTps2bafLkSd6HkzjmELdlyhPhslKpYxSHmooO2WEo0xygPWxkMa0CY0pXB1KAUKESrVixkmOJA/zZZcaMGfx369atI0RSFAXBYnp0N6V9yMv2sFc7uhdmj/NBfK/WPFB0qkljYMg/Njzydagwr6MiwmR+7T0R+reqaTexxkvA9QIX8epkzonoLxwEaScr0uw3nMGRFYWmnNLrhAWgZvv8/BBSv8R7rHrURtYKP8+EnmmUbYSOoqzhJIWfZlSgwqbTCf4TkO5Z9aGJBsHupFq1ZHr0kUfpuuvq0shRI+mJfz5BX339Fe3atYsmThxPN7e9mcamjuXqI4a/z/9ev349DR4ySMrP/GtHI3kAACAASURBVPkL0Pp1P9KiRQspKakgfTL2E5o7dw51f7o7tWnThpYuW0ZffjmbZsycwW0ULVKUSpQoQZs2bqarrq5JO3fspO7duzOyg4vb9BnTqc/Lr9Cq1avo3XeHUvenn6Fhw4bR9fXq0ueff05IJd2hfQdqe/PNlBFagPfd14k6d36MM57Z9F9y8SXUunVratCwIU2cOJG++upL6Rgibl6hhQH+xwUYKFdiZoV4ajDQFuc7kBQjcCA4oBvUbxR2SURSsJ27drBiBoDOFCDgu8KFLqBWrVrRJZdcYsCxoGrAgYADAQfOfw4sWrSIVq9ezQNNyJcv0cr+7UCcbmHlByAgkyIS3yDXAdT6DzzwIA0dOpSD06D9pk2b0tAh79HmzZto0KCBTMysWV9SocJJ/GcAgJMnT1CBAkmshQB9TZs0pfoN6vPTQGrqOGrUqAGdOHGSNQVDhwylJ7r8k/YfOEBXXXUVLV68mHr17E2NGjakI0eO0KWXlqSXer5ILZq3sMaaQDR9+hf09lt96bXXXqX6DRrQr4cO0cFDB6l69Stpx/btNGfuHEISH7jEAWgA7PTq2YvKlS9Dhw8fjlgpd975N6pfvwG98cbrnPyiVKlSXH/atM/D9fx4UWTJcgzNtdDYygeMtdeOZYtnNWD92VBzIAAH+Cs3QNixcwfXrFSpEq1Yrq9BsAzBMqhlixuoQ4cOPEdBCTgQcCDgQMCBTA7gcjx16lQ2BRC6ObqZpUzW5BlJkeiBBx6iLVs204IFC8JNly9fnkFD375v0alTp1jt3+62djR6zGiCBWjDhg1p5syZ1LhRY862iOh3gwYNpttv70C9evWmOXO+psWLf6CiRYtS37f78TffLfiOihUrToUKJtHIkaPohRdeoFOnTtP+/ftYWI8ZM5oaN25sqf8TEhggtG7dhu7teC/dfc9d/Ewwe9aX1KxZU37TgrYDAAHl6quvpnvu+TsdPXKEihQtSj17vhQeS9euXal5sxa0ZOliTvyEp48yZcvSgw88SD2ee1b6FqXS3MR70UYBFFvLzhDR3/OGpybCYccQMVaPhFwifCLSIIA3FaFB0AQIoPPCC0vQtddcS507d2bWbt/u7Zobb/4H7QUcCDgQcCCnc2Dr1p9oyZIlfHnPcoAAo77OnR+n8eM/owMHDoR5gxt5t25P0fDh77FWYdDAwdTtqa6sSu7btz+Hwp01axbVq1ePduzYQZUqVqQJEydQwYIF6ZFHHuWbOoTOSy/2pA0bNhDS+k6ZPIVGjx5Nb/d9i/sBcMBNf8+ePQw4Pv10HDVq3MTyJwoBhGZNm9ELL7xIz/Z4hoYOeZcKFy7M9MyZM4duv6ODdRtOSKCLL76YPhg1mlq0aEF44wagQLnzzjupbJly9PH/fUTHjh1jIDPy/ZH8e758+SLSaDoXhn9w4Hq81Fxt3q6e0QZdOk8eSnAgoY2zQgqeJGTKi1gAgjPdc0pKdQaNmGPYlACA2m+XmmwMqgUcCDgQcOC85sDevfvo5wO/0K+/HcpagFCmdBlq1ao1zZ03l4W8s1x0UQnq328AHTp0iJKSrGcF2A9M+2Ia1bm2Di1bvowaNWpC1atXpxEjhoc/feThR2jX7l0R7/zJycl0002tWCWyd+9e1i6gDHxnECUVLEgHD/5CNWtcRYMGvUNly5ajQoULUcmSpWjG9C/orbfepgULF9KoUSPZaG3Tps3UvEUzNmg8ePBg1O1/4DsDafr06WxPAaFbtUpV2n9gPzVp0oRqXV2L7SA6depE/37jX9Srd2+6996OwsXkDyBIfF4Uy9UTHLg8C+ymVLEYpOBAka5bNO5wUA4JQogFIMBIMTExD6VnZFBKsgUQYGUMhBz2ejmvt3swuIADAQcCDuhzQBsg2LdIUxsECA+o62GIOGv2LPr111/D1NltQlMA4Xr498O0f/9+/r1Y0WL0xxHLVRG3vGeeeZYFN36HEAGgwPvIgoXfRVitP/fc8/Tj+vU0Z+5cOnv2TPi31159ncHCho0b6K677uY6i5cspmuvrUPNmzVnI0V4QwwaPIi6PtmNPvxoDO3euYeuubY2PfboY9TjuR4RXK1xZQ265+9/p169ekb8PWwUGjRoyCDo7rvuphdfep7S0tKpXbv2NGzYu/oz41lTbhwgFrrqUMsy40FlFDCJqw1/J3UF9HY7E2ssLPe2mADCZgsgYE0mV0sJAEKcVmPQTMCBgAPnJwe0AILzwDYFCDbbvAwfVaxt2fJGWrduTdgGoErlKpS/QH72dMhs3zKzQwyEsZ+kcgwDPCl0f6Y72yc8/VR3mj17Ft/wx34yjnr2fJG2bd9Gb7/dl+0hEGv62jp12DYBTwhdu3SjosWK0jPPPE3t23egKVMmh403YXQJO4m1a9ewetpdOv6jI/2jY0fq1Ok++u23TECkGqfe72bgIFMLgD+FjAZdTcQEDtxEewcF5NqygDtMocIwUurmWOkyWrFshbebYwAQ9JZYUCvgQMCBgANEJAUIsoPaL0CIhdvKW6xGIJQiRYrSmTOn2V2xRImL6I8/fqe09HTWbsCzAn0UKFCAvRxQLr3kEn5WkJVw0DOBfl0l5FRtRgr18H950OIdrEj8oS2JI0O8ZvbtIak9/fkFtDgYEgs4AG1igJBAFeHFEACEWLZZ8G3AgYADAQciOBAFEFTCLasBQtpZ/ZCZiXkTpWGnRO/iEWOTDFTl2ScVxTFGN/GKludU17sjinrZL6jm0nsvSDhhCg48OvGjVYoGCFa+csuLIT4ahK1bt0bZyQTnRtZy4IYbbmBwvmbNGgbxQTm3HKhWrRrBm8wuGzduZIPuoPx1OACjf3joIUqwXSIAQrxDLfthbYkLL6bevXtT5cqVhZ/DDXL27Nk0ZswYSks/I6yjjJAqMZ7zDQ5AhbJTOTc8wYEs6FDIj//chOENcSaO4MDJjXDsBNUECDUIBgABRop5YYOQQcnV5EaK8ITBE9W9994rfELys66Db8QcWLRwEY2fMJ4aNGjAhsXLli1j7yM83QVeJVm/amDIjYBwcBG/7LLLwh3iyRUh6O+6664IG6+sp+iv1QNiA2EOXn/9dR74qFGj2FD/XK59aND37tlL/Qf05zg/WAs5FiCULVOeJk2axKp/0e0Y1uZDhgyhcePG8ZOBu5hGVIWLHW7aSD3iFSlUrjkw7TGTYi9MwdEIJQLTK25/1m0vATHhV4qs4YFIAxKTBiEUahl89/JiAECAwerzzz/PnjVByToOfDDqA5oydUoEQED+E8QcCTQJWcd3606TQYt/WEwD3hnA560bINx2223UrVu3sO1X1lLz12wdRvuYgzf+/QYzAGfPmTNn2E3+XJWDvxykH374gQ30czZASEigsqXLMUAAk0QoCpEJ+/frzwGTnAvaDzNx+MNzwhka2I7657R7OJfggI3/PUIV5xhwEGb4uQMH6PJcAQRE98ThiABZQck6DgweNJh+WPwDAzJbgwD1NlyLz+UhmXUjzLkt4yyZO2cuh6lHJFE3QLj11ls5kBiCiAUlaziAYHqYg9RxqdwBDO+xDyDnzlXZv28/x/pBWIGsBwipY2nHTh8LKnRdNAEICHgUS0Gypj179whzByjtFbLgSQFj4ZTqoquzHRLZT7+aCZvEvPR8V/DNfr/5HwKA4JvlOfLDACBk37QEACH7eG/3/JcECNt3ZAIEpaGcq0KsAAFZFJ2Jd44ePcoGZyJthAwgeNFsC28/wY10ZXu4f9tWQpDzW3tpew0m4vIvzMbg0c251RzYhDgBAtbZTh+5GHSeGAINgvYKi6liABBiYl9MHwcAISb2xeXjvzRA8AQHkh9jAQjIwQAVCRI22QUhnb/55hsCUHAXN0DwohcR92A8gndRK+NiQthGAnER8BueRWBEKSq64ED0rRJkyZaq6kNPl4ycpTnAEMHDRg0bh7M5RgAEg2yOAUCIy9kWl0YCgBAXNvpqJAAIvtgW14/+sgDB8+IakS3SYSGfQZzLQNcGwf3E0K5dO9q9ezetWLEiPIkVKlSgtm3b0vDhmSGa7R+dAEElSxHN8Yl/duE8CzCgQkZIvJvCjqFy5SoEzcXxY8fovWHv0bFjmWAkFmAAOlV0SVertuYgugX3p5FjyB7NgU1DABDiej5le2MBQMi+KQgAQvbx3u45lwIEeYzcWOIgeL87W1b7sWgQ/ACEvbBBSBSP136ugG82CjJH3n3XPfTll7OoZ6+edOMNN9HlV1xOS5cupW3bttN9993H7peHDlkBlmxB6wck+AYGKlThId9VfUa+SJgBBb/JnKA2cH4bAITsP9TiSUEAEOLJTbO2AoBgxq+sqJ3LAEKih8G+9ZPfdM864ADt5ySAgKcDZHe8846/UfHixVhrUPuaqwmBdLC5nGN6+qmnac3atTR37pwIcOBeVDpgQSWotRdqlCpA/qWqT084oBiU7tyLqHN7bQQAQXv2c0XFACBk3zQFACH7eJ9LNQjRAMFtjGcKEEyFQ04CCLZBYsUKFene+zpRSnIyvfrqK7Rl65aouEgLFyyiNm1bczQ4lbCVgQbT70yWd2YwomhtiapfM12BgyoXiHLT65nQyQ6f7ercCRB2wEhx1w6ei0qBDYLJcsgxdQOAkH1TEQCE7OP9eQEQRJb6ugDBFBjYDIsFICCXQp06dSKMFJH98dtvv5UaKbqfGNx0ly1blgPm9OnzMnXr9hR9Ou5TBgh2SSqQRF27deNMk7//ftj/iovlPULRqzzaohUkyqv4BgeKpEzo00+8BxFAQFtWqOWV3smaQoGS8Jbllc0RwUoCLwb/S9nkywAgmHArvnUDgBBffvppLVc+MXi58KkAwrhxqZlxEOCeR/x/+B8X1a0xFoCA9i+88EIqVqxYeK4QyhJGhaIxwUjRCRDcghSeC3+7828cyGX//n3Ur98AGjJkMCHSm11uu/U2+mnbT/Tjj5mZJY0Xiq5Fp2HDqueMPByVSd5oTgMHoDRWgGCFWvZO95yTAQLCsro9ZeC9U65cuYiJxDMYALMzvr7h8jkn1c9ngHD69GmCAMipcxAAhHOyxD07iQdAQNZiZzArrDenq79qlNqBkhLz5lHKBCOA4KDMfrOXAoSQNLNDLetEUoxHoCQABK+bbL58+ejs2TN82Hbp0pU+HZdK+/bvC48MaZ83bPjRX8x+1fUdvaikvGT2PTU4GkAtDKh0aHTR4Jmx0UNzgMWnihQZK0CwDFJzrwZh5cqVBNdduNtWrVqVOY905Yh4hzJ9+nSOnY9MpFizzrjq+B1JkeCRk1NKTgYIiOh40UUXEZLYIJZKjRo1GJzBNilv3rwc6RGRNgHObD6D94iGV7NmzXA6eng6NW/eXMpyrHkc8DjUka7+XJXcAhDAc1zWcBaDTwDE0OwiTDEibsK1XafAu+3yyy/nsNI5pcQKELDPsf/hvWeX0qVLsyZdN9KwNkBAsia5OtrqXuXFEKFBCFEMgSEMw2OHFHZ0agIQLr300pjmGXkdjv95XBhJEQ37kI1m9Kg68AQH0ema7c5VmMIZWlpEsHIReIzSLzhwYyERDWCXON2z2RNDbo2DAJ589913rIXDgVm/fn2eiffff58ef/zx8KygXr9+/ahHjx4RmjN8k9NKdgIE69KSeTJ9/fXXdPHFF7NwhzCChnHhwoUEV+njx4+zdhIJjFDPjokCDWVycjJnwbPjo/z4448cKhfnkw0gUMer7Nu3j/tr3LjxOZui3AIQcEOGVg8JvSAIAdZsPg0YMICeeeaZkNG4FZ9GGIk2xNWJEyfSHXfccc54rOooVoCwePFiXqPggV1GjhzJgPXuu+9Wdc+/GwEEZ4vYO24ZZgIQ3Jb+bmojtAmhjVqqZBl2Fdy9a7cw+iE26pQpUzgXQ1raWS0GyCrhaGAtu0BQq2S3qmMR7yK+ielZQe6G6ha0zj6tFwXFs4IKXdgNCuiPBRx40W11aR3kMoBQqVIlWr5MzwYhtwIEuNPiFoTDETcp3Exxu4UgQkwOFEQMnTt3LtWuXZsPUzxJIEgYbrYdOnTIUdoD0JudAAFPj+Ap+FioUCG+ieJ5EkAAZdWqVaypAWiAUIL2BQWaA5v3AAvgKwo0B7jdwu4JAr9kyZL8D25z0IhC62CfNcigB8GHgtsw6sOdGnN7rjQ8uQUggEdjx46ljh07hgECtMdY64MHD6ZbbrmFtWowEMc6b926NWvP8GcAPcwhAB3KJ598wgAB+yYnlFgBgnsMAKTz5s3jNWWvV9U4fQEEkZyATNABCNt3bIuwO/AEBq4fCyUVJiQJ2bRxE8kEzpGjR2jb9m2UkCgZukrIOYWbK8dBPICBbEJsMOLfZVAjH7Kgc/tmoxqbl+2JapHZv8tYr9ZayHtw0t2gfqNwJEXbiwGHLowUly9boWWkmBsBAgQ9BD4SuUCAQc2N/8ZNASpTqLkhjFAPiVdwmKIODs3NmzdzIC/8k9NKdgIEmxc4VAEWIMjtAs0AAAJAA34HyIKWwFnw3OPMgog60Bzs3LmTNTxQ8eKgRoEqGPPlDPkO0IBSvXp11lAsWrSI5/OKK67gb7Na45ObAcJVV11FSEn9/fffU8uWLZlnyEgIXuKZBiAOewVp26GZwd7AcxG0baiL/8aTUXaXeAOEf//736wBAzgA6NUpRgBBJVtVNgipqWPJmYvBBByg7tkzacIxiRTqefMJEIK3+4SaXyoGeLSg+lQkJPWDD/kDB9H8Fw8gHuDA3bLNj3iBA7TvBAg7d8LNcSd3e74DBAgQbHi8N9oHIA5EZOGD+hr/XHDBBTRt2jS+OdWtW5cmT54czoqKGxUK1I4mBkzqDRNbjZwAEHD7hAobTza45eOfZcuWMW/xnjtr1iwWQvYtNC0tjQHD6tWrGVjgQoPf8PeYH/AX7+MoEEK2RgKGo5hHFAA6CCy72E8MACTz58+nJk2aaB/wfmcgNwEE2NbcfPPNrMnBfNWrV4/BcGpqKj333HO0fPnyMEgGP7APoCUAPwHaAPgAHvDEgLmE5gh7JrsNSOMFEAA2hw0bxsASz2Am49IGCPEwUpQBBJX3Ai9ygyh/UVVV0ll1ffbaZaq2FbaEsmcMZ5feQCFWcBDN2Ih01hrj83sI4Q3HM6uDwizWPW1ugLDDARBWnMcaBJv/sEEAUMCBhznEnyF0cGuwvXdmzJhBrVq1Yg0C1N7QItj2Cr7nMYs+zC6AAGGOwxkGcBA4ECK4vQNI4XYKgY/fYAQHFTWebFCgCcDzDp4IrrnmGr7lA6jhd4AFeC5ArY3ba7Vq1bi+yv4A7QY2COoFhjmDYIegt41CAYIbNWoUBXrBTwAwzCFU7oiyi3K+2SDYXMOl4NNPP+V9b3oByHaA4OUlYAoMom6pDCwMpYx6LUbWULTv9bPKldATF3HD8QcH4cGJQJOKlya88wBlGBU/IXnVEQw94onBpUH4KwAE3Iyg1obAxw0Wt1yABBjG4baEN/AAIKgXKW7PcFcGMIARYokSJfgjqKYBtCDklyxZwvYd+N1W98O+AMAM9cFrFAANaAlgl4B/47aL5xzccvGkAI2EqgQAQcUhyyYE8wKAYF9wAADAbwAx/B3y7tguvwDGMOBDTBNb3X4+AwTY5sFbxqmZUnPVwEgxLhqEcWMJb8NW8TaI89IY8NeGslGoJjdtxMnRGIABmlGp1r3BQcjlz0GPl3WueCHEAJxiBQoKvovsS5zjk30eC0DYiEBJ8JzJIEpJqU4vvPACH/wQBPBosUtOjoMAWvGuCkG0bt06NqADSHAWqKhh7Abhh3dt3GR1brE6h0m862SXBkE1DgAFPCPgicG0wNYA6m3MjW7BXEFTcS7tRHLTEwPmA08KWMu6BbYgAHhOg0TsmZxge2CPIV5PDABKvXv3pieffJIqVqyoyyKud241CGGAIJHucu+8iEHFItdZ8CrdCBQ89CEg7U/Y09524ZR0ozJU1NVKyOvFAg6iwYk9DK158QEOnGzK/Dw60mNcAAIRpSTnToCA5wSowXErxTMD/o1blbPgMIUlPAAXblHuWAhGp0cWV86pACGLh50jms9NACFHMCwLiIgXQIiFtHMMEFIdGgQR2U7BZZ4XQMUIS2BKhKOOdPMBDJw0MS5RBCLyEt2qQEFeTxaZpGcNOMA4nfYUfjQ2Xq6QdvviObbAQqwAITExgV+kcitAUK3/3PZ7ABCyb8YCgJB9vI+3BiGWkWgDhLz5rGRNMot2HTfHVIRaDj8xuMmWCS4LKOjIby9GaFviyzqKAzhw08cjc8Ra8NYcePNeHcPAAxzpqAAQEtuDB17GlrqRF/0DBGsAEXEQDG0Q8MQQAIRYjpL4fxsAhPjzVLfFACDocirr6uUqDYINEKLZkSnWVHEQxABBFcE5Nk2CNjCQzHNcTAFNL+0ukOKlOdDyglCBG5XaH98rvEhUNhBR8+AeI4wSPYoOQJRGUqxUiVac54GSsu6Yyr6WA4CQfbwPAEL28T5XaxAy2RZ9oJsDBHNw4Jw2CKW8eRPZt1tUYgUHlsYksmUdQeX8wlQ2W+FA81B6uhXzAZqBdI9GVMaO4rDEVshRDsyiAgcqwa1jU6FigoYrqM52/SuHWtbhT26rEwCE7JuxACBkH+/PA4AgFuxmAMFqo3TpMpSUVCAi45TFoGjNAfyPEekKblsXlbiII5FdX68eTZkymY4ePUInT5zkz0qVKk0XX3QRbdi4kY20rqxenZYtX2Y847pxlapUrkLHjh/jMKom4KBgwSS2TsY4ELyiZMlSzIeKFSrSV19/GZmZL4Mof4H8dOrUaUYtF19yCV12WSUOwQr/ahVAatG8BYegBvhodVMrSsybSNNnTJd+y+1xPHo52+KivXA1HwsgCwCC8RLP0R8EACH7picACNnH+1wMELxv/GqA4HRztNhwxRWVqUP7DjRo8ECO7Obl2w+r7LfeeptefPEFFvxDhgylz/73P1q5aiX7Hnd+rDNt3ryFo0UlJuahvv360rZtP9FLL/akD0Z/wOmbdcqtt7bjkKirV6/Sqc6uMTfeeBMNHDggXF91aYZwve3WdgwO6tS5jn799RD7sIP27t2704qVyxk8OAtyCjzX43lau3YdVatWlXbv3kWfffYZ7RGMy605+Pcb/6HPp03lqGKvvvIa7T9wgD4YPSqqD50B2E4gxs8KWtzMrGQasCkmgLB5I+VJRLrnDEqplju9GAzZm+OrBwAh+6YoAAjZx/tcChC80z1DaChDLUfEQbDYgMAVDz34ML351n/p9Gkr/rhdEO0NEbLgjw51OBbtiOEj6LXXX+MIZ3DXgj+yXRo2bETVU6rT5CmTaUD//tT58c4sAF979XWaMOEzWrtuLVe127W/y58vPxUtVpTf2X87fJhq1apNDz34EA19dyina4bgvummmzgRlPu2jrbKlytPXZ58koYPH0ZDhwylWv8/Gc7DDz9MM2fO4C5sYQ164XeLFNFwMUO7uM2PnzCegUG1qsk0c9ZM+v13K1GLu4APV19di8fzzjv9ac3aNcwftAVgZT9LoD+E3IXLG+gFj/q8/AohPvwX06fRBUWKhL6RbAIVugk9CXi5bMbjeUcGQGRtxwcgEKVUS8mVcRCy/0iLLwUBQIgvP01aCwCCCbeypm4uM1IUAwSnLIkNILzJwgzPCHgiOHb0KJUsVZIF/rz58zlM5Cef/B8DBDAOqSwXL1lChw5ZUbKcZdDAQTT1889p7tw5/NcQ2sjuCOCA0KcAJfXrN6ADoSeBKlWr8pMFyugxo2nPnj0sXBElDRHVUlJSWJAPGTqEBbKzdOhwOxUuVIjuv/9+jpM+7YvP6cYbbqIpUydztSpVqoa/AZBA3wcO7KexqWM5JKtdXu7dh8Z8OJoDfogKgMg1ta/hSG6PPvoY17MDqIwZM5ouv+JyKleuPAv+pKSClFytGoMRJJOZMHEC9XypJwOSGTNn0KrVq+XaFE1w4KTR9sYI5YMkcQJvs03kqZ3IoLBdhnPqA4BgxuOcXjsACNk3QwFAyD7e2z3naoAgkiPGACEhIaRBeIjefOtNOn3qNHV5ogtN+2IalS9fgapVrUrt2rWn2+/oQGvXrKOU6skMEHr17k01a9SgFi1bUp8+L0fMZEpyCnXt1o2F/+v/ep1t8F555VUOuQmQsXnTJpr6+VS69dbbOOoctAbffPNNWLsAoe02ehw+fAT169uXtv60NWrVFC9+IfV86SX+5uU+ven5516gCRPHc5YwBKEB/XhGOHrkKIMHpHGFNgRBbZw34QEDBtJzzz0rTGNtd1ry0pL0wAMPcuY4aFxgr4CCtkBH+/YdONY2NAazZs6kXw7+wuAEQXNefrkPrVy5gus3a9ac+rzycjg5THhQPsCBmyGmRpyibagLDtzfNmrYOCqbI+ogWdOK5Yp0z+EnhkCDkP1Ho0VBABCybyYCgJB9vA8AAjgQkiTWE8NDNO7TcZRcLZlTNa9ft55tCqpXv5IWLPiOWrRowTdxqPABELo91Y0N+GxBgts1QsrefPMtrClAXu9WrVpTUoECNH7CZywckSgKQttdnELalo8IVYvwunjz7/LEkzRs+HuEbGuiguBEZcqWoY4d76UBA/pHaRjwjTx2hJWKuPNjj1PPXi9KV6T7+65du9GK5ctp3/59HB/+4MFDnjEK0PArfV5hI0XWqvjMs6DCD1kODkJPGzJ+1rn2ujBA2LN3N+3dt5cNLSvquDkaAAQYlNa9ri6t0rRRyf6jJndScOjgIc6k2PKGlpzgCFkU3/zvmxz++tCvh3LnoHIL1RnEZyyeJctXKM+ZAO2CVMo4q5HfY8nSJbllRLmOzvS0dDp18hR9u+Bbpr1fv3604ccNQpuzrBocaMAz/fIVy3m+nZFX9+7dRz8f+IV+/e0QJeTNZz0xeAkJbQ2CQ5IAILwzYCCtX7+O3/hhJ5DmcFvEzbhtm7Y0Y+ZMOnz4NwYITz31FJ06PuNdkAAAAwBJREFUfSrMExgvPvjggyzEsaD/+ON3vlFXrVKFF7AIIHi9kd96y23U9uab+YY+adIk2rJlcxT/ne/v6L9p02bUvl17KpCURAsXLuDnkLNn8RwhN+zkp456DVjtf/zYsbB9pso4DwKq3W3tOeb+0mVLafbs2Z6aB7AbNghhgOBjNeUMcODtVYGUxjbv8Fx1+ozl3cEaBFU2RwOAgMx8sCdxPhH5YGnwiYID0MpB+4VUvjZAuPSSS9ljSObaHDA1fhyAphNrHE+sboAATSj2gJ2iOn69Bi3ZHICMwj+2nV2F8hXoxMkT3p5ncWafTQM00Z4AIT7JmlJpx047WVPmSKABACHsl++SRPfd24nGpn4SFoD33tuJPv10XNQBYRsyim6xENzffPsNq/e9bvQ2RQl58rAhI+ixaIrUAoiM8yCY8A0KvnHbKojnzbKdkMUqYE9PiWTGeDl+UWgRydaFzQ9k8sL4kfXMtOQGcIAxyXJcGAGE9AzPUMvxML405f9fvb4N+gLeZ89KcD/5BfOQPfOQ3b2610GEBsELINhCyMvNEUaFMKq75tpr5OOMuGyLbt7qFI4qNbdnPgamzCPLZFhSRicKcg5KqWrRmWnnQFQSWqe93FIHgaIEtMYyb0jnWu/6erRp06YIYInUx/g7ZHHbhGyOGrkYcgsbAzoDDgQcCDiQlRxQAgS3MPYCCFCTQBWvkyI1QKhZOa1/zbahknYbhs6cOVMKEJ5//nl2r126dGlEuue/JveCUQccCDgQcCCSA54AQXRTdwIE3MycMQoC5gYcyGkcgAZh8+bNQg1CABBy2mwF9AQcCDiQkzggBQgyNX4AEHLS9AW0qDhgPzGsX78+6onBBgiwmIdHS1ACDgQcCDhwvnBAFQVXNc7fD//O3nNHjx6zvBhgg6B63wdAmDBhAgfzwc1MpEEIng9UrA9+PxccgN0B3LUQjAR/3rx5E9sgoJQsWZpuvOFGjpOxZs06zvMRlIADAQcCDpzPHMiU72pbv4O/HAqH6QdA+H+xDScx6O/4vAAAAABJRU5ErkJggg==;" vertex="1" parent="1">
                    <mxGeometry x="160" y="50" width="520" height="319" as="geometry"/>
                </mxCell>
                <mxCell id="3" value="" style="ellipse;whiteSpace=wrap;html=1;fillColor=#FF0000;" vertex="1" parent="1">
                    <mxGeometry x="415" y="150" width="10" height="10" as="geometry"/>
                </mxCell>
                <mxCell id="5" value="" style="edgeStyle=none;orthogonalLoop=1;jettySize=auto;html=1;exitX=1;exitY=0.5;exitDx=0;exitDy=0;strokeColor=#FF0000;" edge="1" parent="1" source="3">
                    <mxGeometry width="80" relative="1" as="geometry">
                        <mxPoint x="500" y="130" as="sourcePoint"/>
                        <mxPoint x="580" y="130" as="targetPoint"/>
                        <Array as="points"/>
                    </mxGeometry>
                </mxCell>
                <mxCell id="6" value="マウスで自由にドラッグ&amp;amp;ドロップ" style="text;strokeColor=none;align=center;fillColor=none;html=1;verticalAlign=middle;whiteSpace=wrap;rounded=0;fontColor=#FFFFFF;" vertex="1" parent="1">
                    <mxGeometry x="390" y="100" width="200" height="30" as="geometry"/>
                </mxCell>
            </root>
        </mxGraphModel>
    </diagram>
</mxfile>